<?xml version="1.0" encoding="UTF-8"?>
<svg id="Calque_1" data-name="Calque 1" xmlns="http://www.w3.org/2000/svg" xmlns:xlink="http://www.w3.org/1999/xlink" viewBox="0 0 412.41 414.19">
  <defs>
    <style>
      .cls-1 {
        fill: url(#Dégradé_sans_nom_11-11);
      }

      .cls-1, .cls-2, .cls-3, .cls-4, .cls-5, .cls-6, .cls-7, .cls-8, .cls-9, .cls-10, .cls-11, .cls-12, .cls-13, .cls-14, .cls-15, .cls-16, .cls-17, .cls-18, .cls-19, .cls-20, .cls-21, .cls-22, .cls-23, .cls-24, .cls-25, .cls-26, .cls-27, .cls-28, .cls-29 {
        stroke-width: 0px;
      }

      .cls-2 {
        fill: url(#Dégradé_sans_nom_11-10);
      }

      .cls-3 {
        fill: url(#Dégradé_sans_nom_11-14);
      }

      .cls-4 {
        fill: url(#Dégradé_sans_nom_11-15);
      }

      .cls-5 {
        fill: url(#Dégradé_sans_nom_11-12);
      }

      .cls-6 {
        fill: url(#Dégradé_sans_nom_11-17);
      }

      .cls-7 {
        fill: url(#Dégradé_sans_nom_11-13);
      }

      .cls-8 {
        fill: url(#Dégradé_sans_nom_11-18);
      }

      .cls-9 {
        fill: url(#Dégradé_sans_nom_11-19);
      }

      .cls-10 {
        fill: url(#Dégradé_sans_nom_11-16);
      }

      .cls-11 {
        fill: url(#Dégradé_sans_nom_11-20);
      }

      .cls-12 {
        fill: url(#Dégradé_sans_nom_11-21);
      }

      .cls-13 {
        fill: url(#Dégradé_sans_nom_11-29);
      }

      .cls-14 {
        fill: url(#Dégradé_sans_nom_11-22);
      }

      .cls-15 {
        fill: url(#Dégradé_sans_nom_11-24);
      }

      .cls-16 {
        fill: url(#Dégradé_sans_nom_11-23);
      }

      .cls-17 {
        fill: url(#Dégradé_sans_nom_11-26);
      }

      .cls-18 {
        fill: url(#Dégradé_sans_nom_11-25);
      }

      .cls-19 {
        fill: url(#Dégradé_sans_nom_11-28);
      }

      .cls-20 {
        fill: url(#Dégradé_sans_nom_11-27);
      }

      .cls-21 {
        fill: url(#Dégradé_sans_nom_11-9);
      }

      .cls-22 {
        fill: url(#Dégradé_sans_nom_11-3);
      }

      .cls-23 {
        fill: url(#Dégradé_sans_nom_11-2);
      }

      .cls-24 {
        fill: url(#Dégradé_sans_nom_11-4);
      }

      .cls-25 {
        fill: url(#Dégradé_sans_nom_11-7);
      }

      .cls-26 {
        fill: url(#Dégradé_sans_nom_11-6);
      }

      .cls-27 {
        fill: url(#Dégradé_sans_nom_11-5);
      }

      .cls-28 {
        fill: url(#Dégradé_sans_nom_11-8);
      }

      .cls-29 {
        fill: url(#Dégradé_sans_nom_11);
      }
    </style>
    <linearGradient id="Dégradé_sans_nom_11" data-name="Dégradé sans nom 11" x1="115.54" y1="216.76" x2="294.71" y2="216.76" gradientUnits="userSpaceOnUse">
      <stop offset=".11" stop-color="#f4f0e6"/>
      <stop offset=".14" stop-color="#f4f0e6"/>
    </linearGradient>
    <linearGradient id="Dégradé_sans_nom_11-2" data-name="Dégradé sans nom 11" x1="284.71" y1="205" x2="284.74" y2="205" xlink:href="#Dégradé_sans_nom_11"/>
    <linearGradient id="Dégradé_sans_nom_11-3" data-name="Dégradé sans nom 11" x1="275" y1="255.16" x2="275.06" y2="255.16" xlink:href="#Dégradé_sans_nom_11"/>
    <linearGradient id="Dégradé_sans_nom_11-4" data-name="Dégradé sans nom 11" x1="275.25" y1="253.61" x2="275.25" y2="253.61" xlink:href="#Dégradé_sans_nom_11"/>
    <linearGradient id="Dégradé_sans_nom_11-5" data-name="Dégradé sans nom 11" x1="192.47" y1="296.42" x2="192.52" y2="296.42" xlink:href="#Dégradé_sans_nom_11"/>
    <linearGradient id="Dégradé_sans_nom_11-6" data-name="Dégradé sans nom 11" x1="188.09" y1="217.81" x2="188.57" y2="217.81" xlink:href="#Dégradé_sans_nom_11"/>
    <linearGradient id="Dégradé_sans_nom_11-7" data-name="Dégradé sans nom 11" x1="192.8" y1="292.19" x2="193" y2="292.19" xlink:href="#Dégradé_sans_nom_11"/>
    <linearGradient id="Dégradé_sans_nom_11-8" data-name="Dégradé sans nom 11" x1="139.73" y1="175.11" x2="140.71" y2="175.11" xlink:href="#Dégradé_sans_nom_11"/>
    <linearGradient id="Dégradé_sans_nom_11-9" data-name="Dégradé sans nom 11" x1="125.5" y1="226.56" x2="125.53" y2="226.56" xlink:href="#Dégradé_sans_nom_11"/>
    <linearGradient id="Dégradé_sans_nom_11-10" data-name="Dégradé sans nom 11" x1="225" y1="142.26" x2="225.05" y2="142.26" xlink:href="#Dégradé_sans_nom_11"/>
    <linearGradient id="Dégradé_sans_nom_11-11" data-name="Dégradé sans nom 11" x1="171.71" y1="149.71" x2="172.16" y2="149.71" xlink:href="#Dégradé_sans_nom_11"/>
    <linearGradient id="Dégradé_sans_nom_11-12" data-name="Dégradé sans nom 11" x1="169.75" y1="148.48" x2="169.91" y2="148.48" xlink:href="#Dégradé_sans_nom_11"/>
    <linearGradient id="Dégradé_sans_nom_11-13" data-name="Dégradé sans nom 11" x1="169.42" y1="145.57" x2="169.65" y2="145.57" xlink:href="#Dégradé_sans_nom_11"/>
    <linearGradient id="Dégradé_sans_nom_11-14" data-name="Dégradé sans nom 11" x1="324.33" y1="233.57" x2="324.38" y2="233.57" xlink:href="#Dégradé_sans_nom_11"/>
    <linearGradient id="Dégradé_sans_nom_11-15" data-name="Dégradé sans nom 11" x1="73.69" y1="217.41" x2="335.39" y2="217.41" xlink:href="#Dégradé_sans_nom_11"/>
    <linearGradient id="Dégradé_sans_nom_11-16" data-name="Dégradé sans nom 11" x1="269.4" y1="61.68" x2="336.79" y2="61.68" xlink:href="#Dégradé_sans_nom_11"/>
    <linearGradient id="Dégradé_sans_nom_11-17" data-name="Dégradé sans nom 11" x1="329.58" y1="124.38" x2="399.35" y2="124.38" xlink:href="#Dégradé_sans_nom_11"/>
    <linearGradient id="Dégradé_sans_nom_11-18" data-name="Dégradé sans nom 11" x1="357.69" y1="199.66" x2="412.41" y2="199.66" xlink:href="#Dégradé_sans_nom_11"/>
    <linearGradient id="Dégradé_sans_nom_11-19" data-name="Dégradé sans nom 11" x1="349.61" y1="279.53" x2="399.82" y2="279.53" xlink:href="#Dégradé_sans_nom_11"/>
    <linearGradient id="Dégradé_sans_nom_11-20" data-name="Dégradé sans nom 11" x1="304.75" y1="343.52" x2="356.48" y2="343.52" xlink:href="#Dégradé_sans_nom_11"/>
    <linearGradient id="Dégradé_sans_nom_11-21" data-name="Dégradé sans nom 11" x1="217.34" y1="379.53" x2="292.47" y2="379.53" xlink:href="#Dégradé_sans_nom_11"/>
    <linearGradient id="Dégradé_sans_nom_11-22" data-name="Dégradé sans nom 11" x1="145.16" y1="390.98" x2="196.68" y2="390.98" xlink:href="#Dégradé_sans_nom_11"/>
    <linearGradient id="Dégradé_sans_nom_11-23" data-name="Dégradé sans nom 11" x1="72.09" y1="361.01" x2="122.3" y2="361.01" xlink:href="#Dégradé_sans_nom_11"/>
    <linearGradient id="Dégradé_sans_nom_11-24" data-name="Dégradé sans nom 11" x1="21.71" y1="302.43" x2="66.86" y2="302.43" xlink:href="#Dégradé_sans_nom_11"/>
    <linearGradient id="Dégradé_sans_nom_11-25" data-name="Dégradé sans nom 11" x1="0" y1="227.42" x2="39.23" y2="227.42" xlink:href="#Dégradé_sans_nom_11"/>
    <linearGradient id="Dégradé_sans_nom_11-26" data-name="Dégradé sans nom 11" x1="8.29" y1="148.86" x2="54.48" y2="148.86" xlink:href="#Dégradé_sans_nom_11"/>
    <linearGradient id="Dégradé_sans_nom_11-27" data-name="Dégradé sans nom 11" x1="43.82" y1="83.02" x2="105.45" y2="83.02" xlink:href="#Dégradé_sans_nom_11"/>
    <linearGradient id="Dégradé_sans_nom_11-28" data-name="Dégradé sans nom 11" x1="114.89" y1="32.21" x2="170.76" y2="32.21" xlink:href="#Dégradé_sans_nom_11"/>
    <linearGradient id="Dégradé_sans_nom_11-29" data-name="Dégradé sans nom 11" x1="191.8" y1="27.37" x2="242.2" y2="27.37" xlink:href="#Dégradé_sans_nom_11"/>
  </defs>
  <path class="cls-29" d="m291.37,195.2l-10.31-19.24c-3.21-5.99-6.42-11.99-9.63-17.98-1.88-3.52-4.52-6.42-8.52-7.56-8.34-2.37-16.95,4.72-16.19,13.39.26,2.92,1.18,5.82,1.87,8.66.97,3.96,1.93,7.92,2.9,11.89.02.1.05.2.07.29-.07,0-.14-.01-.21-.02-5.94-.44-11.88-.89-17.82-1.33.3-6.83.61-13.65.9-20.48.28-6.62.71-13.28.64-19.9-.05-4.21-1.83-8.25-4.72-11.29-4.03-4.24-9.75-5.74-15.41-4.87-3.26.51-6.52,1.06-9.78,1.58-11.3,1.83-22.6,3.66-33.9,5.49-1.81.29-3.42.62-5.12,1.49-5.57,2.84-8.34,9.94-6.1,15.78,1.13,2.97,3.25,5.62,6.13,7.07,1.87.95,3.62,1.33,5.69,1.55,2.13.22,4.27.42,6.4.63,3.81.38,7.62.82,11.44,1.18-1.17,2.7-2.33,5.4-3.5,8.1-1.4,3.24-2.8,6.48-4.2,9.72-5.32-1.96-10.64-3.91-15.95-5.89-7.38-2.75-14.74-5.66-22.25-8.04-9.48-3.01-19.79,3.92-21.26,13.6-1.84,12.08-3.59,24.18-5.39,36.27-.37,2.49-.74,4.97-1.11,7.46-.38,2.57-.78,5.04-.21,7.65.77,3.48,3.28,6.76,6.46,8.37,3.65,1.85,7.62,1.9,11.34.25,3.58-1.6,5.6-4.64,7.05-8.08,2.27-5.38,4.55-10.76,6.82-16.14,1.18,1.05,2.36,2.1,3.54,3.15,3.65,3.24,7.29,6.49,10.94,9.73-7.83,10.2-15.78,20.32-23.36,30.7-.79,1.08-1.66,2.16-2.31,3.33-2.12,3.88-2.53,8.86-1.18,13.06,1.38,4.31,4.36,8.05,8.41,10.14.57.29,1.14.57,1.71.85,8.36,4.17,16.73,8.34,25.09,12.52,3.87,1.93,7.74,3.86,11.61,5.79.88.44,1.76.89,2.65,1.32,3.13,1.54,6.76,2.17,10.14.96,2.85-1.02,4.9-2.71,6.71-5.1.12-.16.22-.32.3-.49,3.37-5.44,1.81-12.65-2.9-16.78-2.56-2.24-5.12-4.48-7.67-6.72-2.11-1.85-4.23-3.7-6.34-5.55,2.52-1.54,5.05-3.08,7.57-4.62,2.97-1.81,5.93-3.62,8.89-5.43,6.42,9.47,12.79,18.97,19.34,28.35,2.58,3.69,4.96,7.76,9.14,9.85,6.81,3.41,14.94,2.05,20.21-3.48,5.18-5.42,10.32-10.88,15.47-16.32,5.3-5.59,10.66-11.13,15.91-16.78.09-.1.19-.2.29-.3,3.68-4.08,4.58-9.54,2.38-14.57-1.95-4.44-6.54-7.19-11.31-7.34-4.55-.14-8.12,2.57-11.78,4.84-3.75,2.33-7.51,4.67-11.26,7-.44-1.85-.87-3.7-1.31-5.56-1.05-4.47-2.05-8.96-3.12-13.43,3.34-1.02,6.67-2.05,10.01-3.07,9.14-2.8,18.34-5.48,27.36-8.62,1.14-.4,2.34-.79,3.4-1.35,6.65-3.78,9.9-11.5,8.29-18.92-.52-2.42-1.78-4.58-2.94-6.74Zm-7.14,13.5c.03-.07.05-.13.09-.22.01,0-.03.1-.09.22Zm.07-5.49c-.08-.18-.15-.37-.23-.55.14.25.24.47.23.55Zm-22.49-42.04c-.04-.06-.09-.12-.13-.18.08.09.13.16.13.18Zm-.58-.62c-.06-.04-.09-.07-.17-.12.02,0,.08.05.17.12Zm-.33-.27c-.16-.07-.32-.13-.49-.2.21.05.41.1.49.2Zm-1.53-.38c-.14.02-.27.03-.41.05.17-.05.34-.09.41-.05Zm-1.26.33l-.39.31c.15-.16.3-.31.39-.31Zm-1.46,2.4c0,.08-.02.16-.03.27-.02-.01,0-.12.03-.27Zm-.06.37c.03.21.06.41.1.62-.07-.24-.14-.48-.1-.62Zm-4.24,24.94c.14.55.01.54,0,0h0Zm-27.79-47.4c-.03-.06-.06-.12-.08-.16.03.05.06.1.08.16Zm-1.9-2.48s-.14-.15-.25-.25c.14.1.24.18.25.25Zm-51.86,6.04c-.12.07-.23.13-.23.09,0-.02.11-.05.23-.09Zm-1.09.97s-.05.07-.09.12c0,0,.04-.06.09-.12Zm-.48,1.26c0,.14-.02.26-.03.25-.02-.01,0-.12.03-.25Zm0,.86c0,.05.02.1.02.16-.01,0-.02-.06-.02-.16Zm.28.87c.08.24.12.42,0,0h0Zm-.15-.37s.05.08.09.18c-.06-.1-.1-.18-.09-.18Zm.71,1.16s.09.08.19.17c-.12-.08-.19-.14-.19-.17Zm1.12.7c.09.04.17.07.29.12-.01.01-.13-.04-.29-.12Zm20.9,31.42c2.12-4.9,4.23-9.8,6.35-14.7.61-1.42,1.23-2.84,1.84-4.27.89-2.11.8-4.51-.37-6.52-1.38-2.36-3.67-3.34-6.27-3.61-2.08-.22-4.15-.41-6.23-.62-5.09-.5-10.17-1.06-15.26-1.51.02,0,.04.02.05.03-.02-.01-.05-.02-.07-.03-.11,0-.22-.02-.33-.03-.29-.03-.25-.06-.1-.06-.06,0-.11-.02-.15-.03-.11-.03-.21-.06-.32-.09-.11-.04-.18-.07-.24-.08-.2-.11-.42-.23-.6-.34-.04-.05-.1-.11-.17-.2-.03-.03-.18-.17-.32-.31.1.18.16.31-.04-.04-.12-.12-.22-.22-.2-.24.01-.02.05,0,.08.05-.08-.14-.2-.32-.28-.46-.06-.18-.12-.37-.17-.55-.02-.09-.04-.18-.06-.28,0-.3.02-.74.02-.77,0-.01,0-.01,0-.02.05-.19.13-.42.15-.5-.02.02-.04.04-.07.07.03-.02.06-.07.09-.12.06-.18.11-.28.16-.33.03-.06.05-.1.07-.14.06-.09.12-.19.17-.28.02-.03.03-.04.04-.06.11-.11.21-.22.2-.21-.02.02.14-.14.28-.27.13-.08.25-.16.39-.24.08-.05.12-.09.17-.12.13-.04.25-.08.29-.09.32-.1.65-.16.98-.22.08-.01.16-.03.24-.04,10.02-1.68,20.05-3.24,30.07-4.87,4.58-.74,9.17-1.48,13.75-2.23.33-.05.66-.1.98-.16-.64.21.24-.02.43-.02.23,0,.46-.01.69,0,.04,0,.41,0,.69.02.08.02.19.04.33.07.49.11.96.27,1.44.42.02,0,.03,0,.05.02.16.08.37.19.41.22.12.07.61.3.97.52,0,.02.06.08.18.2.28.27.57.52.84.8.05.05.18.17.31.3.02.03.03.06.07.11.3.48.58.96.87,1.45.06.11.1.18.14.22.05.18.09.37.13.49.09.28.15.56.21.84-.16-.86.03-.31.05.23,0,0,0,.01,0,.02.04.21.08.42.13.62-.05-.24-.1-.44-.13-.61.01.39.01.77.01,1.16,0,1.14-.03,2.28-.06,3.42-.09,3.48-.22,6.97-.36,10.45-.33,8.42-.72,16.84-1.1,25.26,0,.08,0,.16-.01.23-1.3.13-2.58.34-3.83.66-.41.1-.8.22-1.2.33-.05.01-.09.03-.14.04-1.32.39-2.6.87-3.84,1.47,0,0-.01,0-.02,0-.06.03-.11.06-.17.08-.37.18-.74.36-1.11.56-3.03,1.61-5.77,3.89-8.02,6.56-.16-.21-.33-.43-.49-.63-.14-.18-.29-.35-.44-.53-.42-.5-.86-.98-1.32-1.45-.04-.04-.08-.08-.12-.12-.52-.52-1.05-1.02-1.61-1.49-.07-.06-.13-.12-.2-.17-.15-.12-.29-.26-.44-.38-.28-.22-.57-.42-.86-.62-.27-.2-.53-.4-.81-.59-.37-.25-.74-.48-1.11-.72-.28-.18-.56-.36-.85-.52-.5-.29-1.02-.56-1.54-.82-.18-.09-.35-.18-.53-.27-.51-.24-1.04-.46-1.57-.67-.2-.08-.38-.17-.58-.25-.11-.04-.23-.09-.34-.13,0,0-.01,0-.02,0-.01,0-.03-.01-.04-.02-.35-.13-.7-.26-1.05-.39.27-.62.54-1.24.8-1.86Zm-66.39,47.68c.03.07.05.13.09.22-.02,0-.06-.1-.09-.22Zm2.36,1.65s.05,0,.08,0c0,0-.04,0-.08,0Zm.81-.06c.14-.06.28-.12.41-.18-.18.11-.36.21-.41.18Zm.95-.48c.09-.07.15-.11.21-.15-.09.09-.18.16-.21.15Zm.59-.51c.09-.11.17-.22.26-.33-.09.17-.19.31-.26.33Zm14.44-16.78c-.22-.13-.14-.09,0,0h0Zm1.56-9.5c-2.44.04-4.98,1.39-6.18,3.57-.27.49-.46,1.04-.68,1.55-1.15,2.72-2.3,5.43-3.45,8.15-1.25,2.97-2.51,5.94-3.76,8.91-.33.79-.66,1.58-1,2.36-.12.29-.25.57-.39.85-.04.08-.15.31-.26.52-.08.1-.17.2-.26.29-.05.05-.2.23-.35.39-.02.01-.03.02-.05.03-.14.09-.28.18-.43.27-.04.02-.14.09-.26.16-.18.06-.36.12-.54.17.02,0-.11.03-.27.06-.13,0-.25.02-.38.02-.1,0-.2,0-.3,0-.2-.05-.42-.11-.39-.11-.09-.03-.17-.05-.26-.08-.16-.09-.46-.27-.64-.38-.07-.06-.14-.13-.21-.19-.01-.01-.08-.08-.15-.16-.1-.14-.29-.39-.32-.44l-.17-.3c-.03-.06-.05-.09-.07-.14-.04-.13-.07-.24-.06-.24-.03-.11-.06-.22-.09-.33-.11-.55-.11-.44,0,.32-.18-.1-.06-1.12,0-1.57-.03.16-.07.42-.14.84.17-1.02.3-2.04.45-3.06,1.85-12.42,3.69-24.84,5.54-37.26l.77-5.17c.08-.56.16-1.11.29-1.66.1-.41.22-1.4.52-1.66-.08.19-.16.38-.23.56.09-.21.2-.41.3-.61.11-.2.22-.4.33-.59.04-.07.16-.29.28-.49.03-.03.07-.06.12-.12.23-.24.44-.49.68-.73.15-.14.3-.28.45-.42-.25.4.09-.1.33-.26.28-.18.56-.35.85-.51.19-.1.39-.19.58-.3.02,0,.02,0,.04-.01.54-.15,1.07-.3,1.61-.44.02,0,.02,0,.04-.01.33-.02.66-.04,1-.04.05,0,.23,0,.43-.01-.02-.03-.01-.04.03-.02.02.01.06.02.09.02.24,0,.47.01.5.06.02.03.03.05.05.08.25.07.49.14.74.22,2.74.87,5.45,1.87,8.16,2.85,8.55,3.1,17.06,6.3,25.58,9.48,2.81,1.05,5.61,2.1,8.42,3.14,0,0,.02,0,.03.01,1.22.45,2.43.9,3.65,1.35.11.04.22.08.33.12.21.08.43.15.64.23.48.17.96.35,1.45.52.18.06.82.32.95.36.06.03.11.05.13.06.09.04.17.09.25.13.54.27,1.07.56,1.59.87.12.07.25.14.38.22.26.17.96.64,1.27.85.04.03.07.05.09.07.03.02.06.05.09.07.22.18.43.37.65.56.48.43.94.89,1.38,1.36.28.3.55.6.82.91.06.07.12.14.17.21.01.02.02.03.03.05.3.44.6.88.88,1.33.03.04.05.08.08.12.24.38.46.78.67,1.17.1.18.2.36.29.54.08.17.17.34.25.52.05.12.11.24.17.36,0,0,0,0,0,0,.05.14.1.28.15.42-.57,1.91-.92,3.87-1.06,5.85,0,0,0,0,0,0-5.41-1.62-11.33-1.6-16.64.28-.98.35-1.95.75-2.88,1.19-.13.06-.26.11-.39.17-1.14.54-2.21,1.18-3.21,1.88-1.55,1.03-3,2.21-4.31,3.56-1.15,1.18-2.19,2.49-3.2,3.83-5.3-4.67-10.53-9.42-15.8-14.12-1.68-1.5-3.38-2.64-5.74-2.61Zm-.76,70.94s.16.22.27.38c-.16-.17-.29-.32-.27-.38Zm1.53,1.57c.11.1.15.14,0,0h0Zm42.09,21.15c.12.05.24.1.36.14-.16-.05-.33-.1-.36-.14Zm4.28-1.93c0,.12-.01.22-.02.21-.02,0,0-.1.02-.21Zm-4.14-37.53c-3.29,2.01-6.58,4.02-9.86,6.02-1.97,1.2-4.22,2.26-5.49,4.28-1.45,2.3-1.43,5.45.05,7.73.7,1.08,1.61,1.81,2.56,2.64,1.33,1.17,2.67,2.34,4,3.51,3.09,2.71,6.18,5.41,9.27,8.12.75.65,1.51,1.3,2.24,1.96.21.19.41.4.61.61,0-.02,0-.04,0-.05,0,.01.01.05.03.08.04.04.08.08.11.11.28.29.18.27.06.16.07.1.14.2.16.23.05.09.1.18.14.27.06.28.22,1.02.25.95,0,.19.02.39.02.46,0-.03,0,.15-.01.33,0,0,0,0,0,.01-.05.16-.08.32-.13.48-.15.17-.33.55-.47.84-.13.15-.32.35-.44.49.09-.06.2-.13.27-.17,0,0,0,.01-.01.02-.05.03-.13.08-.23.14-.01,0-.03.02-.04.03-.08.08-.13.13-.14.12,0-.02.04-.05.1-.1-.12.07-.24.15-.36.22-.09.05-.15.09-.21.12-.04.01-.09.03-.15.05-.16.05-.33.09-.49.13-.02,0-.04.01-.06.02-.29,0-.58,0-.87-.01-.14-.04-.28-.07-.41-.1-.01,0-.09-.02-.17-.05-.56-.4-1.31-.65-1.92-.95-3.38-1.69-6.76-3.37-10.14-5.06-8.41-4.2-16.82-8.39-25.23-12.59l-3.21-1.6c-.21-.1-.42-.21-.63-.31-.22-.11-.44-.23-.66-.35-.28-.16-.69-.54-1.02-.69-.13-.12-.27-.24-.39-.36-.07-.07-.35-.32-.58-.55-.03-.05-.07-.11-.13-.21-.12-.19-.24-.36-.36-.55-.2-.33-.37-.67-.55-1,0-.01-.01-.03-.02-.04-.02-.04-.03-.07-.05-.12-.03-.1-.07-.21-.1-.31-.13-.42-.24-.84-.33-1.27-.01-.06-.03-.13-.04-.19,0-.36-.05-.73-.04-1.09,0-.11.02-.46.04-.75.04-.05.18-.91.22-1.07.04-.15.09-.47.17-.73.03-.04.07-.09.12-.18.02-.02.03-.05.04-.08.04-.07.08-.14.12-.2.28-.48.62-.93.94-1.39,6.73-9.56,14.07-18.72,21.19-27.99,1.79-2.33,3.57-4.65,5.36-6.98.15-.2.3-.4.45-.59.02-.02.04-.05.06-.07.5-.66,1-1.32,1.51-1.98.46-.6.91-1.19,1.37-1.79.35-.46.72-.92,1.04-1.4.12-.13.23-.26.35-.4.25-.29.5-.57.76-.85.48-.51.99-1,1.52-1.46.05-.04.1-.09.15-.14.11-.1.23-.19.34-.28.27-.19.55-.38.82-.57.17-.11.35-.21.52-.32.47-.29.95-.57,1.44-.83.18-.09.35-.19.52-.28.03-.02.08-.04.13-.07.08-.04.17-.09.25-.13.03-.01.07-.03.1-.04.02,0,.03,0,.05-.01.86-.31,1.72-.6,2.61-.83.11-.03.22-.06.33-.09.41-.1.82-.18,1.23-.26,0,0,0,0,0,0,.04,0,.08-.02.12-.02h0s0,0,.01,0c.07-.01.13-.02.18-.02.04,0,.07-.01.1-.02.18-.02.35-.03.53-.04.27-.02.53-.04.8-.05.23-.01.46-.01.68-.02.4,0,.8,0,1.2,0,.46.02.91.07,1.37.1.25.05.51.09.76.14.52.1,1.03.23,1.54.37.12.03.24.07.36.11.16.05.31.1.47.15-.15.19-.3.37-.45.56-.09.12-.18.24-.26.35-.25.33-.49.66-.72.99-.12.17-.23.35-.35.53-.18.28-.36.56-.54.84-.15.25-.3.51-.44.76-.12.2-.23.41-.34.62-.18.34-.36.69-.53,1.04-.06.12-.11.23-.17.35-.21.44-.4.89-.59,1.34,0,.02-.01.03-.02.05-1.23,3.04-1.92,6.31-1.98,9.69,0,.03,0,.06,0,.09,0,.3,0,.61.01.91,0,.16,0,.32,0,.48,0,.02,0,.03,0,.05.06,1.67.27,3.32.63,4.95.5,2.32,1.28,4.58,2.35,6.7,0,0,0,0,0,.01,0,0,0,0,0,.01.15.3.31.6.47.9.68,1.25,1.47,2.46,2.29,3.64-2.06,1.26-4.11,2.51-6.17,3.77Zm50.61,34.19s.07-.02.15-.06c-.07.04-.14.06-.15.06Zm35.31-37.2c0-.14,0-.26,0-.26.02.06.01.16,0,.26Zm-.79-2.32s-.02-.02-.03-.04c0,0,.01,0,.01,0,0,0,.01.02.02.03Zm-.03-.04s-.02-.01-.02-.02c-.03-.03-.05-.05-.05-.05.01,0,.04.02.08.07Zm-4.26.04c.12-.08.25-.16.37-.23.02,0,.03-.02.05-.03.18-.11.37-.21.55-.31.19-.04.75-.16.96-.23.19,0,.37,0,.56,0,.09.01.34.04.44.08.16.05.33.11.49.16,0,0,0,0,.01,0,.14.09.28.16.42.25.09.1.28.24.32.28.14.14.21.21.27.26.13.22.29.5.39.71,0,.24.06.65.15.81-.1-.22,0-.86.02-.18,0,.07,0,.14,0,.2,0,0-.01-.01-.02-.02,0,.01.01.02.02.03,0,.17,0,.35,0,.52,0,.1,0,.17.01.23-.05.16-.11.32-.14.41,0,.02-.05.15-.09.28.1-.21.23-.4-.03.09-.03.08-.05.15-.04.15-.01,0,0-.04,0-.08,0,.02-.01.03-.02.05-.09.16-.19.31-.28.47,0,.01-.01.02-.02.03-.03.03-.06.07-.11.11-4.23,4.46-8.46,8.92-12.69,13.38-5.85,6.17-11.71,12.35-17.56,18.52-.51.54-1.02,1.09-1.54,1.62-.03.03-.06.06-.09.09-.21.22-.42.43-.65.63-.03.03-.26.2-.35.29,0,0-.01,0-.02.01-.33.22-.68.43-1.04.62,0,0-.14.08-.29.16-.03,0-.04.01-.07.02-.38.12-.75.25-1.13.34-.16.04-.33.07-.49.11,0,0,0,0,0,0-.7.02-1.5-.09-2.18-.01-.11-.02-.21-.04-.32-.07-.43-.1-.83-.25-1.25-.37-.09-.04-.17-.08-.26-.13-.41-.21-.79-.46-1.19-.71-.1-.08-.21-.16-.25-.21-.16-.15-.33-.29-.48-.45-.08-.08-.15-.17-.22-.26-.42-.57-.84-1.14-1.25-1.71-6.83-9.55-13.32-19.35-19.91-29.08-1.43-2.11-2.87-4.23-4.3-6.34,0,0,0,0,0,0,0,0,0,0,0-.01-.09-.13-.17-.25-.26-.38-1.86-2.74-3.93-5.4-5.41-8.37-.1-.23-.24-.58-.24-.56-.1-.27-.2-.54-.29-.82-.03-.08-.05-.17-.08-.25-.1-.31-.2-.63-.29-.95-.1-.35-.19-.7-.27-1.05-.04-.16-.11-.38-.17-.62-.05-.21-.08-.43-.1-.63,0-.05,0-.11,0-.2-.02-.27-.05-.53-.07-.8-.03-.44-.04-.88-.05-1.32,0-.82.03-1.65.11-2.47.01-.11.02-.19.02-.26.01-.05.02-.1.04-.19.06-.32.13-.63.19-.95.05-.25.12-.49.18-.73.05-.21.1-.41.16-.62.07-.24.14-.47.22-.7.08-.24.15-.49.24-.73.06-.15.11-.3.16-.46.16-.4.18-.45.06-.17.02-.06.02-.1.02-.11.12-.23.26-.48.33-.61.32-.64.68-1.27,1.06-1.88.13-.21.26-.42.4-.63,0,0,0,0,0-.01,3.62,5.62,9.4,9.94,15.85,11.68.43.12.86.22,1.29.32,0,0,0,0,.01,0,0,0,0,0,0,0,.98.22,1.97.37,2.97.47.06,0,.12.01.19.02.36.03.71.06,1.07.08.37.02.73.04,1.1.04.08,0,.15,0,.23,0,2.04.03,4.08-.16,6.11-.58.09-.02.17-.03.26-.05.11-.02.22-.04.33-.07.13-.03.26-.07.39-.1.51-.12,1.02-.26,1.53-.4.22-.06.44-.13.67-.2.22-.07.44-.13.66-.2.71,3.04,1.4,6.08,2.11,9.11.99,4.2,1.94,8.41,2.97,12.6,1.21,4.9,6.54,7.33,10.97,4.74,6.27-3.67,12.36-7.7,18.54-11.52Zm-19.78,4.49s.03.07.02.07c0,0,0-.03-.02-.07Zm10.89-37.87c-9.84,3.04-19.73,5.94-29.52,9.12-.44.14-.88.27-1.32.39-.3.08-.6.16-.9.23-.23.05-.46.11-.69.15-.05,0-.16.04-.28.07-.18.03-.35.06-.52.07-.22,0-.46.02-.55.03-.89.06-1.78.06-2.67.02-.11,0-.56-.03-.87-.05-.11-.01-.22-.03-.33-.05,0,0,0,0,0,0,0,0,0,0,0,0-.07,0-.13-.02-.2-.03-.11-.03-.21-.06-.28-.07-.75-.15-1.49-.33-2.21-.56-.49-.16-.98-.33-1.46-.49-.07-.02-.12-.04-.17-.06-.03-.02-.07-.04-.12-.06-.81-.41-1.61-.81-2.39-1.29-.37-.23-.73-.46-1.08-.71-.1-.07-.49-.38-.6-.48-.21-.18-.42-.36-.63-.54-.52-.47-1.03-.97-1.51-1.49-.26-.28-.5-.58-.75-.87-.03-.03-.05-.06-.08-.09-.02-.04-.05-.07-.08-.12-.25-.37-.49-.74-.73-1.11,0-.01-.01-.02-.02-.03-.19-.29-.37-.6-.54-.9-.08-.15-.17-.3-.25-.46-.21-.39-.4-.79-.59-1.2-.05-.12-.14-.33-.2-.49-.15-.45-.32-.89-.46-1.34-.28-.93-.49-1.86-.69-2.8-.02-.11-.04-.2-.06-.27,0-.07,0-.15-.01-.27-.03-.49-.06-.98-.08-1.47,0-.22,0-.45,0-.67,0-.23,0-.45.02-.68,0-.21.02-.42.03-.63.01-.16.03-.32.04-.47.03-.19.06-.43.07-.57,0-.03,0-.05.01-.08.06-.36.13-.71.21-1.06.04-.16.07-.31.11-.47.14-.52.3-1.04.46-1.55.12-.35.24-.69.36-1.04.03-.08.07-.17.1-.25,0-.02.02-.03.02-.05.09-.18.18-.36.27-.54.15-.3.3-.59.46-.88.19-.35.39-.68.6-1.02.17-.28.34-.57.53-.84.08-.12.15-.23.23-.34.1-.14.2-.28.3-.42.57-.64,1.14-1.27,1.74-1.88.41-.41.83-.82,1.27-1.2.05-.05.11-.09.16-.13.37-.18.73-.5,1.08-.76.34-.22.69-.44,1.04-.64.23-.14.46-.28.7-.41.29-.15.69-.43,1.08-.6,0,.01.06,0,.19-.03-.09.04-.18.07-.26.11.18-.07.36-.14.54-.21.12-.04.24-.08.36-.13.17-.06.35-.12.52-.18.22-.07.45-.13.67-.19.4-.12.8-.22,1.21-.31.44-.07.94-.11,1.33-.25.06,0,.12-.01.19-.02.34-.03.68-.05,1.03-.05.41-.01.81,0,1.22,0,.26,0,.51.02.77.03.13,0,.26.02.38.02.26.04.53.06.8.05,5.01.37,10.01.75,15.02,1.12,3.57.27,7.14.53,10.71.8,2.45.18,4.73-.46,6.41-2.33,1.7-1.89,2.17-4.34,1.64-6.79-1.34-6.18-3-12.3-4.5-18.44-.26-1.08-.53-2.16-.79-3.25-.03-.11-.08-.26-.12-.41-.02-.23-.02-.46-.02-.69,0-.12,0-.23.01-.35,0-.05,0-.09.01-.13.07-.25.15-.51.16-.56.03-.09.06-.17.09-.25.02-.04.03-.06.05-.11.12-.18.23-.39.34-.58,0,0,0-.01,0-.02.01-.01.02-.02.03-.03.06-.05.18-.21.32-.35.17-.11.34-.22.52-.32.03-.02.06-.04.08-.06.11-.03.36-.13.6-.21.2-.01.39-.03.59-.03.13,0,.25.01.38.02.02,0,.03,0,.04,0,.1.03.29.06.48.1.19.1.38.2.57.31l.29.19s.03.02.04.03c.09.09.2.19.3.29.09.13.19.27.27.41.17.28.12.21.18.32.02.04.04.08.06.12,2.46,4.49,4.84,9.03,7.25,13.54,3.67,6.84,7.33,13.68,11,20.53,1.07,2,2.14,3.99,3.21,5.99.07.13.32.52.51.86.08.21.16.42.23.64.11.32.2.65.28.98,0,.04.07.34.12.6-.01-.18,0-.27.02.09.03.17.06.3.06.3-.02,0-.04-.05-.05-.12,0,.04,0,.07,0,.12.01.23-.15,1.54-.09,1.89,0,.02,0,.03,0,.05-.09.43-.21.85-.35,1.26-.04.1-.07.21-.11.31,0,.02-.01.03-.02.05-.12.23-.27.5-.29.54-.16.29-.35.56-.52.84-.02.03-.02.04-.04.07-.45.48-.9.94-1.38,1.38-.03.02-.05.03-.09.05-.27.16-.53.33-.8.49-.44.16-.87.32-1.31.47-1.58.54-3.16,1.06-4.75,1.57-4.53,1.46-9.07,2.87-13.62,4.27Z"/>
  <path class="cls-23" d="m284.73,204.96s-.01-.06-.02-.09c0,.09.01.19.03.27,0-.07,0-.13-.01-.18Z"/>
  <path class="cls-22" d="m275.03,255.16s.02-.06.03-.09c-.03.06-.05.11-.06.16.01-.03.02-.04.04-.07Z"/>
  <path class="cls-24" d="m275.25,253.61s0,0,0,0c0,0,0,0,0,0Z"/>
  <path class="cls-27" d="m192.5,296.42s0,0,.01-.01c-.02.01-.03.02-.05.03.01,0,.02-.01.03-.02Z"/>
  <path class="cls-26" d="m188.4,217.77c-.06.01-.12.02-.19.02-.04,0-.08.02-.12.02.53.08.59-.06.31-.05Z"/>
  <path class="cls-25" d="m193,292.34c-.07-.1-.14-.2-.17-.27,0,0-.02-.02-.02-.02.01.1.11.22.2.3Z"/>
  <path class="cls-28" d="m140.4,174.85c-.1-.03-.2-.06-.3-.09-.08-.02-.17-.03-.26-.06-.04,0-.07,0-.11,0,.13.23,1.61,1.61.67.14Z"/>
  <path class="cls-21" d="m125.5,226.66c.05-.3.03-.24,0,0h0Z"/>
  <path class="cls-2" d="m225.05,142.37c-.02-.08-.04-.17-.05-.25.01.08.03.17.05.27,0,0,0-.01,0-.02Z"/>
  <path class="cls-1" d="m172.14,149.75s.01,0,.02,0c-.14-.07-.33-.09-.45-.09.15.02.32.05.43.09Z"/>
  <path class="cls-5" d="m169.86,148.55s0,0,0,.01c.02.02.03.03.04.04-.05-.09-.11-.18-.16-.24.06.09.1.17.11.18Z"/>
  <path class="cls-7" d="m169.59,145.39c-.05.1-.1.23-.16.33,0,.01,0,.02-.01.03,0,0,0,.02,0,.03.28-.27.28-.49.18-.38Z"/>
  <path class="cls-3" d="m324.33,233.8s0-.06.01-.09c0-.07.02-.13.02-.2.03-.28.01-.26-.04.29Z"/>
  <path class="cls-4" d="m325.84,266.49c5.12-12.49,8.13-25.76,9.17-39.21,1.06-13.7-.1-27.63-3.34-40.98-3.11-12.83-8.26-25.26-15.1-36.55-6.77-11.17-15.24-21.4-25.02-30.07-9.78-8.68-20.81-15.96-32.74-21.35-12.59-5.69-25.82-9.33-39.54-10.93-13.7-1.6-27.65-.91-41.17,1.83-13,2.63-25.61,7.36-37.2,13.81-11.42,6.36-21.94,14.5-30.96,23.96-9,9.43-16.66,20.24-22.47,31.91-5.94,11.95-10.13,24.77-12.15,37.97-1.04,6.8-1.62,13.64-1.63,20.52.02,13.61,2.1,27.29,6.31,40.24,4.06,12.5,9.98,24.44,17.61,35.16,7.8,10.97,17.13,20.59,27.81,28.78,10.44,8,22.08,14.29,34.42,18.82,12.71,4.67,26.21,7.23,39.74,7.76,13.67.53,27.51-1.11,40.67-4.84,12.67-3.59,24.87-9.14,35.87-16.37,10.92-7.18,20.83-15.96,29.15-26.05,8.58-10.42,15.45-21.93,20.57-34.41Zm-74.1-160.41s-.29-.12-.46-.2c.16.06.33.12.46.2Zm-30.89-8.47c-.19-.03-.5-.07-.5-.06.16,0,.33.04.5.06Zm80.63,192.03c-.23.31-.46.62-.69.93-.05.07-.25.33-.41.54-.12.15-.43.56-.52.67-.24.3-.48.6-.72.9-.52.64-1.04,1.28-1.57,1.91-3.99,4.76-8.32,9.23-12.97,13.36-1.15,1.02-2.32,2.03-3.51,3.01-.59.49-1.19.98-1.8,1.46-.26.21-.52.41-.78.61-.06.04-.1.08-.14.11-.04.03-.09.07-.15.12-2.51,1.9-5.07,3.71-7.7,5.43-5.25,3.41-10.75,6.43-16.45,9.02-.71.32-1.42.64-2.14.95-.09.04-.23.11-.36.19.05-.03.09-.06.16-.1-.36.22-.85.35-1.24.51-1.45.59-2.92,1.15-4.39,1.68-2.96,1.07-5.97,2.04-9,2.88-3.12.87-6.27,1.62-9.45,2.24-1.57.31-3.16.59-4.74.84-.74.12-1.48.22-2.23.33-.13.02-.26.03-.38.05-.46.06-.92.11-1.38.16-6.59.75-13.24.98-19.87.7-3.32-.14-6.63-.41-9.93-.82-.34-.04-.69-.1-1.03-.13,1.42.12.12.02-.21-.03-.85-.12-1.71-.25-2.56-.39-1.58-.26-3.16-.55-4.73-.87-6.31-1.29-12.52-3.06-18.56-5.31-1.47-.55-2.92-1.13-4.37-1.72-.03-.01-.05-.02-.07-.03-.04-.02-.07-.03-.12-.05-.31-.13-.61-.27-.92-.4-.76-.34-1.53-.68-2.28-1.03-2.87-1.33-5.69-2.77-8.45-4.31-2.7-1.51-5.35-3.12-7.93-4.82-1.33-.88-2.65-1.79-3.95-2.72-.58-.42-1.16-.84-1.74-1.27-.31-.23-.62-.46-.93-.69-.18-.13-.35-.27-.53-.4-.41-.31-.18-.11.05.06-1.21-.76-2.33-1.87-3.42-2.78-1.22-1.02-2.43-2.07-3.61-3.14-2.28-2.06-4.49-4.21-6.62-6.43-2.17-2.26-4.25-4.61-6.24-7.03-.49-.59-.97-1.19-1.45-1.8-.21-.26-.41-.52-.61-.78-.03-.03-.05-.06-.08-.1-.05-.07-.1-.14-.14-.2-.93-1.23-1.84-2.47-2.73-3.73-3.63-5.16-6.87-10.58-9.68-16.22-.7-1.39-1.36-2.8-2.01-4.22-.32-.71-.64-1.42-.95-2.14-.07-.15-.13-.31-.2-.46-.23-.51.18.43.18.42-.22-.36-.35-.85-.51-1.24-1.2-2.96-2.29-5.97-3.26-9.01-1.95-6.12-3.43-12.39-4.42-18.74-.12-.78-.31-1.6-.35-2.39,0,0,.13,1.05.06.47-.03-.23-.06-.46-.09-.69-.05-.4-.1-.8-.14-1.21-.18-1.56-.33-3.12-.44-4.69-.25-3.23-.36-6.46-.37-9.69,0-3.35.13-6.7.4-10.04.13-1.62.29-3.24.48-4.86.05-.4.1-.8.15-1.21,0-.04,0-.06.01-.09,0-.04.01-.08.02-.13.11-.8.23-1.59.36-2.39,1.02-6.4,2.54-12.71,4.54-18.87.97-2.98,2.05-5.93,3.24-8.84.08-.21.17-.41.26-.62.21-.52-.18.43-.18.42.11-.37.31-.72.46-1.08.33-.77.67-1.53,1.02-2.29.65-1.41,1.33-2.82,2.03-4.2,2.82-5.58,6.06-10.94,9.67-16.03.89-1.25,1.75-2.78,2.85-3.85,0,0-.62.79-.28.36.1-.13.2-.26.3-.39.24-.3.48-.6.72-.91.52-.64,1.04-1.28,1.57-1.92,1.97-2.37,4.03-4.66,6.16-6.88,2.17-2.26,4.43-4.43,6.77-6.52,1.15-1.03,2.31-2.03,3.5-3.01.59-.49,1.19-.98,1.79-1.46.3-.24.6-.48.91-.72.1-.07.19-.15.29-.22,0,0,0,0,0,0,4.98-3.77,10.19-7.2,15.66-10.22,2.77-1.53,5.6-2.95,8.48-4.27.66-.3,1.32-.6,1.98-.88.35-.15.71-.35,1.08-.46,0,0-.94.39-.42.18.26-.1.52-.21.77-.32,1.45-.59,2.91-1.16,4.38-1.7,6-2.19,12.17-3.93,18.44-5.18,1.63-.33,3.27-.62,4.91-.88.74-.12,1.48-.23,2.22-.33.05,0,.09-.01.13-.02.03,0,.05,0,.09-.01.46-.06.92-.11,1.38-.17,3.3-.39,6.62-.64,9.94-.76,6.62-.25,13.27.02,19.85.8.4.05.8.1,1.2.15.05,0,.07,0,.1.01.04,0,.08.01.11.02.8.11,1.59.23,2.39.36,1.58.26,3.16.54,4.73.86,3.17.64,6.32,1.4,9.44,2.28,3.09.87,6.14,1.87,9.15,2.98,1.47.54,2.93,1.11,4.38,1.71.04.01.08.03.12.04.02.01.04.02.08.03.36.16.72.31,1.08.46.71.31,1.43.63,2.13.96,5.74,2.64,11.27,5.71,16.55,9.18,1.29.85,2.56,1.72,3.82,2.62,1.21.86,2.67,1.7,3.72,2.75-.06-.06-.09-.09-.14-.14.11.1.22.21.3.27.3.24.6.48.9.72.64.52,1.28,1.04,1.92,1.57,1.18.99,2.35,1.99,3.49,3.02,4.62,4.15,8.94,8.64,12.9,13.43.49.59.98,1.19,1.46,1.79.24.3.48.6.72.91.02.02.04.04.05.06.02.03.04.06.07.1.96,1.27,1.92,2.56,2.84,3.86,1.81,2.57,3.53,5.21,5.15,7.91,1.59,2.66,3.09,5.38,4.48,8.15.7,1.39,1.37,2.79,2.02,4.21.32.71.64,1.42.95,2.14.08.18.57,1.37.27.63-.29-.71.25.62.33.8,2.4,5.89,4.35,11.97,5.82,18.16.75,3.17,1.39,6.37,1.89,9.58.11.73.22,1.46.32,2.19,0,.06.02.14.03.25.06.46.11.92.17,1.38.19,1.62.34,3.24.46,4.86.5,6.62.49,13.29-.04,19.91-.13,1.68-.3,3.35-.51,5.03-.03.29-.08.57-.11.86,0,.06-.01.12-.02.2,0,.05-.01.1-.02.14,0-.02,0-.03,0-.05,0,.03,0,.06-.01.09-.12.85-.25,1.71-.39,2.56-.52,3.21-1.17,6.4-1.94,9.57-1.51,6.19-3.52,12.22-5.92,18.11-.03.06-.05.11-.06.16,0,.01,0,.02-.02.04-.13.31-.26.61-.4.92-.33.77-.68,1.53-1.03,2.29-.68,1.46-1.38,2.91-2.11,4.35-1.41,2.76-2.92,5.48-4.52,8.13-1.63,2.69-3.36,5.32-5.19,7.88-.42.58-.84,1.16-1.26,1.74Z"/>
  <path class="cls-10" d="m277.08,44.01c1.86-.52,3.85.06,5.97,1.73,1.36,1.07,2.47,2.28,3.33,3.62.87,1.34,1.79,2.73,2.76,4.15.97,1.43,2.31,2.81,4,4.15,2.58,2.05,5.32,2.73,8.2,2.05,1.33-.31,4.64,2.63,4.76,3.78.33,3.23,1.77,5.85,4.31,7.86,1.69,1.34,3.35,2.32,4.96,2.94,1.61.62,3.16,1.19,4.64,1.71,1.48.52,2.92,1.34,4.32,2.44,2.07,1.64,3.08,3.44,3.02,5.39-.06,1.95-.66,3.72-1.78,5.31l4.67,1.94c2.31-3.61,4.05-7.01,5.22-10.18,1.17-3.17,1.56-6.08,1.18-8.73-.38-2.65-1.74-4.89-4.07-6.74-1.57-1.24-3.32-2.13-5.27-2.68-1.95-.54-3.83-1.04-5.65-1.48-1.82-.44-3.34-1.15-4.57-2.13-.93-.74-1.6-1.49-1.99-2.25-.39-.76-.42-1.73-.08-2.9.35-1.17,1.25-2.73,2.72-4.67l-4.83-3.83c-1.59,1.84-2.91,3.07-3.96,3.69-1.04.62-1.99.82-2.84.59-.85-.23-1.72-.69-2.61-1.4-1.23-.97-2.27-2.3-3.11-3.97-.85-1.67-1.76-3.39-2.73-5.16-.98-1.77-2.24-3.28-3.81-4.52-2.37-1.88-4.88-2.7-7.52-2.45-2.64.25-5.38,1.31-8.2,3.17-2.82,1.87-5.73,4.34-8.72,7.41l2.96,4.1c1.29-1.46,2.87-2.45,4.73-2.97Z"/>
  <path class="cls-6" d="m331.57,120.42l5.29-1.3c.18.09.62.67,1.31,1.73.71,1.06,1.53,2.42,2.48,4.05.95,1.64,1.92,3.38,2.93,5.23l4.64,8.54c.98,1.81,1.89,3.56,2.75,5.24.86,1.69,1.53,3.11,2.03,4.25.49,1.15.75,1.84.75,2.08l-3.89,3.86,2.42,3.95,21.58-11.71-1.99-4.17-5.15,1.05c-.25-.23-.73-.93-1.44-2.08-.72-1.15-1.55-2.52-2.48-4.14-.94-1.62-1.83-3.2-2.68-4.77l-.85-1.56c.42-.25.86-.53,1.32-.82,1.32-.84,3.05-1.84,5.19-3,2.14-1.16,3.95-2.08,5.42-2.76.5-.23.97-.45,1.4-.65l.85,1.56c.85,1.57,1.7,3.18,2.54,4.84.83,1.67,1.54,3.11,2.12,4.34.57,1.22.88,2,.95,2.33l-3.68,3.75,2.42,3.95,21.58-11.71-1.99-4.18-5.37,1.17c-.2-.27-.71-1.03-1.52-2.31-.82-1.27-1.72-2.72-2.69-4.36-.98-1.63-1.8-3.05-2.46-4.29l-4.65-8.55c-.69-1.27-1.46-2.78-2.31-4.51-.84-1.72-1.58-3.27-2.21-4.65-.62-1.39-.98-2.21-1.07-2.47l3.98-3.73-2.42-3.95-21.58,11.71,1.99,4.18,5.07-1.18c.23.18.7.86,1.41,2,.72,1.15,1.55,2.54,2.5,4.17.95,1.64,1.87,3.27,2.74,4.89l.57,1.03c-.57.37-1.15.73-1.73,1.07-1.25.74-2.87,1.65-4.87,2.74-1.99,1.07-3.65,1.95-4.96,2.6-.57.29-1.16.57-1.75.83l-.57-1.05c-.88-1.61-1.75-3.26-2.6-4.95-.86-1.69-1.56-3.15-2.14-4.38-.57-1.22-.88-1.98-.91-2.27l3.76-3.61-2.41-3.94-21.59,11.7,1.99,4.18Z"/>
  <path class="cls-8" d="m407.48,195.36c-.12-1.89-.21-3.9-.29-6.03-.08-2.13-.11-4-.1-5.59,0-1.6.06-2.48.16-2.65l5.17-1.78-.53-4.59-19.41,1.2.04,4.63,5.75,1.11c.12.15.27,1.02.45,2.61.18,1.59.36,3.44.55,5.57.19,2.13.34,4.13.45,6.02l.29,4.61c.19,3.02-.02,5.62-.61,7.79-.6,2.18-1.64,3.86-3.14,5.07-1.5,1.2-3.54,1.88-6.13,2.04-2.54.16-4.65-.29-6.33-1.35-1.69-1.06-2.97-2.65-3.83-4.76-.86-2.11-1.38-4.68-1.57-7.7l-.36-5.82c-.1-1.62-.18-3.26-.22-4.94-.05-1.67-.08-3.21-.08-4.62,0-1.41,0-2.49,0-3.25l5.17-1.78-.53-4.6-24.67,1.52.04,4.63,5.35,1.13c.12.21.26.99.43,2.33.16,1.34.33,2.96.5,4.84.17,1.88.31,3.74.43,5.58l.46,7.44c.43,7.01,2.69,12.3,6.79,15.86,4.09,3.56,9.78,5.12,17.05,4.67,4.37-.27,8.02-1.42,10.95-3.44,2.93-2.02,5.09-4.7,6.49-8.03,1.39-3.33,1.96-7.05,1.71-11.15l-.4-6.55Z"/>
  <path class="cls-9" d="m395.77,276.1l4.05-11.29c-1.12-1.31-2.71-2.67-4.77-4.07-2.06-1.41-4.31-2.58-6.72-3.52-3.78-1.47-7.54-2.35-11.28-2.65-3.74-.29-7.25.06-10.55,1.07-3.29,1.01-6.24,2.76-8.87,5.25-2.62,2.49-4.72,5.77-6.3,9.85-1.7,4.38-2.15,8.57-1.33,12.57.82,4,2.76,7.62,5.83,10.83,3.07,3.22,7.1,5.8,12.08,7.74,2.92,1.14,5.9,1.94,8.94,2.39,3.04.47,6,.44,8.86-.08.47-1.38.91-2.62,1.27-3.72s.66-1.9.85-2.4c.37-.96.76-1.98,1.2-3.06.42-1.08.8-1.99,1.15-2.73l4.59.05,1.45-4.39-21.76-8.46-1.95,4.37,4.95,3.58c-.16.69-.41,1.63-.78,2.79-.37,1.16-.68,2.09-.96,2.8l-1.67,4.28c-.51-.13-.89-.24-1.17-.35-2.36-.92-4.24-2.5-5.63-4.75-1.39-2.25-2.13-4.96-2.23-8.13-.1-3.17.56-6.57,1.97-10.19,1.36-3.53,3.03-6.27,4.99-8.24,1.95-1.97,4.07-3.18,6.38-3.65,2.29-.47,4.62-.24,7,.68.86.33,1.72.76,2.59,1.27.88.51,1.7,1.17,2.48,2l-.3,8.15,5.64,2.02Z"/>
  <path class="cls-11" d="m348.44,326.9c-3.56-3.7-7.53-6.23-11.89-7.61-4.37-1.38-8.71-1.57-13.03-.56-4.32,1.01-8.25,3.22-11.79,6.63-3.27,3.15-5.39,6.79-6.36,10.91-.98,4.13-.81,8.35.51,12.68,1.31,4.32,3.75,8.33,7.31,12.03,1.69,1.75,3.88,3.35,6.59,4.79,2.7,1.45,5.71,2.42,9,2.92,3.3.5,6.69.25,10.19-.76,3.49-1.01,6.88-3.08,10.15-6.23,3.35-3.22,5.55-6.85,6.62-10.88,1.07-4.03.99-8.12-.23-12.27s-3.58-8.03-7.06-11.65Zm-5.1,16.9c-1.48,2.67-3.68,5.41-6.6,8.22-2.53,2.44-4.88,4.26-7.06,5.46-2.18,1.2-4.19,1.73-6.02,1.58-1.83-.15-3.52-1.02-5.05-2.62-1.57-1.64-2.37-3.65-2.38-6.03-.01-2.39.7-4.95,2.15-7.7,1.45-2.74,3.55-5.44,6.31-8.11,3.7-3.56,7.18-5.68,10.46-6.37s5.99.08,8.12,2.3c1.57,1.63,2.35,3.59,2.33,5.86s-.78,4.74-2.26,7.41Z"/>
  <path class="cls-12" d="m286.02,359.24c.51,1.88.47,3.74-.12,5.59-.59,1.84-2.16,3.19-4.73,4.03-1.64.54-3.26.8-4.86.79-1.6-.01-3.26,0-4.98.02-1.73.03-3.62.38-5.67,1.06-3.13,1.03-5.2,2.94-6.22,5.72-.72,1.96-4.19,2.73-5.77,1.9-2.88-1.5-5.86-1.74-8.94-.72-2.05.68-3.78,1.52-5.18,2.52-1.41,1-2.73,1.98-3.98,2.93-1.25.95-2.72,1.71-4.42,2.27-2.51.83-4.57.68-6.16-.44-1.59-1.12-2.75-2.59-3.46-4.41l-4.19,2.83c1.75,3.92,3.62,7.24,5.63,9.96,2.01,2.72,4.22,4.65,6.65,5.79,2.42,1.14,5.05,1.24,7.87.31,1.9-.63,3.61-1.6,5.13-2.93,1.52-1.33,2.97-2.63,4.34-3.91,1.37-1.28,2.8-2.16,4.29-2.65,1.13-.37,2.12-.52,2.97-.43.85.09,1.68.6,2.47,1.53.79.93,1.59,2.55,2.41,4.84l5.85-1.93c-.66-2.34-.96-4.12-.9-5.33.05-1.21.41-2.11,1.07-2.7.66-.59,1.53-1.06,2.61-1.41,1.49-.49,3.16-.63,5.02-.42,1.86.21,3.8.4,5.82.56,2.01.16,3.97-.07,5.87-.7,2.87-.95,4.93-2.59,6.18-4.94,1.24-2.35,1.86-5.21,1.86-8.59,0-3.38-.47-7.17-1.4-11.36l-5.05.21Z"/>
  <path class="cls-14" d="m189.78,380.14c-.18.08-.93.04-2.25-.13-1.31-.16-2.96-.4-4.94-.71-1.97-.32-4.07-.68-6.31-1.1l-8.59-1.68c-1.97-.37-3.89-.75-5.76-1.15-1.87-.4-3.44-.76-4.7-1.08-1.25-.32-1.98-.55-2.18-.69l-.59-5.23-4.59-.6-4.72,25.34,4.66,1.11,2.55-6.2c.23-.01.86.04,1.91.16,1.05.11,2.06.21,3.03.31.98.1,1.48.16,1.53.16l8.04,1.46c-.06.4-.13.8-.21,1.23l-.61,3.27c-.11.59-.26,1.34-.46,2.26-.2.93-.43,1.8-.7,2.64l-5.71-.32-.98,5.25,16.98,3.16.98-5.26-4.97-1.66c.08-.37.17-1.03.29-1.97.11-.93.28-1.94.48-3l.61-3.27c.08-.43.16-.86.25-1.25l5.48,1c2.33.44,4.09.76,5.25.98,1.17.21,1.98.37,2.43.45.45.08.74.13.88.16.13.03.35.07.67.12.05.62.04,1.34-.04,2.18-.07.83-.21,1.76-.39,2.76l-.79,4.23c-.11.64-.25,1.24-.42,1.82s-.4,1.27-.72,2.09l-7.93,1.9-.25,5.31,13.13-.11c.1-.86.29-2.21.54-4.07.26-1.85.55-3.76.87-5.76.32-2,.6-3.7.86-5.08l4.26-22.87-4.5-1.09-2.4,4.91Z"/>
  <path class="cls-16" d="m111.57,339.15c-3.7-2.63-7.66-4.05-11.9-4.25-4.24-.2-8.36.74-12.37,2.83-4.01,2.09-7.5,5.22-10.48,9.4-1.41,1.98-2.58,4.43-3.5,7.36-.92,2.92-1.33,6.05-1.22,9.38.11,3.33.98,6.62,2.61,9.87,1.63,3.25,4.29,6.19,7.99,8.83,3.78,2.7,7.75,4.2,11.91,4.51,4.16.31,8.16-.52,12.02-2.48s7.24-4.99,10.16-9.08c2.98-4.18,4.75-8.54,5.3-13.09.56-4.55-.06-8.85-1.85-12.91-1.78-4.06-4.68-7.51-8.68-10.37Zm.71,31.95c-1.32,1.85-3.09,2.97-5.33,3.36-2.24.39-4.8.11-7.7-.86-2.89-.97-5.99-2.63-9.29-4.98-2.86-2.04-5.08-4.02-6.66-5.94-1.58-1.92-2.47-3.8-2.66-5.63-.19-1.83.36-3.64,1.64-5.45,1.32-1.85,3.15-3,5.49-3.45,2.35-.45,5-.22,7.96.7,2.96.92,6,2.49,9.13,4.72,4.18,2.98,6.91,6.02,8.18,9.11,1.27,3.1,1.02,5.9-.77,8.41Z"/>
  <path class="cls-15" d="m59.52,314.21c-.17-.09-.62-.66-1.35-1.7-.72-1.05-1.58-2.38-2.56-3.99-.99-1.62-2-3.34-3.05-5.17l-4.83-8.44c-1.02-1.78-1.98-3.51-2.87-5.17-.89-1.67-1.6-3.07-2.12-4.2-.52-1.13-.79-1.82-.81-2.06l3.81-3.95-2.51-3.89-21.52,12.32,2.08,4.13,5.34-1.28c.26.23.75.91,1.49,2.04.74,1.13,1.6,2.49,2.57,4.09.97,1.59,1.9,3.16,2.79,4.71l4.83,8.44c.91,1.59,1.81,3.22,2.71,4.89.89,1.67,1.64,3.11,2.24,4.32.6,1.21.92,1.96.96,2.25l-3.89,3.81,2.51,3.89,21.52-12.32-2.08-4.13-5.26,1.42Z"/>
  <path class="cls-18" d="m37.19,243.28c1.58-2.47,2.24-5.23,1.98-8.3-.24-2.85-.99-5.11-2.24-6.76-1.25-1.66-2.8-2.95-4.64-3.88-1.84-.93-3.79-1.66-5.84-2.19-2.05-.53-3.98-1.07-5.79-1.63-1.81-.55-3.31-1.32-4.51-2.3-1.19-.98-1.87-2.36-2.02-4.14-.13-1.51.33-2.72,1.36-3.65,1.03-.93,2.65-1.48,4.86-1.67,1.24-.1,2.56-.03,3.96.23,1.4.26,2.56.62,3.47,1.09l3.75,8.79,6.27-.85-1.41-12.81c-2.31-1-4.92-1.73-7.83-2.18-2.91-.46-5.5-.59-7.76-.4-4.47.38-8.29,1.35-11.46,2.92-3.17,1.57-5.58,3.56-7.22,5.98-1.64,2.41-2.34,5.08-2.09,7.98.22,2.64.97,4.76,2.25,6.36,1.27,1.6,2.84,2.86,4.71,3.79,1.87.93,3.84,1.68,5.92,2.26,2.08.58,4.04,1.18,5.88,1.78,1.84.6,3.37,1.37,4.59,2.3,1.22.93,1.9,2.22,2.04,3.89.16,1.94-.39,3.43-1.65,4.49-1.27,1.05-2.79,1.66-4.56,1.81-1.94.16-3.69-.01-5.25-.53l-3.56-8.4-6.11.84,2.3,12.74c1.06.4,2.34.71,3.82.94,1.48.23,2.99.38,4.51.47,1.52.09,2.85.08,3.98-.01,4.36-.37,8.1-1.33,11.22-2.9,3.12-1.56,5.47-3.58,7.05-6.04Z"/>
  <path class="cls-17" d="m15.27,169.36c1.35.72,2.55,1.27,3.62,1.66,4.11,1.49,7.91,2.18,11.4,2.07,3.49-.11,6.47-.96,8.94-2.53,2.47-1.58,4.23-3.81,5.28-6.71.98-2.69,1.24-5.05.8-7.08-.44-2.03-1.3-3.85-2.59-5.46-1.28-1.61-2.74-3.09-4.38-4.43-1.64-1.34-3.16-2.64-4.58-3.9-1.41-1.26-2.45-2.59-3.13-3.98-.67-1.39-.7-2.93-.1-4.6.52-1.42,1.44-2.34,2.76-2.75,1.33-.41,3.03-.24,5.11.52,1.17.42,2.34,1.05,3.5,1.87,1.17.83,2.06,1.64,2.69,2.44l-.28,9.55,6.05,1.85,4.09-12.22c-1.68-1.87-3.74-3.63-6.19-5.26-2.45-1.64-4.74-2.84-6.88-3.62-4.22-1.53-8.09-2.25-11.63-2.15-3.54.09-6.56.89-9.06,2.4-2.5,1.51-4.25,3.63-5.24,6.37-.9,2.49-1.11,4.73-.63,6.71.49,1.99,1.38,3.79,2.69,5.42,1.31,1.62,2.78,3.14,4.43,4.54,1.65,1.4,3.18,2.76,4.6,4.08,1.42,1.32,2.48,2.65,3.2,4.01.72,1.35.79,2.82.22,4.39-.66,1.83-1.79,2.96-3.38,3.39-1.59.43-3.23.34-4.9-.27-1.83-.66-3.34-1.56-4.54-2.68l.29-9.12-5.9-1.8-3.25,12.53c.8.81,1.82,1.62,3.08,2.45,1.25.83,2.55,1.6,3.9,2.32Z"/>
  <path class="cls-20" d="m72.71,106.78c.04-.19.45-.76,1.22-1.7.78-.93,1.82-2.1,3.11-3.48,1.29-1.38,2.69-2.81,4.16-4.31l6.85-6.91c1.45-1.45,2.86-2.83,4.22-4.14,1.37-1.3,2.53-2.36,3.49-3.16.95-.81,1.55-1.25,1.77-1.33l4.82,2.62,3.09-3.44-19.84-19.7c-1.46-1.45-3.07-3.14-4.84-5.08-1.76-1.94-3.2-3.54-4.32-4.8l-12.63,7.21,2.99,4.33,9.16-2.67c.42.27.76.49,1.01.66.24.17.59.47,1.03.91.45.44,1.2,1.19,2.28,2.26l1.48,1.48c1.42,1.41,2.55,2.56,3.37,3.46.82.89,1.56,1.77,2.21,2.65-.37.46-.89,1.03-1.54,1.73-.64.69-1.48,1.57-2.52,2.64-1.02,1.07-2.29,2.38-3.81,3.91l-2.66,2.67c-.49-.45-1.02-.95-1.58-1.51l-2.24-2.23c-.81-.79-1.53-1.53-2.19-2.22-.64-.69-1.11-1.17-1.37-1.43l3.31-4.37-3.68-3.66-11.88,11.96,3.68,3.66,4.23-3.22c.27.27.75.72,1.44,1.36.69.65,1.44,1.38,2.24,2.17l2.24,2.23c.57.57,1.07,1.1,1.51,1.6l-2.93,2.94c-1.48,1.49-2.71,2.71-3.68,3.65s-1.75,1.68-2.34,2.24c-.59.55-1.1,1.01-1.52,1.35-.42-.26-1.01-.76-1.77-1.48-.77-.73-1.52-1.45-2.24-2.17l-3-2.97c-.46-.46-.88-.91-1.27-1.36-.38-.47-.83-1.05-1.32-1.77l2.96-7.58-4.31-3.25-7.3,10.92c.88.73,2,1.7,3.37,2.94,1.36,1.24,2.73,2.52,4.11,3.85,1.39,1.33,2.55,2.47,3.51,3.42l17.14,17.01,3.43-3.1-2.65-4.8Z"/>
  <path class="cls-19" d="m121.87,51.95l41.71,1.97,2.95,3.49,4.24-1.84-5.93-15.95-4.41,1.37.42,5.55-7.3.16c-.15-.33-.32-.73-.51-1.19-.47-1.12-1.17-2.91-2.09-5.4-.88-2.38-1.53-4.19-1.93-5.42-.19-.6-.36-1.11-.5-1.51l5.44-5.16,3.31,4.47,4.19-1.98-8.73-23.48-4.41,1.38.05,4.56-33.47,33.01,6.97,5.97Zm21.76-14.64c.04.08.09.18.13.28.53,1.12,1.15,2.63,1.85,4.5.71,1.92,1.22,3.44,1.53,4.57.03.1.05.19.08.29l-13.41-.04,9.83-9.6Z"/>
  <path class="cls-13" d="m198.24,49.59c.22-.09,1.01-.13,2.36-.1,1.35.02,2.97.08,4.86.17,1.89.09,3.75.21,5.58.35l7.43.57c7,.54,12.55-.97,16.64-4.53,4.09-3.56,6.42-8.98,6.98-16.25.34-4.36-.29-8.14-1.89-11.32-1.6-3.18-3.95-5.7-7.06-7.53-3.11-1.84-6.71-2.91-10.81-3.23l-6.54-.5c-1.89-.15-3.89-.33-6.01-.54-2.12-.22-3.98-.44-5.56-.67-1.58-.23-2.45-.4-2.6-.52l-1.05-5.36-4.62-.11-1.49,19.39,4.59.6,1.89-5.54c.17-.1,1.05-.12,2.65-.08,1.6.04,3.46.12,5.59.23,2.13.11,4.14.24,6.03.38l4.61.35c3.02.23,5.56.79,7.63,1.68,2.07.89,3.6,2.16,4.58,3.81.98,1.65,1.38,3.76,1.18,6.35-.19,2.53-.93,4.56-2.22,6.09-1.28,1.53-3.03,2.57-5.24,3.13-2.21.56-4.82.73-7.84.49l-5.82-.45c-1.62-.12-3.26-.28-4.92-.46-1.67-.18-3.2-.37-4.59-.56-1.39-.19-2.47-.34-3.22-.45l-1.05-5.36-4.62-.11-1.89,24.64,4.59.6,1.86-5.14Z"/>
</svg>