<?xml version="1.0" encoding="UTF-8"?>
<svg id="Calque_1" data-name="Calque 1" xmlns="http://www.w3.org/2000/svg" viewBox="0 0 90.22 90.22">
  <defs>
    <style>
      .cls-1 {
        fill: #fffaf5;
        stroke-width: 0px;
      }
    </style>
  </defs>
  <path class="cls-1" d="M55.45,41.9c-3,0-4.74,2.23-4.74,6.09s1.67,6.27,4.74,6.27,4.74-2.23,4.74-6.2-1.71-6.17-4.74-6.17Z"/>
  <path class="cls-1" d="M45.11,0C20.2,0,0,20.2,0,45.11s20.2,45.11,45.11,45.11,45.11-20.2,45.11-45.11S70.02,0,45.11,0ZM56.08,56.95c-2.16,0-3.66-.66-5.26-2.33v1.88h-3.2v-23.23l-12.28,23.69H7.94l12.28-23.69h27.39s3.2,0,3.2,0v8.33c1.6-1.64,3.24-2.37,5.36-2.37,4.35,0,7.24,3.48,7.24,8.77s-2.86,8.95-7.35,8.95ZM74.72,56.95c-5.02,0-8.29-3.52-8.29-8.88s3.31-8.84,8.4-8.84c4.11,0,6.79,2.26,7.24,6.16h-3.03c-.49-2.3-1.95-3.48-4.25-3.48-3.06,0-5.12,2.44-5.12,6.13s2.02,6.23,5.12,6.23c2.51,0,4.01-1.36,4.46-4.08h3.03c-.45,4.29-3.2,6.76-7.56,6.76Z"/>
</svg>