<?xml version="1.0" encoding="UTF-8"?>
<svg id="Calque_1" data-name="Calque 1" xmlns="http://www.w3.org/2000/svg" xmlns:xlink="http://www.w3.org/1999/xlink" viewBox="0 0 90.22 90.22">
  <defs>
    <style>
      .cls-1 {
        fill: url(#Dégradé_sans_nom_11-2);
      }

      .cls-1, .cls-2 {
        stroke-width: 0px;
      }

      .cls-2 {
        fill: url(#Dégradé_sans_nom_11);
      }
    </style>
    <linearGradient id="Dégradé_sans_nom_11" data-name="Dégradé sans nom 11" x1="0" y1="44.46" x2="47.16" y2="44.46" gradientUnits="userSpaceOnUse">
      <stop offset=".11" stop-color="#f4f0e6"/>
      <stop offset=".14" stop-color="#f4f0e6"/>
    </linearGradient>
    <linearGradient id="Dégradé_sans_nom_11-2" data-name="Dégradé sans nom 11" x1="53.83" y1="52.85" x2="90.09" y2="52.85" xlink:href="#Dégradé_sans_nom_11"/>
  </defs>
  <g id="Outlined_Mnemonics_Logos" data-name="Outlined Mnemonics Logos">
    <g id="Ps">
      <path class="cls-2" d="m0,76.68V12.48c0-.44.19-.69.62-.69,1.06,0,2.06,0,3.49-.06,1.5-.06,3.06-.06,4.74-.12,1.68-.06,3.49-.06,5.43-.12,1.93-.06,3.81-.06,5.68-.06,5.12,0,9.36.62,12.85,1.93,3.12,1.06,5.99,2.81,8.36,5.12,2,2,3.56,4.43,4.55,7.11.94,2.62,1.43,5.3,1.43,8.11,0,5.36-1.25,9.79-3.74,13.29-2.5,3.49-5.99,6.11-10.04,7.61-4.24,1.56-8.92,2.12-14.04,2.12-1.5,0-2.5,0-3.12-.06s-1.5-.06-2.68-.06v20.03c.06.44-.25.81-.69.87H.75c-.5,0-.75-.25-.75-.81ZM13.6,23.84v20.96c.87.06,1.68.12,2.43.12h3.31c2.43,0,4.87-.37,7.17-1.12,2-.56,3.74-1.75,5.12-3.31,1.31-1.56,1.93-3.68,1.93-6.43.06-1.93-.44-3.87-1.43-5.55-1.06-1.62-2.56-2.87-4.37-3.56-2.31-.94-4.8-1.31-7.36-1.25-1.62,0-3.06,0-4.24.06-1.25-.06-2.12,0-2.56.06h0Z"/>
      <path class="cls-1" d="m86.09,40.99c-1.87-1-3.87-1.68-5.99-2.12-2.31-.5-4.62-.81-6.99-.81-1.25-.06-2.56.12-3.74.44-.81.19-1.5.62-1.93,1.25-.31.5-.5,1.12-.5,1.68s.25,1.12.62,1.62c.56.69,1.31,1.25,2.12,1.68,1.43.75,2.93,1.43,4.43,2.06,3.37,1.12,6.61,2.68,9.61,4.55,2.06,1.31,3.74,3.06,4.93,5.18,1,2,1.5,4.18,1.43,6.43.06,2.93-.81,5.86-2.43,8.3-1.75,2.5-4.18,4.43-6.99,5.55-3.06,1.31-6.8,2-11.29,2-2.87,0-5.68-.25-8.48-.81-2.18-.37-4.37-1.06-6.36-2-.44-.25-.75-.69-.69-1.19v-10.85c0-.19.06-.44.25-.56.19-.12.37-.06.56.06,2.43,1.43,4.99,2.43,7.74,3.06,2.37.62,4.87.94,7.36.94s4.05-.31,5.18-.87c1-.44,1.68-1.5,1.68-2.62,0-.87-.5-1.68-1.5-2.5-1-.81-3.06-1.75-6.11-2.93-3.18-1.12-6.11-2.62-8.86-4.49-1.93-1.37-3.56-3.18-4.74-5.3-1-2-1.5-4.18-1.43-6.36,0-2.68.75-5.24,2.12-7.55,1.56-2.5,3.87-4.49,6.55-5.74,2.93-1.5,6.61-2.18,11.04-2.18,2.56,0,5.18.19,7.74.56,1.87.25,3.68.75,5.36,1.43.25.06.5.31.62.56.06.25.12.5.12.75v10.17c0,.25-.12.5-.31.62-.56.12-.87.12-1.12,0Z"/>
    </g>
  </g>
</svg>