<?xml version="1.0" encoding="UTF-8"?>
<svg id="Calque_1" data-name="Calque 1" xmlns="http://www.w3.org/2000/svg" xmlns:xlink="http://www.w3.org/1999/xlink" viewBox="0 0 90.22 90.22">
  <defs>
    <style>
      .cls-1 {
        fill: url(#Dégradé_sans_nom_11);
        stroke-width: 0px;
      }
    </style>
    <linearGradient id="Dégradé_sans_nom_11" data-name="Dégradé sans nom 11" x1="2.27" y1="45.11" x2="87.95" y2="45.11" gradientUnits="userSpaceOnUse">
      <stop offset=".11" stop-color="#f4f0e6"/>
      <stop offset=".14" stop-color="#f4f0e6"/>
    </linearGradient>
  </defs>
  <path class="cls-1" d="m87.91,20.96c.03.12.05.24.05.36v18.93c0,.49-.26.95-.69,1.2l-15.89,9.15v18.14c0,.49-.26.95-.69,1.2l-33.17,19.1c-.08.04-.16.07-.24.1-.03.01-.06.03-.09.04-.23.06-.48.06-.71,0-.04-.01-.07-.03-.11-.04-.08-.03-.16-.05-.23-.09L2.96,69.94c-.43-.25-.69-.7-.69-1.2V11.94c0-.12.02-.25.05-.36.01-.04.03-.08.05-.12.03-.07.05-.15.09-.21.03-.04.06-.08.09-.12.04-.06.08-.11.12-.16.04-.04.09-.07.14-.1.05-.04.09-.09.15-.12h0L19.54,1.19c.43-.25.95-.25,1.38,0l16.58,9.55h0c.06.03.1.08.15.12.04.03.09.07.13.1.05.05.08.11.12.16.03.04.07.08.09.12.04.07.06.14.09.21.01.04.04.08.05.12.03.12.05.24.05.36v35.48l13.82-7.96v-18.14c0-.12.02-.24.05-.36.01-.04.03-.08.05-.12.03-.07.05-.15.09-.21.03-.04.06-.08.09-.12.04-.06.08-.11.12-.16.04-.04.09-.07.13-.1.05-.04.1-.09.15-.12h0l16.59-9.55c.43-.25.95-.25,1.38,0l16.58,9.55c.06.03.1.08.16.12.04.03.09.07.13.1.05.05.08.11.12.16.03.04.07.08.09.12.04.07.06.14.09.21.02.04.04.08.05.12h0Zm-2.72,18.5v-15.75l-5.8,3.34-8.02,4.62v15.75l13.82-7.96h0Zm-16.58,28.48v-15.76l-7.89,4.5-22.52,12.85v15.9l30.41-17.51ZM5.03,14.33v53.61l30.4,17.5v-15.9l-15.88-8.99h0s0,0,0,0c-.05-.03-.1-.08-.15-.11-.04-.03-.09-.06-.13-.1h0s-.08-.1-.11-.15c-.03-.05-.08-.09-.1-.13h0c-.03-.06-.05-.12-.07-.18-.02-.05-.05-.1-.07-.16h0c-.02-.07-.02-.14-.03-.2,0-.05-.02-.1-.02-.16V22.28l-8.02-4.62-5.8-3.34h0ZM20.24,3.98l-13.82,7.95,13.81,7.95,13.82-7.96-13.82-7.95h0Zm7.19,49.64l8.02-4.61V14.33l-5.8,3.34-8.02,4.62v34.68l5.81-3.34ZM69.99,13.37l-13.82,7.95,13.82,7.95,13.81-7.96-13.81-7.95Zm-1.38,18.3l-8.02-4.62-5.8-3.34v15.75l8.02,4.61,5.81,3.34v-15.75Zm-31.79,35.48l20.26-11.57,10.13-5.78-13.81-7.95-15.9,9.15-14.49,8.34,13.79,7.81Z"/>
</svg>