<?xml version="1.0" encoding="UTF-8"?>
<svg id="Calque_1" data-name="Calque 1" xmlns="http://www.w3.org/2000/svg" xmlns:xlink="http://www.w3.org/1999/xlink" viewBox="0 0 90.22 90.22">
  <defs>
    <style>
      .cls-1 {
        fill: url(#Dégradé_sans_nom_11);
        stroke-width: 0px;
      }
    </style>
    <linearGradient id="Dégradé_sans_nom_11" data-name="Dégradé sans nom 11" x1=".15" y1="45.11" x2="90.07" y2="45.11" gradientUnits="userSpaceOnUse">
      <stop offset=".11" stop-color="#f4f0e6"/>
      <stop offset=".14" stop-color="#f4f0e6"/>
    </linearGradient>
  </defs>
  <path class="cls-1" d="m45.15,66.26h-25.09l-5.13,15.85c-.13.61-.67,1.01-1.28.94H.97c-.74,0-.94-.4-.74-1.21L21.94,19.31c.2-.67.4-1.42.67-2.23.27-1.42.4-2.9.4-4.38-.07-.34.2-.67.54-.74h17.47c.54,0,.81.2.88.54l24.62,69.47c.2.74,0,1.08-.67,1.08h-14.1c-.47.07-.94-.27-1.08-.74l-5.53-16.05Zm-21.18-13.69h17.13c-.4-1.42-.94-3.1-1.55-4.86-.61-1.82-1.21-3.78-1.82-5.8-.67-2.09-1.28-4.11-1.96-6.21s-1.28-4.05-1.82-6c-.54-1.89-1.01-3.64-1.48-5.26h-.13c-.61,2.9-1.35,5.8-2.29,8.7-1.01,3.24-2.02,6.61-3.1,9.98-.94,3.44-1.96,6.61-2.97,9.44Zm57.6-28.8c-2.23.07-4.38-.81-6-2.36-1.55-1.69-2.36-3.91-2.29-6.21-.07-2.29.81-4.45,2.43-6s3.78-2.36,6-2.36c2.63,0,4.65.81,6.14,2.36,1.48,1.62,2.29,3.78,2.23,6,.07,2.29-.74,4.52-2.36,6.21-1.55,1.62-3.84,2.5-6.14,2.36h0Zm-7.55,58.55V30.37c0-.67.27-.94.88-.94h13.36c.61,0,.88.34.88.94v51.94c0,.74-.27,1.08-.88,1.08h-13.22c-.67,0-1.01-.4-1.01-1.08Z"/>
</svg>