<?xml version="1.0" encoding="UTF-8"?>
<svg id="Calque_1" data-name="Calque 1" xmlns="http://www.w3.org/2000/svg" xmlns:xlink="http://www.w3.org/1999/xlink" viewBox="0 0 90.22 90.22">
  <defs>
    <style>
      .cls-1 {
        fill: url(#Dégradé_sans_nom_11-3);
      }

      .cls-1, .cls-2, .cls-3, .cls-4, .cls-5, .cls-6, .cls-7, .cls-8 {
        stroke-width: 0px;
      }

      .cls-2 {
        fill: url(#Dégradé_sans_nom_11-2);
      }

      .cls-3 {
        fill: url(#Dégradé_sans_nom_9);
      }

      .cls-4 {
        fill: url(#Dégradé_sans_nom_9-5);
      }

      .cls-5 {
        fill: url(#Dégradé_sans_nom_9-3);
      }

      .cls-6 {
        fill: url(#Dégradé_sans_nom_9-4);
      }

      .cls-7 {
        fill: url(#Dégradé_sans_nom_9-2);
      }

      .cls-8 {
        fill: url(#Dégradé_sans_nom_11);
      }
    </style>
    <linearGradient id="Dégradé_sans_nom_9" data-name="Dégradé sans nom 9" x1=".53" y1="57.24" x2="20.82" y2="57.24" gradientUnits="userSpaceOnUse">
      <stop offset=".87" stop-color="#d6ccb6"/>
      <stop offset=".94" stop-color="#d6ccb6"/>
    </linearGradient>
    <linearGradient id="Dégradé_sans_nom_9-2" data-name="Dégradé sans nom 9" x1="54.5" y1="58.3" x2="70.01" y2="58.3" xlink:href="#Dégradé_sans_nom_9"/>
    <linearGradient id="Dégradé_sans_nom_11" data-name="Dégradé sans nom 11" x1="56.05" y1="38.26" x2="89.01" y2="38.26" gradientUnits="userSpaceOnUse">
      <stop offset=".11" stop-color="#f4f0e6"/>
      <stop offset=".14" stop-color="#f4f0e6"/>
    </linearGradient>
    <linearGradient id="Dégradé_sans_nom_9-3" data-name="Dégradé sans nom 9" x1="23.32" y1="61.37" x2="37.25" y2="61.37" xlink:href="#Dégradé_sans_nom_9"/>
    <linearGradient id="Dégradé_sans_nom_9-4" data-name="Dégradé sans nom 9" x1="39.58" y1="57.26" x2="52.64" y2="57.26" xlink:href="#Dégradé_sans_nom_9"/>
    <linearGradient id="Dégradé_sans_nom_9-5" data-name="Dégradé sans nom 9" x1="70.92" y1="57.26" x2="83.87" y2="57.26" xlink:href="#Dégradé_sans_nom_9"/>
    <linearGradient id="Dégradé_sans_nom_11-2" data-name="Dégradé sans nom 11" x1="62.74" y1="28.65" x2="64.38" y2="28.65" xlink:href="#Dégradé_sans_nom_11"/>
    <linearGradient id="Dégradé_sans_nom_11-3" data-name="Dégradé sans nom 11" x1="85.38" y1="62.05" x2="89.69" y2="62.05" xlink:href="#Dégradé_sans_nom_11"/>
  </defs>
  <path class="cls-3" d="m17.85,52.55c-.05.11-.11.21-.16.32-1.45,3.22-2.89,6.44-4.33,9.67-.34.76-.81,1.39-1.68,1.58-.72.15-1.43.15-2.14-.04-.75-.2-1.19-.74-1.49-1.41-.59-1.31-1.18-2.63-1.77-3.94-.88-1.95-1.75-3.9-2.63-5.85-.05-.11-.1-.22-.16-.32-.03,0-.06.01-.1.02,0,.13,0,.26,0,.4,0,3.54,0,7.08,0,10.61q0,.46-.45.46c-.7,0-1.4,0-2.1,0-.24,0-.32-.08-.32-.32,0-3.81,0-7.61.01-11.42,0-.96.38-1.45,1.29-1.75.68-.22,1.37-.35,2.09-.29,1.18.1,1.94.74,2.39,1.8.88,2.07,1.78,4.14,2.67,6.21.47,1.09.94,2.18,1.41,3.26.05.11.11.22.2.4.09-.18.15-.3.21-.42,1.39-3.11,2.8-6.21,4.15-9.33.71-1.63,1.95-2.15,3.61-1.87.4.07.79.18,1.17.32.64.23.98.72,1.04,1.4.02.22.03.44.03.66,0,3.62,0,7.24,0,10.86,0,.49,0,.49-.47.49-.65,0-1.3-.02-1.96,0-.34.01-.46-.07-.45-.44.02-3.54,0-7.08,0-10.61,0-.14,0-.28,0-.42-.03-.01-.06-.02-.09-.03Z"/>
  <path class="cls-7" d="m67.25,63.49c.93.85,1.83,1.66,2.77,2.51-.14.02-.22.03-.31.03-.86,0-1.72.02-2.58-.01-.21,0-.45-.11-.61-.25-.61-.52-1.2-1.06-1.79-1.61-.2-.19-.4-.23-.66-.22-1.75.05-3.51.11-5.26.13-.97,0-1.89-.24-2.75-.69-1.03-.54-1.55-1.4-1.55-2.56,0-2.35,0-4.7,0-7.05,0-1.13.5-1.96,1.49-2.49.8-.43,1.67-.67,2.57-.68,2.13-.03,4.26-.04,6.39,0,1.04.02,2.05.29,2.92.91.73.52,1.11,1.24,1.11,2.14,0,2.43,0,4.86,0,7.29,0,1.1-.45,1.93-1.48,2.4-.07.03-.13.08-.26.16Zm-4.81-1.39c-.75-.69-1.49-1.36-2.3-2.11,1.04,0,1.97-.01,2.89.01.21,0,.45.1.62.23.57.48,1.12.98,1.66,1.49.19.18.33.16.51.01.38-.31.55-.72.55-1.19,0-2.18,0-4.35,0-6.53,0-.69-.35-1.18-1.01-1.4-.38-.13-.79-.2-1.19-.21-1.34-.02-2.68-.01-4.02,0-.35,0-.7.02-1.04.07-1.03.13-1.52.69-1.52,1.72,0,2.07,0,4.14,0,6.21,0,.91.42,1.55,1.31,1.66,1.14.13,2.29.09,3.44.12.02,0,.03-.03.09-.09Z"/>
  <path class="cls-8" d="m65.32,39.47c1.29,3.22,2.83,6.26,5.28,8.71-.01,0-.07-.03-.13-.07-.07-.04-.13-.09-.19-.15-.78-.7-1.56-1.39-2.34-2.1-.96-.87-1.7-1.91-2.21-3.1-.09-.2-.2-.39-.3-.59,0-.01-.04-.02-.12-.05-.08.45-.16.89-.24,1.32-.07.39-.1.79-.21,1.16-.27.95-1.22,1.28-2.04.71-.55-.38-.91-.93-1.21-1.51-.77-1.54-1.04-3.19-.86-4.88.12-1.14.35-2.28.68-3.37.19-.62.1-.96-.31-1.45-.74-.87-1.16-1.95-1.53-3.03-.25-.73-.45-1.49-.73-2.21-.18-.46-.44-.9-.72-1.31-.41-.59-.87-1.15-1.3-1.73-.37-.5-.68-1.02-.77-1.66-.17-1.13.63-2.13,1.77-2.09.63.02,1.27.17,1.86.38.93.33,1.82.78,2.55,1.47.31.29.68.34,1.06.35,2.07.02,3.84.82,5.54,1.95,2.92,1.94,5.31,4.38,7.08,7.4.41.7.67,1.48,1.02,2.21.86,1.85,1.74,3.7,2.6,5.55.21.46.55.73,1.04.9,2.01.72,3.74,1.91,5.38,3.25.69.56,1.33,1.16,1.84,1.89.19.27.18.34-.15.41-.91.19-1.82.34-2.73.52-.6.12-1.19.29-1.88.46.21.25.35.51.57.68.45.35.92.67,1.41.96,1.12.67,2.08,1.52,2.91,2.53.19.23.43.43.62.66.17.22.3.47.45.71-.02.02-.05.04-.07.06-.04-.02-.08-.03-.11-.05-1.12-1.04-2.42-1.79-3.8-2.43-1.21-.56-2.32-1.29-3.13-2.39-.24-.33-.42-.72-.61-1.09-.12-.23.07-.35.22-.39.88-.26,1.75-.55,2.65-.71.75-.14,1.52-.11,2.31-.16-.03-.33-.29-.49-.52-.65-.69-.49-1.42-.93-2.1-1.44-1.1-.85-2.37-1.32-3.69-1.69-.87-.24-1.49-.7-1.87-1.52-.93-2.04-1.92-4.05-2.8-6.11-.73-1.7-1.71-3.22-2.88-4.63-1.85-2.21-4.05-3.96-6.7-5.14-.82-.37-1.67-.57-2.57-.57-.37,0-.76,0-1.11-.1-.28-.07-.53-.27-.77-.45-1.05-.8-2.2-1.39-3.48-1.7-.7-.17-1.15.36-.88,1.03.16.42.38.84.67,1.17,1.32,1.51,2.17,3.25,2.7,5.17.22.79.6,1.53.97,2.27.17.35.44.66.72.93.44.43.58.91.39,1.49-.25.77-.56,1.53-.72,2.32-.4,1.97-.24,3.91.61,5.76.18.4.39.77.81.97.23.11.36.08.39-.22.07-.65.17-1.29.25-1.93.13-1.08.67-1.94,1.42-2.72Z"/>
  <path class="cls-5" d="m34.36,54.62c.92,0,1.81,0,2.69.01.07,0,.18.19.18.29.02.71.02,1.42.02,2.13,0,2.59-.03,5.19,0,7.78,0,1.24-.54,2.08-1.62,2.62-.86.44-1.79.67-2.75.67-3,.01-6.01,0-9.01,0h-.44v-1.88c.15,0,.3-.02.45-.02,2.84,0,5.68,0,8.52-.01.41,0,.83-.1,1.22-.22.51-.16.74-.56.74-1.1,0-.95,0-.95-.95-.95-1.78,0-3.56,0-5.34,0-1.16,0-2.3-.18-3.32-.78-.4-.24-.77-.57-1.06-.94-.2-.25-.33-.64-.34-.96-.03-2.14-.01-4.28,0-6.42,0-.06.01-.11.02-.21h1.92q.91,0,.91.91c0,1.69,0,3.37,0,5.06,0,1.16.43,1.61,1.62,1.63,1.09.02,2.19,0,3.28,0,.95,0,1.91-.01,2.86,0,.31,0,.42-.08.41-.4-.01-2.25,0-4.49,0-6.74v-.48Z"/>
  <path class="cls-6" d="m44.26,64.01c-1.42,0-2.84,0-4.26,0-.33,0-.43-.11-.41-.42.02-.35.02-.7,0-1.05-.02-.31.11-.39.41-.39,2.48.01,4.96.01,7.44,0,.4,0,.82-.05,1.21-.15.7-.18,1.03-.66,1.04-1.38,0-.37,0-.74,0-1.12,0-.63-.28-1.06-.88-1.22-.45-.12-.93-.2-1.4-.21-1.16-.03-2.33.02-3.49-.02-1.11-.04-2.19-.29-3.14-.91-.75-.49-1.2-1.14-1.14-2.09.04-.64-.03-1.29.04-1.92.14-1.2.97-1.81,2.01-2.23.92-.37,1.89-.39,2.85-.4,2.58-.03,5.17,0,7.76-.02.29,0,.39.08.38.37-.02.38-.03.77,0,1.15.02.32-.11.38-.4.38-2.62-.01-5.24-.01-7.86,0-.36,0-.72.06-1.07.11-.5.08-.8.4-.84.89-.04.57-.07,1.15.01,1.7.12.85.67,1.24,1.66,1.25,1.32.01,2.63,0,3.95.01.92.01,1.83.16,2.68.56.37.18.74.4,1.06.66.47.37.72.86.7,1.49-.02.65-.02,1.3,0,1.95.02.82-.34,1.44-.97,1.91-.9.67-1.94,1.01-3.05,1.05-1.41.04-2.82.01-4.23.01,0,0,0,0,0,.01Z"/>
  <path class="cls-4" d="m73.79,55.84c0,1.56,0,3.12,0,4.68,0,.99.46,1.49,1.46,1.57.5.04,1,.07,1.5.07,2.24,0,4.47,0,6.71,0,.33,0,.43.1.41.42-.03.38-.01.77,0,1.15,0,.21-.07.29-.28.29-2.71,0-5.43.02-8.14-.03-.98-.02-1.96-.22-2.86-.68-1.1-.55-1.65-1.45-1.65-2.66-.01-3.27,0-6.54,0-9.81,0-.27.09-.34.34-.33.72.01,1.44.02,2.17,0,.3,0,.37.1.37.38-.01,1.65,0,3.3,0,4.96Z"/>
  <path class="cls-2" d="m63.96,29.66c-.41-.64-.81-1.27-1.22-1.91.7-.27,1.15-.01,1.48.55.3.51.17,1.04-.26,1.35Z"/>
  <path class="cls-1" d="m89.69,62.04c0,1.19-.93,2.12-2.15,2.12s-2.16-.93-2.16-2.12.96-2.1,2.16-2.1,2.15.93,2.15,2.1Zm-3.78,0c0,.93.69,1.68,1.64,1.68s1.6-.74,1.6-1.66-.68-1.69-1.61-1.69-1.63.75-1.63,1.68Zm1.29,1.1h-.49v-2.1c.19-.04.46-.06.81-.06.4,0,.58.06.73.15.11.09.2.26.2.46,0,.23-.18.41-.43.49v.03c.2.08.32.23.38.51.06.32.1.45.15.53h-.53c-.06-.08-.1-.27-.17-.51-.04-.23-.17-.33-.43-.33h-.23v.85Zm.01-1.19h.23c.27,0,.49-.09.49-.31,0-.19-.14-.32-.45-.32-.13,0-.22.01-.27.03v.6Z"/>
</svg>