<?xml version="1.0" encoding="UTF-8"?>
<svg id="Calque_1" data-name="Calque 1" xmlns="http://www.w3.org/2000/svg" viewBox="0 0 90.21 88.01">
  <defs>
    <style>
      .cls-1 {
        fill: #fffaf5;
        fill-rule: evenodd;
        stroke-width: 0px;
      }
    </style>
  </defs>
  <path class="cls-1" d="M45.11,0C20.19,0,0,20.19,0,45.11c0,19.96,12.91,36.82,30.84,42.8,2.26.39,3.1-.96,3.1-2.14,0-1.07-.06-4.62-.06-8.4-11.33,2.09-14.27-2.76-15.17-5.3-.51-1.3-2.71-5.3-4.62-6.37-1.58-.85-3.83-2.93-.06-2.99,3.55-.06,6.09,3.27,6.94,4.62,4.06,6.82,10.54,4.91,13.14,3.72.39-2.93,1.58-4.91,2.88-6.03-10.04-1.13-20.53-5.02-20.53-22.27,0-4.91,1.75-8.97,4.62-12.12-.45-1.13-2.03-5.75.45-11.95,0,0,3.78-1.18,12.41,4.62,3.61-1.01,7.44-1.52,11.28-1.52s7.67.51,11.28,1.52c8.63-5.86,12.41-4.62,12.41-4.62,2.48,6.2.9,10.83.45,11.95,2.88,3.16,4.62,7.16,4.62,12.12,0,17.31-10.54,21.15-20.58,22.27,1.64,1.41,3.04,4.12,3.04,8.35,0,6.03-.06,10.88-.06,12.41,0,1.18.85,2.59,3.1,2.14,17.82-5.98,30.73-22.89,30.73-42.8.01-24.93-20.18-45.12-45.1-45.12Z"/>
</svg>