<?xml version="1.0" encoding="UTF-8"?>
<svg id="Calque_1" data-name="Calque 1" xmlns="http://www.w3.org/2000/svg" xmlns:xlink="http://www.w3.org/1999/xlink" viewBox="0 0 90.22 90.22">
  <defs>
    <style>
      .cls-1 {
        fill: url(#Dégradé_sans_nom_11-3);
      }

      .cls-1, .cls-2, .cls-3, .cls-4, .cls-5 {
        stroke-width: 0px;
      }

      .cls-2 {
        fill: url(#Dégradé_sans_nom_11-2);
      }

      .cls-3 {
        fill: url(#Dégradé_sans_nom_9);
      }

      .cls-4 {
        fill: url(#Dégradé_sans_nom_9-2);
      }

      .cls-5 {
        fill: url(#Dégradé_sans_nom_11);
      }
    </style>
    <linearGradient id="Dégradé_sans_nom_9" data-name="Dégradé sans nom 9" x1="7.86" y1="14.09" x2="50.14" y2="14.09" gradientUnits="userSpaceOnUse">
      <stop offset=".87" stop-color="#d6ccb6"/>
      <stop offset=".94" stop-color="#d6ccb6"/>
    </linearGradient>
    <linearGradient id="Dégradé_sans_nom_11" data-name="Dégradé sans nom 11" x1="1126.67" y1="-229.38" x2="1157.69" y2="-229.38" gradientTransform="translate(1207.83 -215.29) rotate(-180)" gradientUnits="userSpaceOnUse">
      <stop offset=".11" stop-color="#f4f0e6"/>
      <stop offset=".14" stop-color="#f4f0e6"/>
    </linearGradient>
    <linearGradient id="Dégradé_sans_nom_11-2" data-name="Dégradé sans nom 11" x1="32.55" y1="-122.21" x2="66.7" y2="-122.21" gradientTransform="translate(-16.56 165.91)" xlink:href="#Dégradé_sans_nom_11"/>
    <linearGradient id="Dégradé_sans_nom_11-3" data-name="Dégradé sans nom 11" x1="50.14" y1="43.69" x2="81.16" y2="43.69" gradientTransform="matrix(1,0,0,1,0,0)" xlink:href="#Dégradé_sans_nom_11"/>
    <linearGradient id="Dégradé_sans_nom_9-2" data-name="Dégradé sans nom 9" x1="19.11" y1="74.71" x2="50.14" y2="74.71" xlink:href="#Dégradé_sans_nom_9"/>
  </defs>
  <path class="cls-3" d="m21.95,0h0C14.17,0,7.86,6.31,7.86,14.09s6.31,14.09,14.09,14.09h0s28.18,0,28.18,0V0h-28.18Z"/>
  <path class="cls-5" d="m67.07,28.18h0c7.78,0,14.09-6.31,14.09-14.09S74.85,0,67.07,0h0s-16.93,0-16.93,0v28.18h16.93Z"/>
  <path class="cls-2" d="m31.5,28.18h0c-8.57,0-15.51,6.94-15.51,15.51s6.94,15.51,15.51,15.51h0s18.63,0,18.63,0v-31.02s-18.63,0-18.63,0Z"/>
  <circle class="cls-1" cx="65.65" cy="43.69" r="15.51"/>
  <path class="cls-4" d="m50.14,59.2v15.51c0,1.43-.19,2.81-.56,4.12-1.8,6.57-7.81,11.39-14.96,11.39-8.57,0-15.51-6.94-15.51-15.51,0-6.24,3.7-11.63,9.02-14.08,1.98-.92,4.17-1.43,6.5-1.43h15.51Z"/>
</svg>