<?xml version="1.0" encoding="UTF-8"?>
<svg id="Calque_1" data-name="Calque 1" xmlns="http://www.w3.org/2000/svg" xmlns:xlink="http://www.w3.org/1999/xlink" viewBox="0 0 90.22 90.22">
  <defs>
    <style>
      .cls-1 {
        clip-path: url(#clippath-1);
      }

      .cls-2 {
        clip-rule: evenodd;
        fill: none;
      }

      .cls-2, .cls-3 {
        stroke-width: 0px;
      }

      .cls-3 {
        fill: #f4f0e6;
      }
    </style>
    <clipPath id="clippath-1">
      <path class="cls-2" d="m45.11,13.08c-12.03,0-19.55,5.98-22.56,17.94,4.51-5.98,9.78-8.22,15.79-6.73,3.43.85,5.89,3.33,8.6,6.07,4.43,4.46,9.55,9.63,20.72,9.63,12.03,0,19.55-5.98,22.56-17.94-4.51,5.98-9.77,8.22-15.79,6.73-3.43-.85-5.89-3.33-8.6-6.07-4.42-4.47-9.54-9.63-20.72-9.63h0Zm-22.56,26.9c-12.03,0-19.55,5.98-22.56,17.94,4.51-5.98,9.78-8.22,15.79-6.73,3.43.85,5.89,3.33,8.6,6.07,4.42,4.46,9.54,9.63,20.72,9.63,12.03,0,19.55-5.98,22.56-17.94-4.51,5.98-9.78,8.22-15.79,6.73-3.43-.85-5.89-3.33-8.6-6.07-4.43-4.46-9.55-9.63-20.73-9.63Z"/>
    </clipPath>
  </defs>
  <g class="cls-1">
    <rect class="cls-3" x="0" y="39.99" width="10.13" height="26.9"/>
    <rect class="cls-3" x="10.13" y="39.99" width="2.55" height="26.9"/>
    <rect class="cls-3" x="12.68" y="39.99" width="54.99" height="26.9"/>
    <rect class="cls-3" x="22.56" y="13.08" width="67.67" height="26.9"/>
  </g>
</svg>