<?xml version="1.0" encoding="UTF-8"?>
<svg id="Calque_1" data-name="Calque 1" xmlns="http://www.w3.org/2000/svg" viewBox="0 0 720.04 849.96">
  <defs>
    <style>
      .cls-1 {
        fill: #fff;
        stroke-width: 0px;
      }
    </style>
  </defs>
  <g>
    <path class="cls-1" d="M271,287.2c0,16.35,15.12,14.51,15.12,27.18,0,6.74-6.33,10.63-12.87,10.63-7.56,0-16.35-.61-24.11-.61s-17.16.61-24.93.61c-6.13,0-12.67-3.88-12.67-10.63,0-12.67,15.12-10.83,15.12-27.18v-60.08c0-16.76-13.9-13.28-13.9-24.73,0-8.79,7.56-11.03,15.12-11.03,3.88,0,12.67,1.02,21.25,1.02,7.76,0,15.73-1.02,19.82-1.02,7.36,0,13.69,2.25,13.69,11.03,0,9.6-11.65,8.17-11.65,25.75,0,4.09,1.84,6.13,5.31,6.13,5.72,0,18.6-12.87,18.6-20.02,0-4.7-3.47-4.9-3.47-11.65,0-9.6,5.93-11.24,15.12-11.24,5.72,0,11.44,1.02,17.57,1.02,4.5,0,9.81-1.02,15.12-1.02,8.17,0,15.53,2.25,15.53,11.24,0,15.94-18.19,12.06-23.91,17.17-5.93,5.31-11.03,21.25-24.32,27.18,13.69,4.7,26.57,15.53,33.1,30.65,3.07,6.95,5.11,17.37,10.83,23.3,4.29,4.5,12.47,4.09,12.47,12.87,0,10.83-15.94,11.44-24.73,11.44-20.23,0-30.45-5.52-36.38-15.33-10.01-16.76-7.97-39.23-22.89-39.23-4.9,0-7.97,4.7-7.97,9.6v6.95Z"/>
    <path class="cls-1" d="M479.22,287.2c0,16.35,14.92,14.51,14.92,27.18,0,9.2-14.1,10.83-23.3,10.83-26.77,0-24.73-12.87-31.47-12.87-8.58,0-13.49,12.87-44.35,12.87-22.89,0-36.78-16.14-36.78-39.23,0-33.1,26.36-39.85,57.42-41.48,10.01-.41,16.14-3.47,16.14-14.51,0-8.58-3.68-17.16-13.69-17.16-18.8,0-21.46,29.22-38.62,29.22-12.26,0-14.1-8.17-14.1-18.8,0-27.99,36.17-33.51,60.69-33.51,43.93,0,53.13,21.05,53.13,59.87v37.6ZM432.84,278.42c0-10.01-3.27-15.53-11.03-15.53s-13.69,5.72-13.69,15.53,5.52,18.8,13.69,18.8,11.03-8.38,11.03-18.8Z"/>
  </g>
  <g>
    <path class="cls-1" d="M292.21,421.89c0-8.86-4.09-9.27-11.45-9.27s-12.67.41-12.67,8.72v4.5c0,11.04,8.72,9.67,8.72,18.12,0,4.5-3.54,7.09-7.77,7.09-5.04,0-9.95-.41-15.13-.41s-11.45.41-16.62.41c-4.09,0-8.45-2.59-8.45-7.09,0-8.45,10.08-7.09,10.08-18.12v-40.06c0-11.17-9.27-8.86-9.27-16.49,0-5.86,5.04-7.36,10.08-7.36,2.59,0,8.45.68,14.17.68,5.18,0,10.49-.68,13.22-.68,4.91,0,9.13,1.5,9.13,7.36,0,7.63-8.18,5.31-8.18,16.49v2.04c0,7.9,5.18,8.04,12.67,8.04s11.45-.14,11.45-7.36v-2.73c0-11.17-8.04-8.86-8.04-16.49,0-5.86,3.95-7.36,8.86-7.36,2.73,0,8.04.68,13.9.68,4.9,0,10.9-.68,13.76-.68,4.77,0,10.08,1.5,10.08,7.36,0,7.63-9.54,5.31-9.54,16.49v40.06c0,11.04,10.08,9.67,10.08,18.12,0,4.5-4.22,7.09-8.31,7.09-5.18,0-11.17-.41-16.08-.41-5.31,0-10.63.41-15.67.41-4.09,0-7.9-2.59-7.9-7.09,0-8.45,8.86-7.09,8.86-18.12v-3.95Z"/>
    <path class="cls-1" d="M409.52,416.03c-.82-2.18-2.04-3.27-3.41-3.27-1.5,0-3,1.09-3.95,3.13l-13.76,28.75c-2.04,4.36-6.54,7.77-10.49,7.77-5.72,0-9.81-3.13-11.58-7.77l-22.35-59c-3.27-8.18-10.36-9.27-10.36-14.99,0-7.49,4.5-8.86,10.22-8.86,4.22,0,10.36.82,14.44.82,2.86,0,8.18-.68,11.99-.68,5.86,0,10.9,1.5,10.9,8.86,0,5.18-4.36,5.59-4.36,9.13,0,5.45,7.22,23.3,11.17,23.3,2.59,0,8.58-11.04,8.58-17.3,0-10.08-5.45-8.72-5.45-16.49,0-5.45,3.81-7.63,8.31-7.63s6.27.68,10.08.68c3.27,0,6.27-.55,10.08-.55,5.04,0,10.36,2.04,10.36,8.86,0,5.18-4.22,5.59-4.22,9.13,0,5.45,6.95,23.3,11.04,23.3s10.76-17.99,10.76-23.3c0-3.95-4.22-3.95-4.22-9.13,0-7.36,5.31-8.86,9.67-8.86,2.45,0,4.09.55,7.36.55,2.86,0,3.95-.55,7.22-.55,4.77,0,9.27,1.64,9.27,8.86,0,6.68-10.08,6.68-13.22,14.85l-22.48,59c-1.77,4.63-5.45,7.77-9.54,7.77-5.72,0-8.72-3-10.63-7.77l-11.45-28.62Z"/>
  </g>
  <g>
    <path class="cls-1" d="M348.35,587.08c0,16.35,14.92,14.51,14.92,27.18,0,9.2-14.1,10.83-23.3,10.83-26.77,0-24.73-12.87-31.47-12.87-8.58,0-13.49,12.87-44.35,12.87-22.89,0-36.78-16.14-36.78-39.23,0-33.1,26.36-39.85,57.42-41.48,10.01-.41,16.14-3.47,16.14-14.51,0-8.58-3.68-17.16-13.69-17.16-18.8,0-21.46,29.22-38.62,29.22-12.26,0-14.1-8.17-14.1-18.8,0-27.99,36.17-33.51,60.69-33.51,43.93,0,53.13,21.05,53.13,59.87v37.6ZM301.96,578.29c0-10.01-3.27-15.53-11.03-15.53s-13.69,5.72-13.69,15.53,5.52,18.8,13.69,18.8,11.03-8.38,11.03-18.8Z"/>
    <path class="cls-1" d="M420.68,625.7c-32.08,0-60.28-7.36-60.28-41.89,0-5.93,3.07-11.85,10.22-11.85,7.76,0,15.94,15.53,21.25,19.41,7.15,5.31,16.55,7.36,23.09,7.36,7.56,0,10.42-3.47,10.42-7.15,0-16.15-63.35-13.49-63.35-61.71,0-23.5,22.48-40.87,57.01-40.87,27.38,0,53.54,4.5,53.54,30.24,0,7.56-4.29,13.89-12.06,13.89-15.12,0-18.6-17.57-37.19-17.57-5.31,0-9.81,2.05-9.81,5.93,0,11.85,26.16,10.83,49.04,25.13,11.03,6.95,15.73,15.12,15.73,26.57,0,31.67-28.4,52.52-57.63,52.52Z"/>
  </g>
  <path class="cls-1" d="M360.02,0C161.5,0,0,190.64,0,424.98s161.5,424.98,360.02,424.98,360.02-190.64,360.02-424.98S558.54,0,360.02,0ZM464.52,790.97c-15.71,6.49-31.4-9.38-24.8-25.04l.17-.41c10.09-24.02,17.27-49.18,21.35-74.79,1.41-8.87-3.49-17.87-11.91-21-11.62-4.32-23.7,3.14-25.54,14.77-3.6,22.7-9.96,45.01-18.9,66.31-8.41,20.01-24.09,61.18-44.86,61.18-177.58,0-322.05-173.61-322.05-387.01,0-148.31,69.8-277.37,171.99-342.31,16-10.17,35.68,6.28,28.55,23.85-6.72,16.56-12.61,34.18-14.03,47.74-1.08,10.39,6.24,20.28,16.62,21.47.74.08,1.48.13,2.22.13,9.62,0,17.87-7.29,18.86-17.06,2.89-28.36,13.44-56.36,29.7-78.86,7.73-10.7,16.54-19.97,26.32-27.75,11.79-9.37,26.55-14.21,41.61-14.22h.22c177.58,0,322.05,173.61,322.05,387.01,0,169.45-91.12,313.74-217.56,365.99Z"/>
</svg>