<?xml version="1.0" encoding="UTF-8"?>
<svg id="Calque_1" data-name="Calque 1" xmlns="http://www.w3.org/2000/svg" viewBox="0 0 720.04 849.96">
  <defs>
    <style>
      .cls-1 {
        fill: none;
        stroke: #051618;
        stroke-miterlimit: 10;
      }
    </style>
  </defs>
  <g>
    <path class="cls-1" d="M282.91,305.63c0,14.16,13.1,12.57,13.1,23.54,0,5.84-5.49,9.2-11.15,9.2-6.55,0-14.16-.53-20.89-.53s-14.87.53-21.6.53c-5.31,0-10.97-3.36-10.97-9.2,0-10.98,13.1-9.38,13.1-23.54v-52.04c0-14.51-12.04-11.51-12.04-21.42,0-7.61,6.55-9.56,13.1-9.56,3.36,0,10.98.89,18.41.89,6.73,0,13.63-.89,17.17-.89,6.37,0,11.86,1.95,11.86,9.56,0,8.32-10.09,7.08-10.09,22.3,0,3.54,1.59,5.31,4.6,5.31,4.96,0,16.11-11.15,16.11-17.35,0-4.07-3.01-4.25-3.01-10.09,0-8.32,5.13-9.74,13.1-9.74,4.96,0,9.91.89,15.22.89,3.89,0,8.5-.89,13.1-.89,7.08,0,13.45,1.95,13.45,9.74,0,13.81-15.75,10.44-20.71,14.87-5.13,4.6-9.56,18.41-21.06,23.54,11.86,4.07,23.01,13.45,28.68,26.55,2.66,6.02,4.43,15.05,9.38,20.18,3.72,3.89,10.8,3.54,10.8,11.15,0,9.38-13.81,9.91-21.42,9.91-17.52,0-26.38-4.78-31.51-13.28-8.67-14.52-6.9-33.99-19.82-33.99-4.25,0-6.9,4.07-6.9,8.32v6.02Z"/>
    <path class="cls-1" d="M463.28,305.63c0,14.16,12.92,12.57,12.92,23.54,0,7.97-12.21,9.38-20.18,9.38-23.19,0-21.42-11.15-27.26-11.15-7.44,0-11.68,11.15-38.41,11.15-19.82,0-31.86-13.98-31.86-33.99,0-28.68,22.84-34.52,49.74-35.93,8.67-.35,13.98-3.01,13.98-12.57,0-7.43-3.19-14.87-11.86-14.87-16.28,0-18.59,25.31-33.46,25.31-10.62,0-12.21-7.08-12.21-16.29,0-24.25,31.33-29.03,52.57-29.03,38.06,0,46.02,18.23,46.02,51.86v32.57ZM423.1,298.02c0-8.67-2.83-13.45-9.56-13.45s-11.86,4.96-11.86,13.45,4.78,16.29,11.86,16.29,9.56-7.26,9.56-16.29Z"/>
  </g>
  <g>
    <path class="cls-1" d="M301.28,422.3c0-7.67-3.54-8.03-9.91-8.03s-10.98.35-10.98,7.55v3.9c0,9.56,7.55,8.38,7.55,15.7,0,3.89-3.07,6.14-6.73,6.14-4.37,0-8.62-.35-13.1-.35s-9.92.35-14.4.35c-3.54,0-7.32-2.24-7.32-6.14,0-7.32,8.73-6.14,8.73-15.7v-34.7c0-9.68-8.03-7.67-8.03-14.28,0-5.07,4.37-6.37,8.73-6.37,2.24,0,7.32.59,12.28.59,4.48,0,9.09-.59,11.45-.59,4.25,0,7.91,1.3,7.91,6.37,0,6.61-7.08,4.6-7.08,14.28v1.77c0,6.85,4.48,6.96,10.98,6.96s9.91-.12,9.91-6.37v-2.36c0-9.68-6.96-7.67-6.96-14.28,0-5.07,3.42-6.37,7.67-6.37,2.36,0,6.96.59,12.04.59,4.25,0,9.44-.59,11.92-.59,4.13,0,8.73,1.3,8.73,6.37,0,6.61-8.26,4.6-8.26,14.28v34.7c0,9.56,8.73,8.38,8.73,15.7,0,3.89-3.66,6.14-7.2,6.14-4.49,0-9.68-.35-13.93-.35-4.6,0-9.21.35-13.57.35-3.54,0-6.85-2.24-6.85-6.14,0-7.32,7.67-6.14,7.67-15.7v-3.42Z"/>
    <path class="cls-1" d="M402.9,417.22c-.71-1.89-1.77-2.83-2.95-2.83-1.3,0-2.6.94-3.42,2.71l-11.92,24.91c-1.77,3.78-5.67,6.73-9.09,6.73-4.96,0-8.5-2.71-10.03-6.73l-19.36-51.11c-2.83-7.08-8.97-8.03-8.97-12.98,0-6.49,3.89-7.67,8.85-7.67,3.66,0,8.97.71,12.51.71,2.48,0,7.08-.59,10.39-.59,5.07,0,9.44,1.3,9.44,7.67,0,4.48-3.78,4.84-3.78,7.91,0,4.72,6.26,20.18,9.68,20.18,2.24,0,7.44-9.56,7.44-14.99,0-8.73-4.72-7.55-4.72-14.28,0-4.72,3.3-6.61,7.2-6.61s5.43.59,8.73.59c2.83,0,5.43-.47,8.73-.47,4.37,0,8.97,1.77,8.97,7.67,0,4.48-3.66,4.84-3.66,7.91,0,4.72,6.02,20.18,9.56,20.18s9.32-15.58,9.32-20.18c0-3.42-3.66-3.42-3.66-7.91,0-6.37,4.6-7.67,8.38-7.67,2.13,0,3.54.47,6.37.47,2.48,0,3.42-.47,6.26-.47,4.13,0,8.03,1.42,8.03,7.67,0,5.78-8.73,5.78-11.45,12.87l-19.48,51.11c-1.53,4.01-4.72,6.73-8.26,6.73-4.96,0-7.55-2.6-9.21-6.73l-9.91-24.79Z"/>
  </g>
  <g>
    <path class="cls-1" d="M349.91,565.4c0,14.16,12.92,12.57,12.92,23.54,0,7.97-12.21,9.38-20.18,9.38-23.19,0-21.42-11.15-27.26-11.15-7.44,0-11.68,11.15-38.41,11.15-19.82,0-31.86-13.98-31.86-33.99,0-28.68,22.84-34.52,49.74-35.93,8.67-.35,13.98-3.01,13.98-12.57,0-7.43-3.19-14.87-11.86-14.87-16.28,0-18.59,25.31-33.46,25.31-10.62,0-12.21-7.08-12.21-16.29,0-24.25,31.33-29.03,52.57-29.03,38.06,0,46.02,18.23,46.02,51.86v32.57ZM309.73,557.78c0-8.67-2.83-13.45-9.56-13.45s-11.86,4.96-11.86,13.45,4.78,16.29,11.86,16.29,9.56-7.26,9.56-16.29Z"/>
    <path class="cls-1" d="M412.56,598.85c-27.79,0-52.22-6.37-52.22-36.29,0-5.13,2.66-10.27,8.85-10.27,6.73,0,13.81,13.45,18.41,16.82,6.2,4.6,14.34,6.37,20,6.37,6.55,0,9.03-3.01,9.03-6.2,0-13.99-54.87-11.68-54.87-53.46,0-20.36,19.47-35.4,49.39-35.4,23.72,0,46.38,3.89,46.38,26.2,0,6.55-3.72,12.04-10.44,12.04-13.1,0-16.11-15.22-32.22-15.22-4.6,0-8.5,1.77-8.5,5.13,0,10.27,22.66,9.38,42.48,21.77,9.56,6.02,13.63,13.1,13.63,23.01,0,27.44-24.6,45.49-49.92,45.49Z"/>
  </g>
  <path class="cls-1" d="M360.02,56.85c-171.96,0-311.86,165.14-311.86,368.13s139.9,368.13,311.86,368.13,311.86-165.14,311.86-368.13S531.98,56.85,360.02,56.85ZM450.54,742.01c-13.6,5.62-27.2-8.13-21.48-21.69l.15-.35c8.74-20.8,14.96-42.6,18.49-64.78,1.22-7.68-3.03-15.48-10.32-18.19-10.07-3.74-20.53,2.72-22.13,12.8-3.12,19.67-8.62,38.99-16.37,57.44-7.29,17.34-20.87,52.99-38.86,52.99-153.82,0-278.97-150.39-278.97-335.24,0-128.47,60.46-240.27,148.98-296.52,13.86-8.81,30.9,5.44,24.73,20.66-5.82,14.34-10.93,29.61-12.15,41.35-.94,9,5.4,17.57,14.4,18.6.65.07,1.28.11,1.92.11,8.33,0,15.48-6.31,16.34-14.78,2.51-24.56,11.64-48.82,25.72-68.31,6.7-9.27,14.33-17.3,22.8-24.03,10.21-8.12,23-12.31,36.04-12.31h.19c153.82,0,278.97,150.39,278.97,335.24,0,146.78-78.93,271.77-188.45,317.03Z"/>
</svg>