<?xml version="1.0" encoding="UTF-8"?>
<svg id="Calque_1" data-name="Calque 1" xmlns="http://www.w3.org/2000/svg" viewBox="0 0 1128.74 1679.29">
  <defs>
    <style>
      .cls-1 {
        fill: #4f4c45;
        stroke-width: 0px;
      }
    </style>
  </defs>
  <g>
    <path class="cls-1" d="M153.21,800.94c-4.76,2.91-10.61,4.37-17.56,4.37-11.43,0-20.79-3.94-28.09-11.82-7.61-7.92-11.41-18.76-11.41-32.5s3.84-25.05,11.53-33.43c7.69-8.39,17.85-12.58,30.49-12.58,10.96,0,19.77,2.77,26.42,8.3,6.65,5.53,10.46,12.44,11.44,20.71h-17.73c-1.37-5.86-4.7-9.96-10.01-12.29-2.97-1.28-6.26-1.92-9.89-1.92-6.94,0-12.65,2.61-17.12,7.83-4.47,5.22-6.7,13.08-6.7,23.56s2.42,18.04,7.26,22.43c4.84,4.39,10.34,6.58,16.5,6.58s11-1.74,14.86-5.21c3.86-3.47,6.24-8.03,7.14-13.66h-19.96v-14.33h35.93v46.07h-11.94l-1.81-10.72c-3.47,4.08-6.59,6.95-9.36,8.62Z"/>
    <path class="cls-1" d="M246.78,784.4c-.43,3.77-2.4,7.59-5.91,11.47-5.46,6.17-13.11,9.26-22.94,9.26-8.12,0-15.27-2.6-21.48-7.8-6.2-5.2-9.3-13.67-9.3-25.4,0-10.99,2.8-19.42,8.4-25.28,5.6-5.86,12.86-8.8,21.8-8.8,5.31,0,10.08.99,14.34,2.97,4.25,1.98,7.76,5.11,10.53,9.38,2.5,3.77,4.12,8.14,4.86,13.11.43,2.91.6,7.11.53,12.58h-43.66c.23,6.37,2.24,10.83,6.03,13.4,2.3,1.59,5.07,2.39,8.31,2.39,3.43,0,6.22-.97,8.37-2.91,1.17-1.05,2.2-2.5,3.1-4.37h17.03ZM230.28,764.95c-.27-4.39-1.61-7.72-4.01-9.99-2.4-2.27-5.37-3.41-8.92-3.41-3.86,0-6.86,1.2-8.98,3.61-2.13,2.41-3.46,5.67-4.01,9.79h25.92ZM208.63,730.99l11.24-17.42h18.61l-17.79,17.42h-12.06Z"/>
    <path class="cls-1" d="M290.91,754.87c-6.71,0-11.22,2.18-13.52,6.52-1.29,2.45-1.93,6.21-1.93,11.3v30.35h-16.8v-63.49h15.92v11.07c2.57-4.23,4.82-7.13,6.73-8.68,3.12-2.6,7.18-3.9,12.17-3.9.31,0,.58,0,.79.03.21.02.69.05,1.43.09v17.01c-1.05-.12-1.99-.19-2.81-.23-.82-.04-1.48-.06-1.99-.06Z"/>
    <path class="cls-1" d="M307.88,746.42c4.41-5.59,11.98-8.39,22.71-8.39,6.98,0,13.19,1.38,18.61,4.14,5.42,2.76,8.13,7.96,8.13,15.61v29.12c0,2.02.04,4.47.12,7.34.12,2.18.45,3.65.99,4.43.55.78,1.37,1.42,2.46,1.92v2.45h-18.14c-.51-1.28-.86-2.48-1.05-3.61-.2-1.13-.35-2.41-.47-3.84-2.3,2.49-4.96,4.6-7.96,6.35-3.59,2.06-7.65,3.09-12.17,3.09-5.77,0-10.54-1.64-14.31-4.92-3.77-3.28-5.65-7.93-5.65-13.95,0-7.81,3.02-13.46,9.07-16.95,3.32-1.9,8.19-3.26,14.63-4.08l5.68-.7c3.08-.39,5.29-.87,6.61-1.46,2.38-1.01,3.57-2.58,3.57-4.72,0-2.6-.91-4.4-2.72-5.39-1.81-.99-4.48-1.49-7.99-1.49-3.94,0-6.73.97-8.37,2.91-1.17,1.44-1.95,3.38-2.34,5.82h-16.09c.35-5.55,1.91-10.12,4.68-13.69ZM320.28,791.04c1.56,1.28,3.47,1.92,5.73,1.92,3.59,0,6.9-1.05,9.92-3.15,3.02-2.1,4.59-5.92,4.71-11.47v-6.17c-1.05.66-2.12,1.19-3.19,1.6-1.07.41-2.55.79-4.42,1.14l-3.75.7c-3.51.62-6.03,1.38-7.55,2.27-2.57,1.51-3.86,3.86-3.86,7.05,0,2.83.8,4.87,2.4,6.12Z"/>
    <path class="cls-1" d="M402.15,751.84c-5.66,0-9.54,2.39-11.65,7.16-1.09,2.52-1.64,5.75-1.64,9.67v34.37h-16.62v-63.37h16.09v9.26c2.15-3.26,4.17-5.61,6.09-7.05,3.43-2.56,7.78-3.84,13.05-3.84,6.59,0,11.99,1.72,16.18,5.15,4.19,3.44,6.29,9.14,6.29,17.1v42.75h-17.09v-38.62c0-3.34-.45-5.9-1.35-7.69-1.64-3.26-4.76-4.89-9.36-4.89Z"/>
    <path class="cls-1" d="M474.54,791.22v12.41l-7.9.29c-7.88.27-13.26-1.09-16.15-4.08-1.87-1.9-2.81-4.83-2.81-8.8v-39.08h-8.9v-11.82h8.9v-17.71h16.5v17.71h10.36v11.82h-10.36v33.55c0,2.6.33,4.22.99,4.86.66.64,2.69.96,6.09.96.51,0,1.04,0,1.61-.03.56-.02,1.12-.05,1.67-.09Z"/>
  </g>
  <g>
    <path class="cls-1" d="M153.21,413.02c-4.76,2.91-10.61,4.37-17.56,4.37-11.43,0-20.79-3.94-28.09-11.82-7.61-7.92-11.41-18.76-11.41-32.5s3.84-25.05,11.53-33.43c7.69-8.39,17.85-12.58,30.49-12.58,10.96,0,19.77,2.77,26.42,8.3,6.65,5.53,10.46,12.44,11.44,20.71h-17.73c-1.37-5.86-4.7-9.96-10.01-12.29-2.97-1.28-6.26-1.92-9.89-1.92-6.94,0-12.65,2.61-17.12,7.83-4.47,5.22-6.7,13.08-6.7,23.56s2.42,18.04,7.26,22.43c4.84,4.39,10.34,6.58,16.5,6.58s11-1.74,14.86-5.21c3.86-3.47,6.24-8.03,7.14-13.66h-19.96v-14.33h35.93v46.07h-11.94l-1.81-10.72c-3.47,4.08-6.59,6.95-9.36,8.62Z"/>
    <path class="cls-1" d="M224.25,366.95c-6.71,0-11.22,2.18-13.52,6.52-1.29,2.45-1.93,6.21-1.93,11.3v30.35h-16.8v-63.49h15.92v11.07c2.57-4.23,4.82-7.13,6.73-8.68,3.12-2.6,7.18-3.9,12.17-3.9.31,0,.58,0,.79.03.21.02.69.05,1.43.09v17.01c-1.05-.12-1.99-.19-2.81-.23-.82-.04-1.48-.06-1.99-.06Z"/>
    <path class="cls-1" d="M241.22,358.5c4.41-5.59,11.98-8.39,22.71-8.39,6.98,0,13.19,1.38,18.61,4.14,5.42,2.76,8.13,7.96,8.13,15.61v29.12c0,2.02.04,4.47.12,7.34.12,2.18.45,3.65.99,4.43.55.78,1.37,1.42,2.46,1.92v2.45h-18.14c-.51-1.28-.86-2.48-1.05-3.61-.2-1.13-.35-2.41-.47-3.84-2.3,2.49-4.96,4.6-7.96,6.35-3.59,2.06-7.65,3.09-12.17,3.09-5.77,0-10.54-1.64-14.31-4.92-3.77-3.28-5.65-7.93-5.65-13.95,0-7.81,3.02-13.46,9.07-16.95,3.32-1.9,8.19-3.26,14.63-4.08l5.68-.7c3.08-.39,5.29-.87,6.61-1.46,2.38-1.01,3.57-2.58,3.57-4.72,0-2.6-.91-4.4-2.72-5.39-1.81-.99-4.48-1.49-7.99-1.49-3.94,0-6.73.97-8.37,2.91-1.17,1.44-1.95,3.38-2.34,5.82h-16.09c.35-5.55,1.91-10.12,4.68-13.69ZM253.63,403.12c1.56,1.28,3.47,1.92,5.73,1.92,3.59,0,6.9-1.05,9.92-3.15,3.02-2.1,4.59-5.92,4.71-11.47v-6.17c-1.05.66-2.12,1.19-3.19,1.6-1.07.41-2.55.79-4.42,1.14l-3.75.7c-3.51.62-6.03,1.38-7.55,2.27-2.57,1.51-3.86,3.86-3.86,7.05,0,2.83.8,4.87,2.4,6.12Z"/>
    <path class="cls-1" d="M358.91,358.44c5.15,5.48,7.72,13.51,7.72,24.11,0,11.18-2.53,19.71-7.58,25.57-5.05,5.86-11.56,8.8-19.52,8.8-5.07,0-9.29-1.26-12.64-3.79-1.83-1.4-3.63-3.44-5.38-6.12v33.08h-16.5v-88.48h15.98v9.38c1.79-2.76,3.71-4.93,5.74-6.52,3.71-2.83,8.11-4.25,13.23-4.25,7.45,0,13.77,2.74,18.96,8.21ZM349.43,383.37c0-4.89-1.12-9.22-3.37-12.99-2.24-3.77-5.88-5.65-10.91-5.65-6.05,0-10.2,2.85-12.46,8.56-1.17,3.03-1.76,6.87-1.76,11.53,0,7.38,1.97,12.56,5.91,15.55,2.34,1.75,5.11,2.62,8.31,2.62,4.64,0,8.18-1.79,10.62-5.36,2.44-3.57,3.66-8.33,3.66-14.27Z"/>
    <path class="cls-1" d="M436.33,377.84v37.28h-17.03v-38.62c0-3.42-.58-6.17-1.76-8.27-1.52-2.95-4.41-4.43-8.66-4.43s-7.75,1.47-10.04,4.4c-2.28,2.93-3.42,7.12-3.42,12.55v34.37h-16.62v-85.57h16.62v30.35c2.42-3.69,5.22-6.26,8.4-7.72,3.18-1.46,6.52-2.18,10.04-2.18,3.94,0,7.52.68,10.74,2.04,3.22,1.36,5.86,3.44,7.93,6.23,1.76,2.37,2.83,4.81,3.22,7.31.39,2.5.59,6.59.59,12.26Z"/>
    <path class="cls-1" d="M469.04,328.73v15.32h-16.91v-15.32h16.91ZM469.04,351.63v63.49h-16.91v-63.49h16.91Z"/>
    <path class="cls-1" d="M529.14,354.54c4.99,3.18,7.86,8.66,8.6,16.43h-16.68c-.23-2.14-.84-3.82-1.81-5.07-1.83-2.25-4.96-3.38-9.36-3.38-3.63,0-6.21.56-7.75,1.69-1.54,1.13-2.31,2.45-2.31,3.96,0,1.9.82,3.28,2.46,4.14,1.64.89,7.43,2.43,17.38,4.6,6.63,1.55,11.61,3.9,14.92,7.05,3.28,3.18,4.92,7.16,4.92,11.94,0,6.29-2.35,11.43-7.05,15.41-4.7,3.98-11.97,5.97-21.8,5.97s-17.43-2.11-22.21-6.32c-4.78-4.21-7.17-9.58-7.17-16.11h16.91c.35,2.95,1.11,5.05,2.28,6.29,2.07,2.21,5.89,3.32,11.47,3.32,3.28,0,5.88-.49,7.81-1.46,1.93-.97,2.9-2.43,2.9-4.37s-.78-3.28-2.34-4.25c-1.56-.97-7.35-2.64-17.38-5.01-7.22-1.79-12.31-4.02-15.27-6.7-2.97-2.64-4.45-6.45-4.45-11.42,0-5.86,2.31-10.9,6.93-15.12,4.62-4.21,11.13-6.32,19.52-6.32s14.45,1.57,19.49,4.72Z"/>
    <path class="cls-1" d="M581.05,403.29v12.41l-7.9.29c-7.88.27-13.26-1.09-16.15-4.08-1.87-1.9-2.81-4.83-2.81-8.8v-39.08h-8.9v-11.82h8.9v-17.71h16.5v17.71h10.36v11.82h-10.36v33.55c0,2.6.33,4.22.99,4.86.66.64,2.69.96,6.09.96.51,0,1.04,0,1.61-.03.56-.02,1.12-.05,1.67-.09Z"/>
    <path class="cls-1" d="M646.35,396.48c-.43,3.77-2.4,7.59-5.91,11.47-5.46,6.17-13.11,9.26-22.94,9.26-8.12,0-15.27-2.6-21.48-7.8-6.2-5.2-9.3-13.67-9.3-25.4,0-10.99,2.8-19.42,8.4-25.28,5.6-5.86,12.86-8.8,21.8-8.8,5.31,0,10.08.99,14.34,2.97,4.25,1.98,7.76,5.11,10.53,9.38,2.5,3.77,4.12,8.14,4.86,13.11.43,2.91.6,7.11.53,12.58h-43.66c.23,6.37,2.24,10.83,6.03,13.4,2.3,1.59,5.07,2.39,8.31,2.39,3.43,0,6.22-.97,8.37-2.91,1.17-1.05,2.2-2.5,3.1-4.37h17.03ZM629.85,377.02c-.27-4.39-1.61-7.72-4.01-9.99-2.4-2.27-5.37-3.41-8.92-3.41-3.86,0-6.86,1.2-8.98,3.61-2.13,2.41-3.46,5.67-4.01,9.79h25.92Z"/>
    <path class="cls-1" d="M744.08,382.03v-52.77h18.32v52.77c0,9.13-1.42,16.23-4.27,21.32-5.31,9.32-15.43,13.98-30.37,13.98s-25.09-4.66-30.43-13.98c-2.85-5.09-4.27-12.19-4.27-21.32v-52.77h18.32v52.77c0,5.9.7,10.21,2.11,12.93,2.18,4.81,6.94,7.22,14.28,7.22s12.04-2.41,14.22-7.22c1.4-2.72,2.11-7.03,2.11-12.93Z"/>
    <path class="cls-1" d="M795.4,328.73v15.32h-16.91v-15.32h16.91ZM795.4,351.63v63.49h-16.91v-63.49h16.91Z"/>
    <path class="cls-1" d="M797.22,415.12l33.41-88.48h13.87l-33.53,88.48h-13.75Z"/>
    <path class="cls-1" d="M897.23,382.03v-52.77h18.32v52.77c0,9.13-1.42,16.23-4.27,21.32-5.31,9.32-15.43,13.98-30.37,13.98s-25.09-4.66-30.43-13.98c-2.85-5.09-4.27-12.19-4.27-21.32v-52.77h18.32v52.77c0,5.9.7,10.21,2.11,12.93,2.18,4.81,6.94,7.22,14.28,7.22s12.04-2.41,14.22-7.22c1.4-2.72,2.11-7.03,2.11-12.93Z"/>
    <path class="cls-1" d="M988.22,415.12h-20.77l-11-19.05-11.06,19.05h-20.25l21.77-32.15-20.83-31.22h20.42l10.65,18.41,10.42-18.41h19.84l-20.95,30.93,21.77,32.44Z"/>
  </g>
  <g>
    <path class="cls-1" d="M98.9,523.22h17.91v85.86h-17.91v-85.86Z"/>
    <path class="cls-1" d="M162.28,557.88c-5.66,0-9.54,2.39-11.65,7.16-1.09,2.52-1.64,5.75-1.64,9.67v34.37h-16.62v-63.37h16.09v9.26c2.15-3.26,4.17-5.61,6.09-7.05,3.43-2.56,7.78-3.84,13.05-3.84,6.59,0,11.99,1.72,16.18,5.15,4.19,3.44,6.29,9.14,6.29,17.1v42.75h-17.09v-38.62c0-3.34-.45-5.9-1.35-7.69-1.64-3.26-4.76-4.89-9.36-4.89Z"/>
    <path class="cls-1" d="M234.67,597.25v12.41l-7.9.29c-7.88.27-13.26-1.09-16.15-4.08-1.87-1.9-2.81-4.83-2.81-8.8v-39.08h-8.9v-11.82h8.9v-17.71h16.5v17.71h10.36v11.82h-10.36v33.55c0,2.6.33,4.22.99,4.86.66.64,2.69.96,6.09.96.51,0,1.04,0,1.61-.03.56-.02,1.12-.05,1.67-.09Z"/>
    <path class="cls-1" d="M299.98,590.44c-.43,3.77-2.4,7.59-5.91,11.47-5.46,6.17-13.11,9.26-22.94,9.26-8.12,0-15.27-2.6-21.48-7.8-6.2-5.2-9.3-13.67-9.3-25.4,0-10.99,2.8-19.42,8.4-25.28,5.6-5.86,12.86-8.8,21.8-8.8,5.31,0,10.08.99,14.34,2.97,4.25,1.98,7.76,5.11,10.53,9.38,2.5,3.77,4.12,8.14,4.86,13.11.43,2.91.6,7.11.53,12.58h-43.66c.23,6.37,2.24,10.83,6.03,13.4,2.3,1.59,5.07,2.39,8.31,2.39,3.43,0,6.22-.97,8.37-2.91,1.17-1.05,2.2-2.5,3.1-4.37h17.03ZM283.47,570.98c-.27-4.39-1.61-7.72-4.01-9.99-2.4-2.27-5.37-3.41-8.92-3.41-3.86,0-6.86,1.2-8.98,3.61-2.13,2.41-3.46,5.67-4.01,9.79h25.92ZM261.82,537.03l11.24-17.42h18.61l-17.79,17.42h-12.06Z"/>
    <path class="cls-1" d="M344.1,560.91c-6.71,0-11.22,2.18-13.52,6.52-1.29,2.45-1.93,6.21-1.93,11.3v30.35h-16.8v-63.49h15.92v11.07c2.57-4.23,4.82-7.13,6.73-8.68,3.12-2.6,7.18-3.9,12.17-3.9.31,0,.58,0,.79.03.21.02.69.05,1.43.09v17.01c-1.05-.12-1.99-.19-2.81-.23-.82-.04-1.48-.06-1.99-.06Z"/>
    <path class="cls-1" d="M375.82,522.7v15.32h-16.91v-15.32h16.91ZM375.82,545.59v63.49h-16.91v-63.49h16.91Z"/>
    <path class="cls-1" d="M427.78,563.06c-1.4-3.07-4.16-4.6-8.25-4.6-4.76,0-7.96,1.53-9.6,4.6-.9,1.75-1.35,4.35-1.35,7.81v38.21h-16.91v-63.37h16.21v9.26c2.07-3.3,4.02-5.65,5.85-7.05,3.24-2.48,7.43-3.73,12.58-3.73,4.88,0,8.82,1.07,11.82,3.2,2.42,1.98,4.25,4.52,5.5,7.63,2.18-3.73,4.9-6.47,8.13-8.21,3.43-1.75,7.26-2.62,11.47-2.62,2.81,0,5.58.54,8.31,1.63,2.73,1.09,5.21,2.99,7.43,5.71,1.79,2.21,3,4.93,3.63,8.15.39,2.14.59,5.26.59,9.38l-.12,40.02h-17.09v-40.42c0-2.41-.39-4.39-1.17-5.94-1.48-2.95-4.21-4.43-8.19-4.43-4.6,0-7.78,1.9-9.54,5.71-.9,2.02-1.35,4.45-1.35,7.28v37.8h-16.79v-37.8c0-3.77-.39-6.5-1.17-8.21Z"/>
    <path class="cls-1" d="M500.93,552.46c4.41-5.59,11.98-8.39,22.71-8.39,6.98,0,13.19,1.38,18.61,4.14,5.42,2.76,8.13,7.96,8.13,15.61v29.12c0,2.02.04,4.47.12,7.34.12,2.18.45,3.65.99,4.43.55.78,1.37,1.42,2.46,1.92v2.45h-18.14c-.51-1.28-.86-2.48-1.05-3.61-.2-1.13-.35-2.41-.47-3.84-2.3,2.49-4.96,4.6-7.96,6.35-3.59,2.06-7.65,3.09-12.17,3.09-5.77,0-10.54-1.64-14.31-4.92-3.77-3.28-5.65-7.93-5.65-13.95,0-7.81,3.02-13.46,9.07-16.95,3.32-1.9,8.19-3.26,14.63-4.08l5.68-.7c3.08-.39,5.29-.87,6.61-1.46,2.38-1.01,3.57-2.58,3.57-4.72,0-2.6-.91-4.4-2.72-5.39-1.81-.99-4.48-1.49-7.99-1.49-3.94,0-6.73.97-8.37,2.91-1.17,1.44-1.95,3.38-2.34,5.82h-16.09c.35-5.55,1.91-10.12,4.68-13.69ZM513.34,597.08c1.56,1.28,3.47,1.92,5.73,1.92,3.59,0,6.9-1.05,9.92-3.15,3.02-2.1,4.59-5.92,4.71-11.47v-6.17c-1.05.66-2.12,1.19-3.19,1.6-1.07.41-2.55.79-4.42,1.14l-3.75.7c-3.51.62-6.03,1.38-7.55,2.27-2.57,1.51-3.86,3.86-3.86,7.05,0,2.83.8,4.87,2.4,6.12Z"/>
    <path class="cls-1" d="M582.33,522.7v15.32h-16.91v-15.32h16.91ZM582.33,545.59v63.49h-16.91v-63.49h16.91Z"/>
    <path class="cls-1" d="M630.55,560.91c-6.71,0-11.22,2.18-13.52,6.52-1.29,2.45-1.93,6.21-1.93,11.3v30.35h-16.8v-63.49h15.92v11.07c2.57-4.23,4.82-7.13,6.73-8.68,3.12-2.6,7.18-3.9,12.17-3.9.31,0,.58,0,.79.03.21.02.69.05,1.43.09v17.01c-1.05-.12-1.99-.19-2.81-.23-.82-.04-1.48-.06-1.99-.06Z"/>
    <path class="cls-1" d="M699.72,590.44c-.43,3.77-2.4,7.59-5.91,11.47-5.46,6.17-13.11,9.26-22.94,9.26-8.12,0-15.27-2.6-21.48-7.8-6.2-5.2-9.3-13.67-9.3-25.4,0-10.99,2.8-19.42,8.4-25.28,5.6-5.86,12.86-8.8,21.8-8.8,5.31,0,10.08.99,14.34,2.97,4.25,1.98,7.76,5.11,10.53,9.38,2.5,3.77,4.12,8.14,4.86,13.11.43,2.91.6,7.11.53,12.58h-43.66c.23,6.37,2.24,10.83,6.03,13.4,2.3,1.59,5.07,2.39,8.31,2.39,3.43,0,6.22-.97,8.37-2.91,1.17-1.05,2.2-2.5,3.1-4.37h17.03ZM683.22,570.98c-.27-4.39-1.61-7.72-4.01-9.99-2.4-2.27-5.37-3.41-8.92-3.41-3.86,0-6.86,1.2-8.98,3.61-2.13,2.41-3.46,5.67-4.01,9.79h25.92Z"/>
  </g>
  <g>
    <path class="cls-1" d="M100.31,1105.11h18.02v70.42h42.72v15.44h-60.74v-85.86Z"/>
    <path class="cls-1" d="M225.37,1135.51c5.38,6.72,8.08,14.66,8.08,23.82s-2.69,17.29-8.08,23.91c-5.38,6.62-13.56,9.93-24.52,9.93s-19.14-3.31-24.52-9.93c-5.38-6.62-8.08-14.59-8.08-23.91s2.69-17.1,8.08-23.82c5.38-6.72,13.56-10.08,24.52-10.08s19.14,3.36,24.52,10.08ZM200.79,1139.47c-4.88,0-8.63,1.72-11.26,5.15-2.63,3.44-3.95,8.34-3.95,14.71s1.32,11.28,3.95,14.74c2.63,3.46,6.39,5.18,11.26,5.18s8.62-1.73,11.24-5.18c2.61-3.46,3.92-8.37,3.92-14.74s-1.31-11.27-3.92-14.71c-2.61-3.44-6.36-5.15-11.24-5.15Z"/>
    <path class="cls-1" d="M263.4,1202.09c1.79,1.51,4.82,2.27,9.07,2.27,6.01,0,10.03-2,12.06-6,1.33-2.56,1.99-6.87,1.99-12.93v-4.08c-1.6,2.72-3.32,4.76-5.15,6.12-3.32,2.52-7.63,3.79-12.93,3.79-8.19,0-14.74-2.86-19.63-8.59-4.9-5.73-7.34-13.48-7.34-23.27s2.36-17.37,7.08-23.79c4.72-6.43,11.41-9.64,20.07-9.64,3.2,0,5.99.49,8.37,1.46,4.06,1.67,7.33,4.74,9.83,9.2v-9.15h16.21v60.23c0,8.19-1.39,14.37-4.15,18.52-4.76,7.14-13.89,10.72-27.39,10.72-8.15,0-14.81-1.59-19.96-4.78-5.15-3.18-8-7.94-8.54-14.27h18.14c.47,1.94,1.23,3.34,2.28,4.19ZM260.59,1169.3c2.26,5.36,6.32,8.04,12.17,8.04,3.9,0,7.2-1.47,9.89-4.4,2.69-2.93,4.04-7.6,4.04-14.01,0-6.02-1.28-10.6-3.83-13.75-2.56-3.15-5.98-4.72-10.27-4.72-5.85,0-9.89,2.74-12.11,8.21-1.17,2.91-1.76,6.5-1.76,10.78,0,3.69.62,6.97,1.87,9.84Z"/>
    <path class="cls-1" d="M335.73,1104.58v15.32h-16.91v-15.32h16.91ZM335.73,1127.48v63.49h-16.91v-63.49h16.91Z"/>
    <path class="cls-1" d="M395.83,1130.39c4.99,3.18,7.86,8.66,8.6,16.43h-16.68c-.23-2.14-.84-3.82-1.81-5.07-1.83-2.25-4.96-3.38-9.36-3.38-3.63,0-6.21.56-7.75,1.69-1.54,1.13-2.31,2.45-2.31,3.96,0,1.9.82,3.28,2.46,4.14,1.64.89,7.43,2.43,17.38,4.6,6.63,1.55,11.61,3.9,14.92,7.05,3.28,3.18,4.92,7.16,4.92,11.94,0,6.29-2.35,11.43-7.05,15.41-4.7,3.98-11.97,5.97-21.8,5.97s-17.43-2.11-22.21-6.32c-4.78-4.21-7.17-9.58-7.17-16.11h16.91c.35,2.95,1.11,5.05,2.28,6.29,2.07,2.21,5.89,3.32,11.47,3.32,3.28,0,5.88-.49,7.81-1.46,1.93-.97,2.9-2.43,2.9-4.37s-.78-3.28-2.34-4.25c-1.56-.97-7.35-2.64-17.38-5.01-7.22-1.79-12.31-4.02-15.27-6.7-2.97-2.64-4.45-6.45-4.45-11.42,0-5.86,2.31-10.9,6.93-15.12,4.62-4.21,11.13-6.32,19.52-6.32s14.45,1.57,19.49,4.72Z"/>
    <path class="cls-1" d="M447.74,1179.14v12.41l-7.9.29c-7.88.27-13.26-1.09-16.15-4.08-1.87-1.9-2.81-4.83-2.81-8.8v-39.08h-8.9v-11.82h8.9v-17.71h16.5v17.71h10.36v11.82h-10.36v33.55c0,2.6.33,4.22.99,4.86.66.64,2.69.96,6.09.96.51,0,1.04,0,1.61-.03.56-.02,1.12-.05,1.67-.09Z"/>
    <path class="cls-1" d="M475.59,1104.58v15.32h-16.91v-15.32h16.91ZM475.59,1127.48v63.49h-16.91v-63.49h16.91Z"/>
    <path class="cls-1" d="M546.93,1150.25h-17.09c-.31-2.37-1.11-4.5-2.4-6.41-1.87-2.56-4.78-3.84-8.72-3.84-5.62,0-9.46,2.78-11.53,8.33-1.09,2.95-1.64,6.87-1.64,11.77s.55,8.41,1.64,11.24c1.99,5.28,5.73,7.92,11.24,7.92,3.9,0,6.67-1.05,8.31-3.15,1.64-2.1,2.63-4.81,2.98-8.15h17.03c-.39,5.05-2.22,9.82-5.5,14.33-5.23,7.26-12.97,10.89-23.23,10.89s-17.81-3.03-22.65-9.09c-4.84-6.06-7.26-13.92-7.26-23.59,0-10.91,2.67-19.4,8.02-25.45,5.34-6.06,12.72-9.09,22.12-9.09,8,0,14.54,1.79,19.63,5.36,5.09,3.57,8.1,9.88,9.04,18.93Z"/>
    <path class="cls-1" d="M575.55,1104.58v15.32h-16.91v-15.32h16.91ZM575.55,1127.48v63.49h-16.91v-63.49h16.91Z"/>
    <path class="cls-1" d="M646.3,1172.33c-.43,3.77-2.4,7.59-5.91,11.47-5.46,6.17-13.11,9.26-22.94,9.26-8.12,0-15.27-2.6-21.48-7.8-6.2-5.2-9.3-13.67-9.3-25.4,0-10.99,2.8-19.42,8.4-25.28,5.6-5.86,12.86-8.8,21.8-8.8,5.31,0,10.08.99,14.34,2.97,4.25,1.98,7.76,5.11,10.53,9.38,2.5,3.77,4.12,8.14,4.86,13.11.43,2.91.6,7.11.53,12.58h-43.66c.23,6.37,2.24,10.83,6.03,13.4,2.3,1.59,5.07,2.39,8.31,2.39,3.43,0,6.22-.97,8.37-2.91,1.17-1.05,2.2-2.5,3.1-4.37h17.03ZM629.79,1152.87c-.27-4.39-1.61-7.72-4.01-9.99-2.4-2.27-5.37-3.41-8.92-3.41-3.86,0-6.86,1.2-8.98,3.61-2.13,2.41-3.46,5.67-4.01,9.79h25.92Z"/>
    <path class="cls-1" d="M688.37,1139.77c-5.66,0-9.54,2.39-11.65,7.16-1.09,2.52-1.64,5.75-1.64,9.67v34.37h-16.62v-63.37h16.09v9.26c2.15-3.26,4.17-5.61,6.09-7.05,3.43-2.56,7.78-3.84,13.05-3.84,6.59,0,11.99,1.72,16.18,5.15,4.19,3.44,6.29,9.14,6.29,17.1v42.75h-17.09v-38.62c0-3.34-.45-5.9-1.35-7.69-1.64-3.26-4.76-4.89-9.36-4.89Z"/>
    <path class="cls-1" d="M797.51,1178.56c4.25,0,7.7-.47,10.36-1.4,5.03-1.79,7.55-5.11,7.55-9.96,0-2.83-1.25-5.03-3.75-6.58-2.5-1.51-6.42-2.85-11.76-4.02l-9.13-2.04c-8.97-2.02-15.18-4.21-18.61-6.58-5.81-3.96-8.72-10.15-8.72-18.58,0-7.69,2.81-14.08,8.43-19.16,5.62-5.09,13.87-7.63,24.75-7.63,9.09,0,16.84,2.4,23.26,7.19,6.42,4.8,9.78,11.76,10.09,20.88h-17.32c-.31-5.16-2.57-8.83-6.79-11.01-2.81-1.44-6.3-2.16-10.48-2.16-4.64,0-8.35.93-11.12,2.8-2.77,1.86-4.15,4.47-4.15,7.81,0,3.07,1.37,5.36,4.1,6.87,1.76,1.01,5.5,2.19,11.24,3.55l14.86,3.55c6.51,1.55,11.43,3.63,14.75,6.23,5.15,4.04,7.72,9.88,7.72,17.53s-3.01,14.36-9.04,19.54c-6.03,5.18-14.54,7.78-25.54,7.78s-20.07-2.55-26.51-7.66c-6.44-5.11-9.66-12.12-9.66-21.06h17.2c.55,3.92,1.62,6.85,3.22,8.8,2.93,3.53,7.94,5.3,15.04,5.3Z"/>
    <path class="cls-1" d="M883.3,1190.97h-37.16v-85.86h37.16c5.34.08,9.79.7,13.34,1.86,6.05,1.98,10.94,5.61,14.69,10.89,3,4.27,5.05,8.89,6.14,13.86,1.09,4.97,1.64,9.71,1.64,14.21,0,11.42-2.3,21.09-6.91,29.01-6.24,10.68-15.88,16.02-28.91,16.02ZM896.7,1127.01c-2.77-4.66-8.25-6.99-16.44-6.99h-16.62v56.03h16.62c8.5,0,14.43-4.17,17.79-12.52,1.83-4.58,2.75-10.04,2.75-16.37,0-8.74-1.37-15.45-4.1-20.15Z"/>
    <path class="cls-1" d="M931.29,1105.11h17.91v85.86h-17.91v-85.86Z"/>
    <path class="cls-1" d="M997.3,1178.56c4.25,0,7.7-.47,10.36-1.4,5.03-1.79,7.55-5.11,7.55-9.96,0-2.83-1.25-5.03-3.75-6.58-2.5-1.51-6.42-2.85-11.76-4.02l-9.13-2.04c-8.97-2.02-15.18-4.21-18.61-6.58-5.81-3.96-8.72-10.15-8.72-18.58,0-7.69,2.81-14.08,8.43-19.16,5.62-5.09,13.87-7.63,24.75-7.63,9.09,0,16.84,2.4,23.26,7.19,6.42,4.8,9.78,11.76,10.09,20.88h-17.32c-.31-5.16-2.57-8.83-6.79-11.01-2.81-1.44-6.3-2.16-10.48-2.16-4.64,0-8.35.93-11.12,2.8-2.77,1.86-4.15,4.47-4.15,7.81,0,3.07,1.37,5.36,4.1,6.87,1.76,1.01,5.5,2.19,11.24,3.55l14.86,3.55c6.51,1.55,11.43,3.63,14.75,6.23,5.15,4.04,7.72,9.88,7.72,17.53s-3.01,14.36-9.04,19.54c-6.03,5.18-14.54,7.78-25.54,7.78s-20.07-2.55-26.51-7.66c-6.44-5.11-9.66-12.12-9.66-21.06h17.2c.55,3.92,1.62,6.85,3.22,8.8,2.93,3.53,7.94,5.3,15.04,5.3Z"/>
  </g>
  <g>
    <path class="cls-1" d="M137.47,1384.93h-37.16v-85.86h37.16c5.34.08,9.79.7,13.34,1.86,6.05,1.98,10.94,5.61,14.69,10.89,3,4.27,5.05,8.89,6.14,13.86,1.09,4.97,1.64,9.71,1.64,14.21,0,11.42-2.3,21.09-6.91,29.01-6.24,10.68-15.88,16.02-28.91,16.02ZM150.87,1320.97c-2.77-4.66-8.25-6.99-16.44-6.99h-16.62v56.03h16.62c8.5,0,14.43-4.17,17.79-12.52,1.83-4.58,2.75-10.04,2.75-16.37,0-8.74-1.37-15.45-4.1-20.15Z"/>
    <path class="cls-1" d="M240.11,1366.29c-.43,3.77-2.4,7.59-5.91,11.47-5.46,6.17-13.11,9.26-22.94,9.26-8.12,0-15.27-2.6-21.48-7.8-6.2-5.2-9.3-13.67-9.3-25.4,0-10.99,2.8-19.42,8.4-25.28,5.6-5.86,12.86-8.8,21.8-8.8,5.31,0,10.08.99,14.34,2.97,4.25,1.98,7.76,5.11,10.53,9.38,2.5,3.77,4.12,8.14,4.86,13.11.43,2.91.6,7.11.53,12.58h-43.66c.23,6.37,2.24,10.83,6.03,13.4,2.3,1.59,5.07,2.39,8.31,2.39,3.43,0,6.22-.97,8.37-2.91,1.17-1.05,2.2-2.5,3.1-4.37h17.03ZM223.61,1346.83c-.27-4.39-1.61-7.72-4.01-9.99-2.4-2.27-5.37-3.41-8.92-3.41-3.86,0-6.86,1.2-8.98,3.61-2.13,2.41-3.46,5.67-4.01,9.79h25.92ZM201.96,1312.88l11.24-17.42h18.61l-17.79,17.42h-12.06Z"/>
    <path class="cls-1" d="M287.98,1338.91c-1.4-3.07-4.16-4.6-8.25-4.6-4.76,0-7.96,1.53-9.6,4.6-.9,1.75-1.35,4.35-1.35,7.81v38.21h-16.91v-63.37h16.21v9.26c2.07-3.3,4.02-5.65,5.85-7.05,3.24-2.48,7.43-3.73,12.58-3.73,4.88,0,8.82,1.07,11.82,3.2,2.42,1.98,4.25,4.52,5.5,7.63,2.18-3.73,4.9-6.47,8.13-8.21,3.43-1.75,7.26-2.62,11.47-2.62,2.81,0,5.58.54,8.31,1.63,2.73,1.09,5.21,2.99,7.43,5.71,1.79,2.21,3,4.93,3.63,8.15.39,2.14.59,5.26.59,9.38l-.12,40.02h-17.09v-40.42c0-2.41-.39-4.39-1.17-5.94-1.48-2.95-4.21-4.43-8.19-4.43-4.6,0-7.78,1.9-9.54,5.71-.9,2.02-1.35,4.45-1.35,7.28v37.8h-16.79v-37.8c0-3.77-.39-6.5-1.17-8.21Z"/>
    <path class="cls-1" d="M413.33,1366.29c-.43,3.77-2.4,7.59-5.91,11.47-5.46,6.17-13.11,9.26-22.94,9.26-8.12,0-15.27-2.6-21.48-7.8-6.2-5.2-9.3-13.67-9.3-25.4,0-10.99,2.8-19.42,8.4-25.28,5.6-5.86,12.86-8.8,21.8-8.8,5.31,0,10.08.99,14.34,2.97,4.25,1.98,7.76,5.11,10.53,9.38,2.5,3.77,4.12,8.14,4.86,13.11.43,2.91.6,7.11.53,12.58h-43.66c.23,6.37,2.24,10.83,6.03,13.4,2.3,1.59,5.07,2.39,8.31,2.39,3.43,0,6.22-.97,8.37-2.91,1.17-1.05,2.2-2.5,3.1-4.37h17.03ZM396.83,1346.83c-.27-4.39-1.61-7.72-4.01-9.99-2.4-2.27-5.37-3.41-8.92-3.41-3.86,0-6.86,1.2-8.98,3.61-2.13,2.41-3.46,5.67-4.01,9.79h25.92ZM375.18,1312.88l11.24-17.42h18.61l-17.79,17.42h-12.06Z"/>
    <path class="cls-1" d="M455.41,1333.73c-5.66,0-9.54,2.39-11.65,7.16-1.09,2.52-1.64,5.75-1.64,9.67v34.37h-16.62v-63.37h16.09v9.26c2.15-3.26,4.17-5.61,6.09-7.05,3.43-2.56,7.78-3.84,13.05-3.84,6.59,0,11.99,1.72,16.18,5.15,4.19,3.44,6.29,9.14,6.29,17.1v42.75h-17.09v-38.62c0-3.34-.45-5.9-1.35-7.69-1.64-3.26-4.76-4.89-9.36-4.89Z"/>
    <path class="cls-1" d="M500.99,1328.31c4.41-5.59,11.98-8.39,22.71-8.39,6.98,0,13.19,1.38,18.61,4.14,5.42,2.76,8.13,7.96,8.13,15.61v29.12c0,2.02.04,4.47.12,7.34.12,2.18.45,3.65.99,4.43.55.78,1.37,1.42,2.46,1.92v2.45h-18.14c-.51-1.28-.86-2.48-1.05-3.61-.2-1.13-.35-2.41-.47-3.84-2.3,2.49-4.96,4.6-7.96,6.35-3.59,2.06-7.65,3.09-12.17,3.09-5.77,0-10.54-1.64-14.31-4.92-3.77-3.28-5.65-7.93-5.65-13.95,0-7.81,3.02-13.46,9.07-16.95,3.32-1.9,8.19-3.26,14.63-4.08l5.68-.7c3.08-.39,5.29-.87,6.61-1.46,2.38-1.01,3.57-2.58,3.57-4.72,0-2.6-.91-4.4-2.72-5.39-1.81-.99-4.48-1.49-7.99-1.49-3.94,0-6.73.97-8.37,2.91-1.17,1.44-1.95,3.38-2.34,5.82h-16.09c.35-5.55,1.91-10.12,4.68-13.69ZM513.4,1372.93c1.56,1.28,3.47,1.92,5.73,1.92,3.59,0,6.9-1.05,9.92-3.15,3.02-2.1,4.59-5.92,4.71-11.47v-6.17c-1.05.66-2.12,1.19-3.19,1.6-1.07.41-2.55.79-4.42,1.14l-3.75.7c-3.51.62-6.03,1.38-7.55,2.27-2.57,1.51-3.86,3.86-3.86,7.05,0,2.83.8,4.87,2.4,6.12Z"/>
    <path class="cls-1" d="M583.27,1396.05c1.79,1.51,4.82,2.27,9.07,2.27,6.01,0,10.03-2,12.06-6,1.33-2.56,1.99-6.87,1.99-12.93v-4.08c-1.6,2.72-3.32,4.76-5.15,6.12-3.32,2.52-7.63,3.79-12.93,3.79-8.19,0-14.74-2.86-19.63-8.59-4.9-5.73-7.34-13.48-7.34-23.27s2.36-17.37,7.08-23.79c4.72-6.43,11.41-9.64,20.07-9.64,3.2,0,5.99.49,8.37,1.46,4.06,1.67,7.33,4.74,9.83,9.2v-9.15h16.21v60.23c0,8.19-1.39,14.37-4.15,18.52-4.76,7.14-13.89,10.72-27.39,10.72-8.15,0-14.81-1.59-19.96-4.78-5.15-3.18-8-7.94-8.54-14.27h18.14c.47,1.94,1.23,3.34,2.28,4.19ZM580.46,1363.26c2.26,5.36,6.32,8.04,12.17,8.04,3.9,0,7.2-1.47,9.89-4.4,2.69-2.93,4.04-7.6,4.04-14.01,0-6.02-1.28-10.6-3.83-13.75-2.56-3.15-5.98-4.72-10.27-4.72-5.85,0-9.89,2.74-12.11,8.21-1.17,2.91-1.76,6.5-1.76,10.78,0,3.69.62,6.97,1.87,9.84Z"/>
    <path class="cls-1" d="M693.05,1366.29c-.43,3.77-2.4,7.59-5.91,11.47-5.46,6.17-13.11,9.26-22.94,9.26-8.12,0-15.27-2.6-21.48-7.8-6.2-5.2-9.3-13.67-9.3-25.4,0-10.99,2.8-19.42,8.4-25.28,5.6-5.86,12.86-8.8,21.8-8.8,5.31,0,10.08.99,14.34,2.97,4.25,1.98,7.76,5.11,10.53,9.38,2.5,3.77,4.12,8.14,4.86,13.11.43,2.91.6,7.11.53,12.58h-43.66c.23,6.37,2.24,10.83,6.03,13.4,2.3,1.59,5.07,2.39,8.31,2.39,3.43,0,6.22-.97,8.37-2.91,1.17-1.05,2.2-2.5,3.1-4.37h17.03ZM676.55,1346.83c-.27-4.39-1.61-7.72-4.01-9.99-2.4-2.27-5.37-3.41-8.92-3.41-3.86,0-6.86,1.2-8.98,3.61-2.13,2.41-3.46,5.67-4.01,9.79h25.92Z"/>
    <path class="cls-1" d="M746.01,1375.96c-.16.19-.55.78-1.17,1.75-.62.97-1.37,1.83-2.22,2.56-2.61,2.33-5.14,3.92-7.58,4.78-2.44.85-5.3,1.28-8.57,1.28-9.44,0-15.8-3.38-19.08-10.14-1.83-3.73-2.75-9.22-2.75-16.48v-38.27h17.09v38.27c0,3.61.43,6.33,1.29,8.15,1.52,3.22,4.51,4.83,8.95,4.83,5.7,0,9.6-2.29,11.7-6.87,1.09-2.48,1.64-5.77,1.64-9.84v-34.54h16.91v63.49h-16.21v-8.97Z"/>
    <path class="cls-1" d="M810.38,1336.76c-6.71,0-11.22,2.18-13.52,6.52-1.29,2.45-1.93,6.21-1.93,11.3v30.35h-16.8v-63.49h15.92v11.07c2.57-4.23,4.82-7.13,6.73-8.68,3.12-2.6,7.18-3.9,12.17-3.9.31,0,.58,0,.79.03.21.02.69.05,1.43.09v17.01c-1.05-.12-1.99-.19-2.81-.23-.82-.04-1.48-.06-1.99-.06Z"/>
  </g>
  <g>
    <path class="cls-1" d="M161.17,990.6c-6.44,5.86-14.67,8.8-24.7,8.8-12.41,0-22.16-3.96-29.26-11.88-7.1-7.96-10.65-18.87-10.65-32.74,0-14.99,4.04-26.54,12.11-34.66,7.02-7.07,15.96-10.6,26.8-10.6,14.51,0,25.12,4.74,31.83,14.21,3.71,5.32,5.7,10.66,5.97,16.02h-18.02c-1.17-4.12-2.67-7.22-4.51-9.32-3.28-3.73-8.13-5.59-14.57-5.59s-11.72,2.63-15.51,7.89c-3.78,5.26-5.68,12.71-5.68,22.34s2,16.84,6,21.64c4,4.8,9.08,7.19,15.24,7.19s11.14-2.06,14.45-6.17c1.83-2.21,3.35-5.53,4.56-9.96h17.85c-1.56,9.36-5.54,16.97-11.94,22.83Z"/>
    <path class="cls-1" d="M238.71,941.55c5.38,6.72,8.08,14.66,8.08,23.82s-2.69,17.29-8.08,23.91c-5.38,6.62-13.56,9.93-24.52,9.93s-19.14-3.31-24.52-9.93c-5.38-6.62-8.08-14.59-8.08-23.91s2.69-17.1,8.08-23.82c5.38-6.72,13.56-10.08,24.52-10.08s19.14,3.36,24.52,10.08ZM214.13,945.51c-4.88,0-8.63,1.72-11.26,5.15-2.63,3.44-3.95,8.34-3.95,14.71s1.32,11.28,3.95,14.74c2.63,3.46,6.39,5.18,11.26,5.18s8.62-1.73,11.24-5.18c2.61-3.46,3.92-8.37,3.92-14.74s-1.31-11.27-3.92-14.71c-2.61-3.44-6.36-5.15-11.24-5.15Z"/>
    <path class="cls-1" d="M294.54,950.99c-1.4-3.07-4.16-4.6-8.25-4.6-4.76,0-7.96,1.53-9.6,4.6-.9,1.75-1.35,4.35-1.35,7.81v38.21h-16.91v-63.37h16.21v9.26c2.07-3.3,4.02-5.65,5.85-7.05,3.24-2.48,7.43-3.73,12.58-3.73,4.88,0,8.82,1.07,11.82,3.2,2.42,1.98,4.25,4.52,5.5,7.63,2.18-3.73,4.9-6.47,8.13-8.21,3.43-1.75,7.26-2.62,11.47-2.62,2.81,0,5.58.54,8.31,1.63,2.73,1.09,5.21,2.99,7.43,5.71,1.79,2.21,3,4.93,3.63,8.15.39,2.14.59,5.26.59,9.38l-.12,40.02h-17.09v-40.42c0-2.41-.39-4.39-1.17-5.94-1.48-2.95-4.21-4.43-8.19-4.43-4.6,0-7.78,1.9-9.54,5.71-.9,2.02-1.35,4.45-1.35,7.28v37.8h-16.79v-37.8c0-3.77-.39-6.5-1.17-8.21Z"/>
    <path class="cls-1" d="M418.71,940.33c5.15,5.48,7.72,13.51,7.72,24.11,0,11.18-2.53,19.71-7.58,25.57-5.05,5.86-11.56,8.8-19.52,8.8-5.07,0-9.29-1.26-12.64-3.79-1.83-1.4-3.63-3.44-5.38-6.12v33.08h-16.5v-88.48h15.98v9.38c1.79-2.76,3.71-4.93,5.74-6.52,3.71-2.83,8.11-4.25,13.23-4.25,7.45,0,13.77,2.74,18.96,8.21ZM409.23,965.26c0-4.89-1.12-9.22-3.37-12.99-2.24-3.77-5.88-5.65-10.91-5.65-6.05,0-10.2,2.85-12.46,8.56-1.17,3.03-1.76,6.87-1.76,11.53,0,7.38,1.97,12.56,5.91,15.55,2.34,1.75,5.11,2.62,8.31,2.62,4.64,0,8.18-1.79,10.62-5.36,2.44-3.57,3.66-8.33,3.66-14.27Z"/>
    <path class="cls-1" d="M491.69,941.55c5.38,6.72,8.08,14.66,8.08,23.82s-2.69,17.29-8.08,23.91c-5.38,6.62-13.56,9.93-24.52,9.93s-19.14-3.31-24.52-9.93c-5.38-6.62-8.08-14.59-8.08-23.91s2.69-17.1,8.08-23.82c5.38-6.72,13.56-10.08,24.52-10.08s19.14,3.36,24.52,10.08ZM467.11,945.51c-4.88,0-8.63,1.72-11.26,5.15-2.63,3.44-3.95,8.34-3.95,14.71s1.32,11.28,3.95,14.74c2.63,3.46,6.39,5.18,11.26,5.18s8.62-1.73,11.24-5.18c2.61-3.46,3.92-8.37,3.92-14.74s-1.31-11.27-3.92-14.71c-2.61-3.44-6.36-5.15-11.24-5.15Z"/>
    <path class="cls-1" d="M555.65,936.43c4.99,3.18,7.86,8.66,8.6,16.43h-16.68c-.23-2.14-.84-3.82-1.81-5.07-1.83-2.25-4.96-3.38-9.36-3.38-3.63,0-6.21.56-7.75,1.69-1.54,1.13-2.31,2.45-2.31,3.96,0,1.9.82,3.28,2.46,4.14,1.64.89,7.43,2.43,17.38,4.6,6.63,1.55,11.61,3.9,14.92,7.05,3.28,3.18,4.92,7.16,4.92,11.94,0,6.29-2.35,11.43-7.05,15.41-4.7,3.98-11.97,5.97-21.8,5.97s-17.43-2.11-22.21-6.32c-4.78-4.21-7.17-9.58-7.17-16.11h16.91c.35,2.95,1.11,5.05,2.28,6.29,2.07,2.21,5.89,3.32,11.47,3.32,3.28,0,5.88-.49,7.81-1.46,1.93-.97,2.9-2.43,2.9-4.37s-.78-3.28-2.34-4.25c-1.56-.97-7.35-2.64-17.38-5.01-7.22-1.79-12.31-4.02-15.27-6.7-2.97-2.64-4.45-6.45-4.45-11.42,0-5.86,2.31-10.9,6.93-15.12,4.62-4.21,11.13-6.32,19.52-6.32s14.45,1.57,19.49,4.72Z"/>
    <path class="cls-1" d="M595.5,910.62v15.32h-16.91v-15.32h16.91ZM595.5,933.51v63.49h-16.91v-63.49h16.91Z"/>
    <path class="cls-1" d="M640.85,985.18v12.41l-7.9.29c-7.88.27-13.26-1.09-16.15-4.08-1.87-1.9-2.81-4.83-2.81-8.8v-39.08h-8.9v-11.82h8.9v-17.71h16.5v17.71h10.36v11.82h-10.36v33.55c0,2.6.33,4.22.99,4.86.66.64,2.69.96,6.09.96.51,0,1.04,0,1.61-.03.56-.02,1.12-.05,1.67-.09Z"/>
    <path class="cls-1" d="M706.16,978.36c-.43,3.77-2.4,7.59-5.91,11.47-5.46,6.17-13.11,9.26-22.94,9.26-8.12,0-15.27-2.6-21.48-7.8-6.2-5.2-9.3-13.67-9.3-25.4,0-10.99,2.8-19.42,8.4-25.28,5.6-5.86,12.86-8.8,21.8-8.8,5.31,0,10.08.99,14.34,2.97,4.25,1.98,7.76,5.11,10.53,9.38,2.5,3.77,4.12,8.14,4.86,13.11.43,2.91.6,7.11.53,12.58h-43.66c.23,6.37,2.24,10.83,6.03,13.4,2.3,1.59,5.07,2.39,8.31,2.39,3.43,0,6.22-.97,8.37-2.91,1.17-1.05,2.2-2.5,3.1-4.37h17.03ZM689.66,958.91c-.27-4.39-1.61-7.72-4.01-9.99-2.4-2.27-5.37-3.41-8.92-3.41-3.86,0-6.86,1.2-8.98,3.61-2.13,2.41-3.46,5.67-4.01,9.79h25.92Z"/>
    <path class="cls-1" d="M759.12,988.03c-.16.19-.55.78-1.17,1.75-.62.97-1.37,1.83-2.22,2.56-2.61,2.33-5.14,3.92-7.58,4.78-2.44.85-5.3,1.28-8.57,1.28-9.44,0-15.8-3.38-19.08-10.14-1.83-3.73-2.75-9.22-2.75-16.48v-38.27h17.09v38.27c0,3.61.43,6.33,1.29,8.15,1.52,3.22,4.51,4.83,8.95,4.83,5.7,0,9.6-2.29,11.7-6.87,1.09-2.48,1.64-5.77,1.64-9.84v-34.54h16.91v63.49h-16.21v-8.97Z"/>
    <path class="cls-1" d="M823.49,948.83c-6.71,0-11.22,2.18-13.52,6.52-1.29,2.45-1.93,6.21-1.93,11.3v30.35h-16.8v-63.49h15.92v11.07c2.57-4.23,4.82-7.13,6.73-8.68,3.12-2.6,7.18-3.9,12.17-3.9.31,0,.58,0,.79.03.21.02.69.05,1.43.09v17.01c-1.05-.12-1.99-.19-2.81-.23-.82-.04-1.48-.06-1.99-.06Z"/>
  </g>
  <g>
    <path class="cls-1" d="M161.17,1572.48c-6.44,5.86-14.67,8.8-24.7,8.8-12.41,0-22.16-3.96-29.26-11.88-7.1-7.96-10.65-18.87-10.65-32.74,0-14.99,4.04-26.54,12.11-34.66,7.02-7.07,15.96-10.6,26.8-10.6,14.51,0,25.12,4.74,31.83,14.21,3.71,5.32,5.7,10.66,5.97,16.02h-18.02c-1.17-4.12-2.67-7.22-4.51-9.32-3.28-3.73-8.13-5.59-14.57-5.59s-11.72,2.63-15.51,7.89c-3.78,5.26-5.68,12.71-5.68,22.34s2,16.84,6,21.64c4,4.8,9.08,7.19,15.24,7.19s11.14-2.06,14.45-6.17c1.83-2.21,3.35-5.53,4.56-9.96h17.85c-1.56,9.36-5.54,16.97-11.94,22.83Z"/>
    <path class="cls-1" d="M238.71,1523.44c5.38,6.72,8.08,14.66,8.08,23.82s-2.69,17.29-8.08,23.91c-5.38,6.62-13.56,9.93-24.52,9.93s-19.14-3.31-24.52-9.93c-5.38-6.62-8.08-14.59-8.08-23.91s2.69-17.1,8.08-23.82c5.38-6.72,13.56-10.08,24.52-10.08s19.14,3.36,24.52,10.08ZM214.13,1527.4c-4.88,0-8.63,1.72-11.26,5.15-2.63,3.44-3.95,8.34-3.95,14.71s1.32,11.28,3.95,14.74c2.63,3.46,6.39,5.18,11.26,5.18s8.62-1.73,11.24-5.18c2.61-3.46,3.92-8.37,3.92-14.74s-1.31-11.27-3.92-14.71c-2.61-3.44-6.36-5.15-11.24-5.15Z"/>
    <path class="cls-1" d="M294.54,1532.88c-1.4-3.07-4.16-4.6-8.25-4.6-4.76,0-7.96,1.53-9.6,4.6-.9,1.75-1.35,4.35-1.35,7.81v38.21h-16.91v-63.37h16.21v9.26c2.07-3.3,4.02-5.65,5.85-7.05,3.24-2.48,7.43-3.73,12.58-3.73,4.88,0,8.82,1.07,11.82,3.2,2.42,1.98,4.25,4.52,5.5,7.63,2.18-3.73,4.9-6.47,8.13-8.21,3.43-1.75,7.26-2.62,11.47-2.62,2.81,0,5.58.54,8.31,1.63,2.73,1.09,5.21,2.99,7.43,5.71,1.79,2.21,3,4.93,3.63,8.15.39,2.14.59,5.26.59,9.38l-.12,40.02h-17.09v-40.42c0-2.41-.39-4.39-1.17-5.94-1.48-2.95-4.21-4.43-8.19-4.43-4.6,0-7.78,1.9-9.54,5.71-.9,2.02-1.35,4.45-1.35,7.28v37.8h-16.79v-37.8c0-3.77-.39-6.5-1.17-8.21Z"/>
    <path class="cls-1" d="M418.71,1522.22c5.15,5.48,7.72,13.51,7.72,24.11,0,11.18-2.53,19.71-7.58,25.57-5.05,5.86-11.56,8.8-19.52,8.8-5.07,0-9.29-1.26-12.64-3.79-1.83-1.4-3.63-3.44-5.38-6.12v33.08h-16.5v-88.48h15.98v9.38c1.79-2.76,3.71-4.93,5.74-6.52,3.71-2.83,8.11-4.25,13.23-4.25,7.45,0,13.77,2.74,18.96,8.21ZM409.23,1547.15c0-4.89-1.12-9.22-3.37-12.99-2.24-3.77-5.88-5.65-10.91-5.65-6.05,0-10.2,2.85-12.46,8.56-1.17,3.03-1.76,6.87-1.76,11.53,0,7.38,1.97,12.56,5.91,15.55,2.34,1.75,5.11,2.62,8.31,2.62,4.64,0,8.18-1.79,10.62-5.36,2.44-3.57,3.66-8.33,3.66-14.27Z"/>
    <path class="cls-1" d="M491.69,1523.44c5.38,6.72,8.08,14.66,8.08,23.82s-2.69,17.29-8.08,23.91c-5.38,6.62-13.56,9.93-24.52,9.93s-19.14-3.31-24.52-9.93c-5.38-6.62-8.08-14.59-8.08-23.91s2.69-17.1,8.08-23.82c5.38-6.72,13.56-10.08,24.52-10.08s19.14,3.36,24.52,10.08ZM467.11,1527.4c-4.88,0-8.63,1.72-11.26,5.15-2.63,3.44-3.95,8.34-3.95,14.71s1.32,11.28,3.95,14.74c2.63,3.46,6.39,5.18,11.26,5.18s8.62-1.73,11.24-5.18c2.61-3.46,3.92-8.37,3.92-14.74s-1.31-11.27-3.92-14.71c-2.61-3.44-6.36-5.15-11.24-5.15Z"/>
    <path class="cls-1" d="M555.65,1518.31c4.99,3.18,7.86,8.66,8.6,16.43h-16.68c-.23-2.14-.84-3.82-1.81-5.07-1.83-2.25-4.96-3.38-9.36-3.38-3.63,0-6.21.56-7.75,1.69-1.54,1.13-2.31,2.45-2.31,3.96,0,1.9.82,3.28,2.46,4.14,1.64.89,7.43,2.43,17.38,4.6,6.63,1.55,11.61,3.9,14.92,7.05,3.28,3.18,4.92,7.16,4.92,11.94,0,6.29-2.35,11.43-7.05,15.41-4.7,3.98-11.97,5.97-21.8,5.97s-17.43-2.11-22.21-6.32c-4.78-4.21-7.17-9.58-7.17-16.11h16.91c.35,2.95,1.11,5.05,2.28,6.29,2.07,2.21,5.89,3.32,11.47,3.32,3.28,0,5.88-.49,7.81-1.46,1.93-.97,2.9-2.43,2.9-4.37s-.78-3.28-2.34-4.25c-1.56-.97-7.35-2.64-17.38-5.01-7.22-1.79-12.31-4.02-15.27-6.7-2.97-2.64-4.45-6.45-4.45-11.42,0-5.86,2.31-10.9,6.93-15.12,4.62-4.21,11.13-6.32,19.52-6.32s14.45,1.57,19.49,4.72Z"/>
    <path class="cls-1" d="M595.5,1492.51v15.32h-16.91v-15.32h16.91ZM595.5,1515.4v63.49h-16.91v-63.49h16.91Z"/>
    <path class="cls-1" d="M640.85,1567.07v12.41l-7.9.29c-7.88.27-13.26-1.09-16.15-4.08-1.87-1.9-2.81-4.83-2.81-8.8v-39.08h-8.9v-11.82h8.9v-17.71h16.5v17.71h10.36v11.82h-10.36v33.55c0,2.6.33,4.22.99,4.86.66.64,2.69.96,6.09.96.51,0,1.04,0,1.61-.03.56-.02,1.12-.05,1.67-.09Z"/>
    <path class="cls-1" d="M706.16,1560.25c-.43,3.77-2.4,7.59-5.91,11.47-5.46,6.17-13.11,9.26-22.94,9.26-8.12,0-15.27-2.6-21.48-7.8-6.2-5.2-9.3-13.67-9.3-25.4,0-10.99,2.8-19.42,8.4-25.28,5.6-5.86,12.86-8.8,21.8-8.8,5.31,0,10.08.99,14.34,2.97,4.25,1.98,7.76,5.11,10.53,9.38,2.5,3.77,4.12,8.14,4.86,13.11.43,2.91.6,7.11.53,12.58h-43.66c.23,6.37,2.24,10.83,6.03,13.4,2.3,1.59,5.07,2.39,8.31,2.39,3.43,0,6.22-.97,8.37-2.91,1.17-1.05,2.2-2.5,3.1-4.37h17.03ZM689.66,1540.8c-.27-4.39-1.61-7.72-4.01-9.99-2.4-2.27-5.37-3.41-8.92-3.41-3.86,0-6.86,1.2-8.98,3.61-2.13,2.41-3.46,5.67-4.01,9.79h25.92Z"/>
    <path class="cls-1" d="M759.12,1569.92c-.16.19-.55.78-1.17,1.75-.62.97-1.37,1.83-2.22,2.56-2.61,2.33-5.14,3.92-7.58,4.78-2.44.85-5.3,1.28-8.57,1.28-9.44,0-15.8-3.38-19.08-10.14-1.83-3.73-2.75-9.22-2.75-16.48v-38.27h17.09v38.27c0,3.61.43,6.33,1.29,8.15,1.52,3.22,4.51,4.83,8.95,4.83,5.7,0,9.6-2.29,11.7-6.87,1.09-2.48,1.64-5.77,1.64-9.84v-34.54h16.91v63.49h-16.21v-8.97Z"/>
    <path class="cls-1" d="M823.49,1530.72c-6.71,0-11.22,2.18-13.52,6.52-1.29,2.45-1.93,6.21-1.93,11.3v30.35h-16.8v-63.49h15.92v11.07c2.57-4.23,4.82-7.13,6.73-8.68,3.12-2.6,7.18-3.9,12.17-3.9.31,0,.58,0,.79.03.21.02.69.05,1.43.09v17.01c-1.05-.12-1.99-.19-2.81-.23-.82-.04-1.48-.06-1.99-.06Z"/>
  </g>
  <g>
    <path class="cls-1" d="M153.21,219.06c-4.76,2.91-10.61,4.37-17.56,4.37-11.43,0-20.79-3.94-28.09-11.82-7.61-7.92-11.41-18.76-11.41-32.5s3.84-25.05,11.53-33.43c7.69-8.39,17.85-12.58,30.49-12.58,10.96,0,19.77,2.77,26.42,8.3,6.65,5.53,10.46,12.44,11.44,20.71h-17.73c-1.37-5.86-4.7-9.96-10.01-12.29-2.97-1.28-6.26-1.92-9.89-1.92-6.94,0-12.65,2.61-17.12,7.83-4.47,5.22-6.7,13.08-6.7,23.56s2.42,18.04,7.26,22.43c4.84,4.39,10.34,6.58,16.5,6.58s11-1.74,14.86-5.21c3.86-3.47,6.24-8.03,7.14-13.66h-19.96v-14.33h35.93v46.07h-11.94l-1.81-10.72c-3.47,4.08-6.59,6.95-9.36,8.62Z"/>
    <path class="cls-1" d="M224.25,172.98c-6.71,0-11.22,2.18-13.52,6.52-1.29,2.45-1.93,6.21-1.93,11.3v30.35h-16.8v-63.49h15.92v11.07c2.57-4.23,4.82-7.13,6.73-8.68,3.12-2.6,7.18-3.9,12.17-3.9.31,0,.58,0,.79.03.21.02.69.05,1.43.09v17.01c-1.05-.12-1.99-.19-2.81-.23-.82-.04-1.48-.06-1.99-.06Z"/>
    <path class="cls-1" d="M241.22,164.54c4.41-5.59,11.98-8.39,22.71-8.39,6.98,0,13.19,1.38,18.61,4.14,5.42,2.76,8.13,7.96,8.13,15.61v29.12c0,2.02.04,4.47.12,7.34.12,2.18.45,3.65.99,4.43.55.78,1.37,1.42,2.46,1.92v2.45h-18.14c-.51-1.28-.86-2.48-1.05-3.61-.2-1.13-.35-2.41-.47-3.84-2.3,2.49-4.96,4.6-7.96,6.35-3.59,2.06-7.65,3.09-12.17,3.09-5.77,0-10.54-1.64-14.31-4.92-3.77-3.28-5.65-7.93-5.65-13.95,0-7.81,3.02-13.46,9.07-16.95,3.32-1.9,8.19-3.26,14.63-4.08l5.68-.7c3.08-.39,5.29-.87,6.61-1.46,2.38-1.01,3.57-2.58,3.57-4.72,0-2.6-.91-4.4-2.72-5.39-1.81-.99-4.48-1.49-7.99-1.49-3.94,0-6.73.97-8.37,2.91-1.17,1.44-1.95,3.38-2.34,5.82h-16.09c.35-5.55,1.91-10.12,4.68-13.69ZM253.63,209.15c1.56,1.28,3.47,1.92,5.73,1.92,3.59,0,6.9-1.05,9.92-3.15,3.02-2.1,4.59-5.92,4.71-11.47v-6.17c-1.05.66-2.12,1.19-3.19,1.6-1.07.41-2.55.79-4.42,1.14l-3.75.7c-3.51.62-6.03,1.38-7.55,2.27-2.57,1.51-3.86,3.86-3.86,7.05,0,2.83.8,4.87,2.4,6.12Z"/>
    <path class="cls-1" d="M358.91,164.48c5.15,5.48,7.72,13.51,7.72,24.11,0,11.18-2.53,19.71-7.58,25.57-5.05,5.86-11.56,8.8-19.52,8.8-5.07,0-9.29-1.26-12.64-3.79-1.83-1.4-3.63-3.44-5.38-6.12v33.08h-16.5v-88.48h15.98v9.38c1.79-2.76,3.71-4.93,5.74-6.52,3.71-2.83,8.11-4.25,13.23-4.25,7.45,0,13.77,2.74,18.96,8.21ZM349.43,189.41c0-4.89-1.12-9.22-3.37-12.99-2.24-3.77-5.88-5.65-10.91-5.65-6.05,0-10.2,2.85-12.46,8.56-1.17,3.03-1.76,6.87-1.76,11.53,0,7.38,1.97,12.56,5.91,15.55,2.34,1.75,5.11,2.62,8.31,2.62,4.64,0,8.18-1.79,10.62-5.36,2.44-3.57,3.66-8.33,3.66-14.27Z"/>
    <path class="cls-1" d="M436.33,183.87v37.28h-17.03v-38.62c0-3.42-.58-6.17-1.76-8.27-1.52-2.95-4.41-4.43-8.66-4.43s-7.75,1.47-10.04,4.4c-2.28,2.93-3.42,7.12-3.42,12.55v34.37h-16.62v-85.56h16.62v30.35c2.42-3.69,5.22-6.26,8.4-7.72,3.18-1.46,6.52-2.18,10.04-2.18,3.94,0,7.52.68,10.74,2.04,3.22,1.36,5.86,3.44,7.93,6.23,1.76,2.37,2.83,4.81,3.22,7.31.39,2.5.59,6.59.59,12.26Z"/>
    <path class="cls-1" d="M469.04,134.77v15.32h-16.91v-15.32h16.91ZM469.04,157.66v63.49h-16.91v-63.49h16.91Z"/>
    <path class="cls-1" d="M529.14,160.58c4.99,3.18,7.86,8.66,8.6,16.43h-16.68c-.23-2.14-.84-3.82-1.81-5.07-1.83-2.25-4.96-3.38-9.36-3.38-3.63,0-6.21.56-7.75,1.69-1.54,1.13-2.31,2.45-2.31,3.96,0,1.9.82,3.28,2.46,4.14,1.64.89,7.43,2.43,17.38,4.6,6.63,1.55,11.61,3.9,14.92,7.05,3.28,3.18,4.92,7.16,4.92,11.94,0,6.29-2.35,11.43-7.05,15.41-4.7,3.98-11.97,5.97-21.8,5.97s-17.43-2.11-22.21-6.32c-4.78-4.21-7.17-9.58-7.17-16.11h16.91c.35,2.95,1.11,5.05,2.28,6.29,2.07,2.21,5.89,3.32,11.47,3.32,3.28,0,5.88-.49,7.81-1.46,1.93-.97,2.9-2.43,2.9-4.37s-.78-3.28-2.34-4.25c-1.56-.97-7.35-2.64-17.38-5.01-7.22-1.79-12.31-4.02-15.27-6.7-2.97-2.64-4.45-6.45-4.45-11.42,0-5.86,2.31-10.9,6.93-15.12,4.62-4.21,11.13-6.32,19.52-6.32s14.45,1.57,19.49,4.72Z"/>
    <path class="cls-1" d="M581.05,209.33v12.41l-7.9.29c-7.88.27-13.26-1.09-16.15-4.08-1.87-1.9-2.81-4.83-2.81-8.8v-39.08h-8.9v-11.82h8.9v-17.71h16.5v17.71h10.36v11.82h-10.36v33.55c0,2.6.33,4.22.99,4.86.66.64,2.69.96,6.09.96.51,0,1.04,0,1.61-.03.56-.02,1.12-.05,1.67-.09Z"/>
    <path class="cls-1" d="M646.35,202.51c-.43,3.77-2.4,7.59-5.91,11.47-5.46,6.17-13.11,9.26-22.94,9.26-8.12,0-15.27-2.6-21.48-7.8-6.2-5.2-9.3-13.67-9.3-25.4,0-10.99,2.8-19.42,8.4-25.28,5.6-5.86,12.86-8.8,21.8-8.8,5.31,0,10.08.99,14.34,2.97,4.25,1.98,7.76,5.11,10.53,9.38,2.5,3.77,4.12,8.14,4.86,13.11.43,2.91.6,7.11.53,12.58h-43.66c.23,6.37,2.24,10.83,6.03,13.4,2.3,1.59,5.07,2.39,8.31,2.39,3.43,0,6.22-.97,8.37-2.91,1.17-1.05,2.2-2.5,3.1-4.37h17.03ZM629.85,183.06c-.27-4.39-1.61-7.72-4.01-9.99-2.4-2.27-5.37-3.41-8.92-3.41-3.86,0-6.86,1.2-8.98,3.61-2.13,2.41-3.46,5.67-4.01,9.79h25.92Z"/>
    <path class="cls-1" d="M729.69,190.28h-18.32v30.87h-17.91v-85.86h37.57c8.66,0,15.57,2.21,20.72,6.64,5.15,4.43,7.72,11.28,7.72,20.56,0,10.13-2.58,17.3-7.72,21.49-5.15,4.19-12.5,6.29-22.06,6.29ZM738.11,172.4c2.34-2.06,3.51-5.32,3.51-9.79s-1.18-7.65-3.54-9.55c-2.36-1.9-5.67-2.85-9.92-2.85h-16.79v25.28h16.79c4.25,0,7.57-1.03,9.95-3.09Z"/>
    <path class="cls-1" d="M803.71,172.98c-6.71,0-11.22,2.18-13.52,6.52-1.29,2.45-1.93,6.21-1.93,11.3v30.35h-16.8v-63.49h15.92v11.07c2.57-4.23,4.82-7.13,6.73-8.68,3.12-2.6,7.18-3.9,12.17-3.9.31,0,.58,0,.79.03.21.02.69.05,1.43.09v17.01c-1.05-.12-1.99-.19-2.81-.23-.82-.04-1.48-.06-1.99-.06Z"/>
    <path class="cls-1" d="M835.43,134.77v15.32h-16.91v-15.32h16.91ZM835.43,157.66v63.49h-16.91v-63.49h16.91Z"/>
    <path class="cls-1" d="M881.6,169.95c-5.66,0-9.54,2.39-11.65,7.16-1.09,2.52-1.64,5.75-1.64,9.67v34.37h-16.62v-63.37h16.09v9.26c2.15-3.26,4.17-5.61,6.09-7.05,3.43-2.56,7.78-3.84,13.05-3.84,6.59,0,11.99,1.72,16.18,5.15,4.19,3.44,6.29,9.14,6.29,17.1v42.75h-17.09v-38.62c0-3.34-.45-5.9-1.35-7.69-1.64-3.26-4.76-4.89-9.36-4.89Z"/>
    <path class="cls-1" d="M953.99,209.33v12.41l-7.9.29c-7.88.27-13.26-1.09-16.15-4.08-1.87-1.9-2.81-4.83-2.81-8.8v-39.08h-8.9v-11.82h8.9v-17.71h16.5v17.71h10.36v11.82h-10.36v33.55c0,2.6.33,4.22.99,4.86.66.64,2.69.96,6.09.96.51,0,1.04,0,1.61-.03.56-.02,1.12-.05,1.67-.09Z"/>
  </g>
  <g>
    <path class="cls-1" d="M160.35-7.09h-41.9V14.98h47.75v15.44h-65.37V-55.44h63.26v15.2h-45.65v18.23h41.9V-7.09Z"/>
    <path class="cls-1" d="M235.72,30.42h-20.77l-11-19.05-11.06,19.05h-20.25L194.41-1.73l-20.83-31.22h20.42l10.65,18.41,10.42-18.41h19.84l-20.95,30.93,21.77,32.44Z"/>
    <path class="cls-1" d="M298.98-26.26c5.15,5.48,7.72,13.51,7.72,24.11,0,11.18-2.53,19.71-7.58,25.57-5.05,5.86-11.56,8.8-19.52,8.8-5.07,0-9.29-1.26-12.64-3.79-1.83-1.4-3.63-3.44-5.38-6.12v33.08h-16.5V-33.07h15.98v9.38c1.79-2.76,3.71-4.93,5.74-6.52,3.71-2.83,8.11-4.25,13.23-4.25,7.45,0,13.77,2.74,18.96,8.21ZM289.5-1.33c0-4.89-1.12-9.22-3.37-12.99-2.24-3.77-5.88-5.65-10.91-5.65-6.05,0-10.2,2.85-12.46,8.56-1.17,3.03-1.76,6.87-1.76,11.53,0,7.38,1.97,12.56,5.91,15.55,2.34,1.75,5.11,2.62,8.31,2.62,4.64,0,8.18-1.79,10.62-5.36,2.44-3.57,3.66-8.33,3.66-14.27Z"/>
    <path class="cls-1" d="M373.36,11.78c-.43,3.77-2.4,7.59-5.91,11.47-5.46,6.17-13.11,9.26-22.94,9.26-8.12,0-15.27-2.6-21.48-7.81-6.2-5.2-9.3-13.67-9.3-25.4,0-10.99,2.8-19.42,8.4-25.28,5.6-5.86,12.86-8.8,21.8-8.8,5.31,0,10.08.99,14.34,2.97,4.25,1.98,7.76,5.11,10.53,9.38,2.5,3.77,4.12,8.14,4.86,13.11.43,2.91.6,7.11.53,12.58h-43.66c.23,6.37,2.24,10.83,6.03,13.4,2.3,1.59,5.07,2.39,8.31,2.39,3.43,0,6.22-.97,8.37-2.91,1.17-1.05,2.2-2.5,3.1-4.37h17.03ZM356.86-7.68c-.27-4.39-1.61-7.72-4.01-9.99-2.4-2.27-5.37-3.41-8.92-3.41-3.86,0-6.86,1.2-8.98,3.61-2.13,2.41-3.46,5.67-4.01,9.79h25.92Z"/>
    <path class="cls-1" d="M417.48-17.75c-6.71,0-11.22,2.18-13.52,6.52-1.29,2.45-1.93,6.21-1.93,11.3v30.35h-16.8v-63.49h15.92v11.07c2.57-4.23,4.82-7.13,6.73-8.68,3.12-2.6,7.18-3.9,12.17-3.9.31,0,.58.01.79.03.21.02.69.05,1.43.09v17.01c-1.05-.12-1.99-.19-2.81-.23-.82-.04-1.48-.06-1.99-.06Z"/>
    <path class="cls-1" d="M461.26,18.59v12.41l-7.9.29c-7.88.27-13.26-1.09-16.15-4.08-1.87-1.9-2.81-4.83-2.81-8.8V-20.67h-8.9v-11.82h8.9v-17.71h16.5v17.71h10.36v11.82h-10.36V12.89c0,2.6.33,4.22.99,4.86.66.64,2.69.96,6.09.96.51,0,1.04,0,1.61-.03.56-.02,1.12-.05,1.67-.09Z"/>
    <path class="cls-1" d="M567.76-40.24h-43.25v19.75h37.86V-5.58h-37.86V30.42h-17.91V-55.32h61.15v15.09Z"/>
    <path class="cls-1" d="M595.62-55.96v15.32h-16.91v-15.32h16.91ZM595.62-33.07V30.42h-16.91v-63.49h16.91Z"/>
    <path class="cls-1" d="M629.79,41.54c1.79,1.51,4.82,2.27,9.07,2.27,6.01,0,10.03-2,12.06-6,1.33-2.56,1.99-6.87,1.99-12.93v-4.08c-1.6,2.72-3.32,4.76-5.15,6.12-3.32,2.52-7.63,3.79-12.93,3.79-8.19,0-14.74-2.86-19.63-8.59-4.9-5.73-7.34-13.48-7.34-23.27s2.36-17.37,7.08-23.79c4.72-6.43,11.41-9.64,20.07-9.64,3.2,0,5.99.49,8.37,1.46,4.06,1.67,7.33,4.74,9.83,9.2v-9.14h16.21V27.16c0,8.19-1.39,14.37-4.15,18.52-4.76,7.14-13.89,10.72-27.39,10.72-8.15,0-14.81-1.59-19.96-4.78-5.15-3.18-8-7.94-8.54-14.27h18.14c.47,1.94,1.23,3.34,2.28,4.19ZM626.98,8.75c2.26,5.36,6.32,8.04,12.17,8.04,3.9,0,7.2-1.47,9.89-4.4,2.69-2.93,4.04-7.6,4.04-14.01,0-6.02-1.28-10.6-3.83-13.75-2.56-3.15-5.98-4.72-10.27-4.72-5.85,0-9.89,2.74-12.11,8.21-1.17,2.91-1.76,6.5-1.76,10.78,0,3.69.62,6.97,1.87,9.84Z"/>
    <path class="cls-1" d="M720.79-15.6c-1.4-3.07-4.16-4.6-8.25-4.6-4.76,0-7.96,1.53-9.6,4.6-.9,1.75-1.35,4.35-1.35,7.81V30.42h-16.91v-63.37h16.21v9.26c2.07-3.3,4.02-5.65,5.85-7.05,3.24-2.48,7.43-3.73,12.58-3.73,4.88,0,8.82,1.07,11.82,3.2,2.42,1.98,4.25,4.52,5.5,7.63,2.18-3.73,4.9-6.47,8.13-8.21,3.43-1.75,7.26-2.62,11.47-2.62,2.81,0,5.58.54,8.31,1.63,2.73,1.09,5.21,2.99,7.43,5.71,1.79,2.21,3,4.93,3.63,8.15.39,2.14.59,5.26.59,9.38l-.12,40.02h-17.09V-10.01c0-2.41-.39-4.39-1.17-5.94-1.48-2.95-4.21-4.43-8.19-4.43-4.6,0-7.78,1.9-9.54,5.71-.9,2.02-1.35,4.45-1.35,7.28V30.42h-16.79V-7.38c0-3.77-.39-6.5-1.17-8.21Z"/>
    <path class="cls-1" d="M793.94-26.2c4.41-5.59,11.98-8.39,22.71-8.39,6.98,0,13.19,1.38,18.61,4.14,5.42,2.76,8.13,7.96,8.13,15.61V14.28c0,2.02.04,4.47.12,7.34.12,2.18.45,3.65.99,4.43.55.78,1.37,1.42,2.46,1.92v2.45h-18.14c-.51-1.28-.86-2.48-1.05-3.61-.2-1.13-.35-2.41-.47-3.84-2.3,2.49-4.96,4.6-7.96,6.35-3.59,2.06-7.65,3.09-12.17,3.09-5.77,0-10.54-1.64-14.31-4.92-3.77-3.28-5.65-7.93-5.65-13.95,0-7.81,3.02-13.46,9.07-16.95,3.32-1.9,8.19-3.26,14.63-4.08l5.68-.7c3.08-.39,5.29-.87,6.61-1.46,2.38-1.01,3.57-2.58,3.57-4.72,0-2.6-.91-4.4-2.72-5.39-1.81-.99-4.48-1.49-7.99-1.49-3.94,0-6.73.97-8.37,2.91-1.17,1.44-1.95,3.38-2.34,5.82h-16.09c.35-5.55,1.91-10.11,4.68-13.69ZM806.35,18.42c1.56,1.28,3.47,1.92,5.73,1.92,3.59,0,6.9-1.05,9.92-3.15,3.02-2.1,4.59-5.92,4.71-11.47V-.45c-1.05.66-2.12,1.19-3.19,1.6-1.07.41-2.55.79-4.42,1.14l-3.75.7c-3.51.62-6.03,1.38-7.55,2.27-2.57,1.51-3.86,3.86-3.86,7.05,0,2.84.8,4.87,2.4,6.12Z"/>
  </g>
  <g>
    <path class="cls-1" d="M160.35,1671.98h-41.9v22.08h47.75v15.44h-65.37v-85.86h63.26v15.2h-45.65v18.23h41.9v14.91Z"/>
    <path class="cls-1" d="M235.72,1709.49h-20.77l-11-19.05-11.06,19.05h-20.25l21.77-32.15-20.83-31.22h20.42l10.65,18.41,10.42-18.41h19.84l-20.95,30.93,21.77,32.44Z"/>
    <path class="cls-1" d="M298.98,1652.82c5.15,5.48,7.72,13.51,7.72,24.11,0,11.18-2.53,19.71-7.58,25.57-5.05,5.86-11.56,8.8-19.52,8.8-5.07,0-9.29-1.26-12.64-3.79-1.83-1.4-3.63-3.44-5.38-6.12v33.08h-16.5v-88.48h15.98v9.38c1.79-2.76,3.71-4.93,5.74-6.52,3.71-2.83,8.11-4.25,13.23-4.25,7.45,0,13.77,2.74,18.96,8.21ZM289.5,1677.74c0-4.89-1.12-9.22-3.37-12.99-2.24-3.77-5.88-5.65-10.91-5.65-6.05,0-10.2,2.85-12.46,8.56-1.17,3.03-1.76,6.87-1.76,11.53,0,7.38,1.97,12.56,5.91,15.55,2.34,1.75,5.11,2.62,8.31,2.62,4.64,0,8.18-1.79,10.62-5.36,2.44-3.57,3.66-8.33,3.66-14.27Z"/>
    <path class="cls-1" d="M373.36,1690.85c-.43,3.77-2.4,7.59-5.91,11.47-5.46,6.17-13.11,9.26-22.94,9.26-8.12,0-15.27-2.6-21.48-7.81-6.2-5.2-9.3-13.67-9.3-25.4,0-10.99,2.8-19.42,8.4-25.28,5.6-5.86,12.86-8.8,21.8-8.8,5.31,0,10.08.99,14.34,2.97,4.25,1.98,7.76,5.11,10.53,9.38,2.5,3.77,4.12,8.14,4.86,13.11.43,2.91.6,7.11.53,12.58h-43.66c.23,6.37,2.24,10.83,6.03,13.4,2.3,1.59,5.07,2.39,8.31,2.39,3.43,0,6.22-.97,8.37-2.91,1.17-1.05,2.2-2.5,3.1-4.37h17.03ZM356.86,1671.4c-.27-4.39-1.61-7.72-4.01-9.99-2.4-2.27-5.37-3.41-8.92-3.41-3.86,0-6.86,1.2-8.98,3.61-2.13,2.41-3.46,5.67-4.01,9.79h25.92Z"/>
    <path class="cls-1" d="M417.48,1661.32c-6.71,0-11.22,2.18-13.52,6.52-1.29,2.45-1.93,6.21-1.93,11.3v30.35h-16.8v-63.49h15.92v11.07c2.57-4.23,4.82-7.13,6.73-8.68,3.12-2.6,7.18-3.9,12.17-3.9.31,0,.58.01.79.03.21.02.69.05,1.43.09v17.01c-1.05-.12-1.99-.19-2.81-.23-.82-.04-1.48-.06-1.99-.06Z"/>
    <path class="cls-1" d="M461.26,1697.67v12.41l-7.9.29c-7.88.27-13.26-1.09-16.15-4.08-1.87-1.9-2.81-4.83-2.81-8.8v-39.08h-8.9v-11.82h8.9v-17.71h16.5v17.71h10.36v11.82h-10.36v33.55c0,2.6.33,4.22.99,4.86.66.64,2.69.96,6.09.96.51,0,1.04,0,1.61-.03.56-.02,1.12-.05,1.67-.09Z"/>
    <path class="cls-1" d="M567.76,1638.84h-43.25v19.75h37.86v14.91h-37.86v36h-17.91v-85.74h61.15v15.09Z"/>
    <path class="cls-1" d="M595.62,1623.11v15.32h-16.91v-15.32h16.91ZM595.62,1646v63.49h-16.91v-63.49h16.91Z"/>
    <path class="cls-1" d="M629.79,1720.61c1.79,1.51,4.82,2.27,9.07,2.27,6.01,0,10.03-2,12.06-6,1.33-2.56,1.99-6.87,1.99-12.93v-4.08c-1.6,2.72-3.32,4.76-5.15,6.12-3.32,2.52-7.63,3.79-12.93,3.79-8.19,0-14.74-2.86-19.63-8.59-4.9-5.73-7.34-13.48-7.34-23.27s2.36-17.37,7.08-23.79c4.72-6.43,11.41-9.64,20.07-9.64,3.2,0,5.99.49,8.37,1.46,4.06,1.67,7.33,4.74,9.83,9.2v-9.14h16.21v60.23c0,8.19-1.39,14.37-4.15,18.52-4.76,7.14-13.89,10.72-27.39,10.72-8.15,0-14.81-1.59-19.96-4.78-5.15-3.18-8-7.94-8.54-14.27h18.14c.47,1.94,1.23,3.34,2.28,4.19ZM626.98,1687.82c2.26,5.36,6.32,8.04,12.17,8.04,3.9,0,7.2-1.47,9.89-4.4,2.69-2.93,4.04-7.6,4.04-14.01,0-6.02-1.28-10.6-3.83-13.75-2.56-3.15-5.98-4.72-10.27-4.72-5.85,0-9.89,2.74-12.11,8.21-1.17,2.91-1.76,6.5-1.76,10.78,0,3.69.62,6.97,1.87,9.84Z"/>
    <path class="cls-1" d="M720.79,1663.47c-1.4-3.07-4.16-4.6-8.25-4.6-4.76,0-7.96,1.53-9.6,4.6-.9,1.75-1.35,4.35-1.35,7.81v38.21h-16.91v-63.37h16.21v9.26c2.07-3.3,4.02-5.65,5.85-7.05,3.24-2.48,7.43-3.73,12.58-3.73,4.88,0,8.82,1.07,11.82,3.2,2.42,1.98,4.25,4.52,5.5,7.63,2.18-3.73,4.9-6.47,8.13-8.21,3.43-1.75,7.26-2.62,11.47-2.62,2.81,0,5.58.54,8.31,1.63,2.73,1.09,5.21,2.99,7.43,5.71,1.79,2.21,3,4.93,3.63,8.15.39,2.14.59,5.26.59,9.38l-.12,40.02h-17.09v-40.42c0-2.41-.39-4.39-1.17-5.94-1.48-2.95-4.21-4.43-8.19-4.43-4.6,0-7.78,1.9-9.54,5.71-.9,2.02-1.35,4.45-1.35,7.28v37.8h-16.79v-37.8c0-3.77-.39-6.5-1.17-8.21Z"/>
    <path class="cls-1" d="M793.94,1652.87c4.41-5.59,11.98-8.39,22.71-8.39,6.98,0,13.19,1.38,18.61,4.14,5.42,2.76,8.13,7.96,8.13,15.61v29.12c0,2.02.04,4.47.12,7.34.12,2.18.45,3.65.99,4.43.55.78,1.37,1.42,2.46,1.92v2.45h-18.14c-.51-1.28-.86-2.48-1.05-3.61-.2-1.13-.35-2.41-.47-3.84-2.3,2.49-4.96,4.6-7.96,6.35-3.59,2.06-7.65,3.09-12.17,3.09-5.77,0-10.54-1.64-14.31-4.92-3.77-3.28-5.65-7.93-5.65-13.95,0-7.81,3.02-13.46,9.07-16.95,3.32-1.9,8.19-3.26,14.63-4.08l5.68-.7c3.08-.39,5.29-.87,6.61-1.46,2.38-1.01,3.57-2.58,3.57-4.72,0-2.6-.91-4.4-2.72-5.39-1.81-.99-4.48-1.49-7.99-1.49-3.94,0-6.73.97-8.37,2.91-1.17,1.44-1.95,3.38-2.34,5.82h-16.09c.35-5.55,1.91-10.11,4.68-13.69ZM806.35,1697.49c1.56,1.28,3.47,1.92,5.73,1.92,3.59,0,6.9-1.05,9.92-3.15,3.02-2.1,4.59-5.92,4.71-11.47v-6.17c-1.05.66-2.12,1.19-3.19,1.6-1.07.41-2.55.79-4.42,1.14l-3.75.7c-3.51.62-6.03,1.38-7.55,2.27-2.57,1.51-3.86,3.86-3.86,7.05,0,2.84.8,4.87,2.4,6.12Z"/>
  </g>
</svg>