<?xml version="1.0" encoding="UTF-8"?>
<svg id="Calque_1" data-name="Calque 1" xmlns="http://www.w3.org/2000/svg" viewBox="0 0 64.79 63.19">
  <defs>
    <style>
      .cls-1 {
        fill: #fff;
        stroke-width: 0px;
      }
    </style>
  </defs>
  <path class="cls-1" d="M64.79,33.72c-.04.44-.08.88-.12,1.31-.64,7.43-3.49,13.9-8.54,19.39-3.67,3.99-8.08,6.85-13.2,8.62-.29.1-.62.15-.93.13-.94-.06-1.5-.67-1.5-1.61,0-1.54.02-3.08.02-4.62,0-1.75.03-3.5-.04-5.25-.07-1.64-.54-3.17-1.61-4.47-.14-.17-.3-.32-.47-.52.61-.09,1.19-.16,1.77-.26,2.13-.35,4.2-.91,6.11-1.94,3.02-1.61,4.98-4.11,5.97-7.36.83-2.71,1.08-5.5.75-8.32-.29-2.51-1.33-4.71-2.99-6.61-.15-.17-.18-.31-.1-.53.77-2.3.69-4.6.05-6.91-.11-.38-.26-.76-.37-1.14-.07-.22-.2-.29-.41-.31-1.07-.08-2.1.16-3.1.49-1.86.63-3.55,1.59-5.18,2.68-.22.15-.41.19-.67.12-2.8-.76-5.65-1.07-8.54-1-2.34.06-4.64.36-6.9.98-.29.08-.51.05-.76-.12-1.7-1.13-3.47-2.12-5.43-2.74-.91-.29-1.83-.48-2.8-.42-.24.01-.37.09-.46.33-.93,2.52-1.2,5.08-.41,7.68.14.47.1.75-.22,1.13-1.92,2.3-2.86,4.98-2.9,7.97-.03,2.39.21,4.74.97,7.01,1.23,3.68,3.68,6.22,7.26,7.69,1.93.79,3.96,1.21,6.03,1.47.12.02.25.04.39.06-.01.04-.01.07-.03.09-1.12,1.08-1.66,2.44-1.9,3.94-.03.21-.11.33-.32.41-1.64.66-3.32.97-5.07.52-1.74-.45-2.99-1.56-3.92-3.04-.67-1.06-1.45-2.02-2.5-2.73-1.06-.72-2.21-1.01-3.48-.77-.1.02-.21.05-.3.09-.37.16-.49.44-.25.76.24.32.52.66.86.86,1.98,1.15,3.04,3.02,3.88,5.01.87,2.06,2.38,3.27,4.49,3.79,1.81.45,3.64.36,5.47.1.29-.04.58-.09.91-.14,0,.13.02.25.02.37.01,1.8-.02,3.61.04,5.41.05,1.49-1.12,2.12-2.38,1.7-2.99-.98-5.77-2.4-8.33-4.25-6.67-4.82-10.99-11.22-12.86-19.25C-.04,35.92-.21,32.23.25,28.51c.8-6.54,3.35-12.33,7.66-17.3C12.45,5.97,18.12,2.53,24.86.89c1.92-.47,3.87-.74,5.84-.84.15,0,.29-.04.44-.05.84,0,1.69,0,2.53,0,.17.02.33.05.5.06,2.27.11,4.5.46,6.69,1.07,6.83,1.88,12.48,5.59,16.89,11.12,4.08,5.11,6.37,10.96,6.92,17.48.04.47.08.94.12,1.41v2.59Z"/>
</svg>