<?xml version="1.0" encoding="UTF-8"?>
<svg id="Calque_1" data-name="Calque 1" xmlns="http://www.w3.org/2000/svg" viewBox="0 0 46.29 20.35">
  <defs>
    <style>
      .cls-1 {
        fill: #fff;
        stroke-width: 0px;
      }
    </style>
  </defs>
  <path class="cls-1" d="M2.24,19.26c.1,0,.18-.08.19-.19l.52-4.12-.52-4.21c-.02-.11-.1-.19-.19-.19s-.18.08-.19.19l-.45,4.21.45,4.11c.01.11.1.19.19.19Z"/>
  <path class="cls-1" d="M.52,17.7c.09,0,.17-.07.18-.18l.4-2.56-.4-2.61c-.01-.11-.09-.18-.18-.18s-.17.08-.19.18l-.34,2.6.34,2.56c.01.11.09.18.19.18Z"/>
  <path class="cls-1" d="M4.28,9.97c-.01-.13-.11-.23-.23-.23s-.22.1-.23.23l-.43,4.99.43,4.81c.01.13.11.23.23.23s.22-.1.23-.23l.49-4.81-.49-4.99Z"/>
  <path class="cls-1" d="M5.89,20.19c.14,0,.26-.12.27-.27l.46-4.96-.46-5.13c-.01-.15-.13-.27-.27-.27s-.26.12-.27.27l-.41,5.13.41,4.96c0,.15.13.27.27.27Z"/>
  <path class="cls-1" d="M7.74,20.27c.17,0,.3-.13.31-.31h0s.44-5,.44-5l-.44-4.76c-.01-.17-.15-.31-.31-.31s-.3.13-.31.31l-.39,4.76.39,5c.01.18.14.31.31.31Z"/>
  <path class="cls-1" d="M10.36,14.96l-.41-7.74c-.01-.2-.16-.35-.35-.35s-.34.16-.35.35l-.36,7.74.36,5c.01.2.16.35.35.35s.34-.15.35-.35h0s.41-5,.41-5Z"/>
  <path class="cls-1" d="M11.48,20.32c.21,0,.38-.17.39-.39h0s.38-4.97.38-4.97l-.38-9.51c0-.22-.18-.39-.39-.39s-.38.17-.39.39l-.34,9.51.34,4.97c0,.22.18.39.39.39Z"/>
  <path class="cls-1" d="M13.37,4.22c-.23,0-.42.19-.43.43l-.31,10.31.31,4.92c0,.24.2.43.43.43s.42-.19.43-.43h0s.36-4.92.36-4.92l-.36-10.31c0-.24-.2-.43-.43-.43Z"/>
  <path class="cls-1" d="M15.28,20.32c.26,0,.46-.21.47-.47h0s.33-4.89.33-4.89l-.33-10.65c0-.26-.21-.47-.47-.47s-.46.21-.47.47l-.3,10.65.3,4.89c0,.26.21.47.47.47Z"/>
  <path class="cls-1" d="M17.2,20.32c.28,0,.5-.23.51-.51h0s.3-4.84.3-4.84l-.3-10.38c0-.29-.23-.51-.51-.51s-.5.22-.51.51l-.27,10.38.27,4.84c0,.28.23.51.51.51Z"/>
  <path class="cls-1" d="M19.96,14.97l-.27-10.01c0-.31-.25-.55-.55-.55s-.54.24-.55.55l-.25,10,.25,4.81c0,.31.25.55.55.55s.54-.24.55-.55h0s.27-4.81.27-4.81Z"/>
  <path class="cls-1" d="M21.09,20.34c.32,0,.58-.26.59-.59h0s.25-4.78.25-4.78l-.25-11.91c0-.33-.27-.59-.59-.59s-.58.27-.59.59l-.22,11.9.22,4.79c0,.32.27.59.59.59Z"/>
  <path class="cls-1" d="M23.04,1.35c-.34,0-.62.29-.63.63l-.26,12.99.26,4.71c0,.34.28.63.63.63s.62-.28.62-.63h0s.28-4.7.28-4.7l-.28-12.99c0-.35-.29-.63-.62-.63Z"/>
  <path class="cls-1" d="M24.82,20.34s15.68,0,15.78,0c3.15,0,5.69-2.58,5.69-5.76s-2.55-5.76-5.69-5.76c-.78,0-1.52.16-2.2.45-.45-5.2-4.76-9.27-10.01-9.27-1.28,0-2.54.26-3.64.69-.43.17-.55.34-.55.68v18.29c0,.35.27.65.62.68Z"/>
</svg>