<?xml version="1.0" encoding="UTF-8"?>
<svg id="Calque_1" data-name="Calque 1" xmlns="http://www.w3.org/2000/svg" viewBox="0 0 144.06 124.42">
  <defs>
    <style>
      .cls-1 {
        fill: #ff6e5f;
        stroke-width: 0px;
      }
    </style>
  </defs>
  <g>
    <g>
      <polygon class="cls-1" points="58.96 34.86 60.49 32.79 64.76 40.02 71.44 40.02 64.71 29.08 71.14 20.36 65.11 20.36 59.07 28.7 58.96 28.7 58.96 20.36 53.22 20.36 53.22 40.02 58.96 40.02 58.96 34.86"/>
      <rect class="cls-1" x="72.79" y="20.36" width="5.74" height="19.66"/>
    </g>
    <g>
      <polygon class="cls-1" points="58.96 60.48 59.06 60.48 66.02 70.7 70.75 70.7 70.75 51.04 65 51.04 65 61.09 64.91 61.09 58 51.04 53.22 51.04 53.22 70.7 58.96 70.7 58.96 60.48"/>
      <polygon class="cls-1" points="87.24 55.62 87.24 51.04 73.46 51.04 73.46 70.7 87.24 70.7 87.24 66.12 79.2 66.12 79.2 63 84.03 63 84.03 58.75 79.2 58.75 79.2 55.62 87.24 55.62"/>
    </g>
  </g>
  <rect class="cls-1" x="53.22" y="43.95" width="34.02" height="3.16"/>
  <g>
    <polygon class="cls-1" points="64.27 92.59 64.18 92.59 59.86 80.89 53.22 80.89 53.22 100.55 58.23 100.55 58.23 89.16 58.32 89.16 62.69 100.55 65.76 100.55 70.13 89.16 70.22 89.16 70.22 100.55 75.23 100.55 75.23 80.89 68.59 80.89 64.27 92.59"/>
    <path class="cls-1" d="M90.92,100.55h6.04l-6.38-19.66h-7.21l-6.38,19.66h6.04l1.02-3.91h5.85l1.02,3.91ZM85.1,92.57l1.81-6.99h.11l1.81,6.99h-3.74Z"/>
  </g>
  <path class="cls-1" d="M96.96,78.25c-2.49,0-3.8-.53-4.96-.99-1.02-.41-1.91-.77-3.79-.77s-2.77.36-3.79.77c-1.16.47-2.47.99-4.96.99s-3.8-.53-4.95-.99c-1.02-.41-1.91-.77-3.79-.77s-2.77.36-3.79.77c-1.16.47-2.47.99-4.96.99s-3.8-.53-4.95-.99c-1.02-.41-1.91-.77-3.79-.77v-3.15c2.49,0,3.8.53,4.95.99,1.02.41,1.91.77,3.79.77s2.77-.36,3.79-.77c1.16-.47,2.47-.99,4.96-.99s3.8.53,4.95.99c1.02.41,1.91.77,3.79.77s2.77-.36,3.79-.77c1.16-.47,2.47-.99,4.96-.99s3.8.53,4.96.99c1.02.41,1.91.77,3.79.77v3.15Z"/>
  <path class="cls-1" d="M98.26,110.21h-47.91v-1.58c0-1.65-1.34-2.99-2.98-2.99h-1.57V14.21h3.13v88.48c2.11.56,3.78,2.24,4.34,4.37h44.98v3.15Z"/>
</svg>