<?xml version="1.0" encoding="UTF-8"?>
<svg id="Calque_1" data-name="Calque 1" xmlns="http://www.w3.org/2000/svg" viewBox="0 0 144.06 124.42">
  <defs>
    <style>
      .cls-1 {
        fill: #669500;
        stroke-width: 0px;
      }
    </style>
  </defs>
  <path class="cls-1" d="M101,26.3c-6.94-7.89-16.93-12.09-29.02-12.09s-22.08,4.1-29.02,11.99c-6.2,7.04-9.57,16.51-9.57,26.81s3.57,20.4,9.78,27.55c7.04,8.1,17.03,12.3,28.91,12.3s21.87-4.2,28.81-12.3c6.2-7.15,9.78-17.14,9.78-27.34s-3.47-19.98-9.67-26.92ZM69.97,39.68c-1.69-.11-3.37-.36-5.06-.76,1.41-1.8,3.1-3.59,5.06-5.37v6.13ZM69.97,44.41v6.78h-10.39c.24-2.71,1.09-5.43,2.57-8.13,2.6.75,5.2,1.2,7.82,1.35ZM69.97,55.88v6.7c-2.49.08-4.94.43-7.36,1.05-1.46-2.63-2.4-5.21-2.83-7.75h10.19ZM69.97,67.28v5.84c-1.75-1.78-3.3-3.54-4.61-5.29,1.52-.3,3.06-.49,4.61-.55ZM74.67,67.45c1.61.18,3.24.48,4.9.9-1.38,1.73-3.01,3.46-4.9,5.17v-6.07ZM74.67,62.73v-6.85h10.39c-.25,2.8-1.15,5.59-2.71,8.37-2.61-.77-5.17-1.27-7.68-1.52ZM74.67,51.18v-6.83c2.36-.19,4.74-.6,7.15-1.27,1.57,2.74,2.58,5.45,3.03,8.1h-10.19ZM74.67,39.63v-5.68c1.65,1.67,3.12,3.34,4.38,4.99-1.47.33-2.93.57-4.38.69ZM76.03,28.7c6.24.56,11.06,2.51,14.51,5.78-2.29,1.22-4.52,2.24-6.7,3.04-2.07-2.93-4.67-5.87-7.8-8.81ZM60.18,37.4c-2.05-.81-4.12-1.84-6.21-3.08,3.48-3.19,8.28-5.1,14.42-5.64-3.35,2.85-6.1,5.76-8.21,8.72ZM57.69,41.47c-1.64,3.19-2.58,6.43-2.81,9.71h-7.75c.26-5.29,1.52-9.72,3.77-13.22,2.28,1.39,4.54,2.56,6.79,3.51ZM47.14,55.88h7.89c.42,3.05,1.44,6.13,3.06,9.23-2.48.99-4.93,2.27-7.36,3.85-2.12-3.46-3.31-7.83-3.6-13.08ZM60.58,69.19c2.13,3.07,4.83,6.16,8.12,9.25-6.48-.47-11.45-2.44-14.99-5.8,2.27-1.44,4.55-2.58,6.86-3.44ZM84.32,69.86c1.97.75,3.98,1.65,6.03,2.72-3.39,3.22-8.07,5.17-14.06,5.76,3.26-2.77,5.94-5.61,8.02-8.49ZM86.84,65.81c1.71-3.26,2.69-6.57,2.92-9.93h7.26c-.3,5.18-1.51,9.52-3.65,12.98-2.22-1.19-4.39-2.2-6.53-3.05ZM97.04,51.18h-7.43c-.43-3.18-1.52-6.38-3.26-9.6,2.35-.91,4.75-2.04,7.19-3.39,2.1,3.44,3.25,7.8,3.5,12.99Z"/>
  <g>
    <path class="cls-1" d="M36.52,105.69v4.12h-2.12v-11.84h3.68c3.17,0,4.59,1.14,4.59,3.69,0,4.17-3.98,3.93-3.98,3.93,0,0,1.03,2.66,2.36,2.66.61,0,1.15-.47,1.39-1.58h1.76c0,1.37-1.1,3.39-3.15,3.39-2.97,0-4.52-4.37-4.52-4.37ZM38.32,103.67h.08c1.27,0,1.98-.68,1.98-1.9s-.71-1.93-1.97-1.93h-.08c-1.25,0-1.98.69-1.98,1.9s.71,1.93,1.97,1.93Z"/>
    <path class="cls-1" d="M45.76,97.98h2.22v4.71h4.91v-4.71h2.24v11.84h-2.24v-5.02h-4.91v5.02h-2.22v-11.84Z"/>
    <path class="cls-1" d="M57.52,97.98h2.22v11.84h-2.22v-11.84Z"/>
    <path class="cls-1" d="M62.01,104.6v-1.78c1.17-.37,2.44-.39,3.63-.05l1.61-2.8h-5.42v-2h9.03l-3.27,5.73c.73.14,2.03.1,3.24-.37v1.76c-1.3.54-2.78.61-4.12.15l-1.49,2.58h5.76v2h-9.39l3.15-5.49c-.91-.1-1.85-.02-2.73.27Z"/>
    <path class="cls-1" d="M86.71,97.98h3c.95,2.36,2.08,4.64,3.39,6.83,1.3-2.19,2.44-4.47,3.39-6.83h3v11.84h-2.22v-8.52s-1.75,3.85-4.17,7.29c-2.34-3.34-4.17-7.29-4.17-7.29v8.52h-2.22v-11.84Z"/>
    <path class="cls-1" d="M101.84,97.98h7.82v1.78h-4.34c-.91,0-1.46.59-1.46,1.59,0,1.19.75,1.61,1.46,1.61h3.19v1.8h-3.19c-.93,0-1.49.61-1.49,1.63,0,.8.39,1.66,1.49,1.66h4.34v1.78h-7.82v-11.84Z"/>
    <path class="cls-1" d="M83.29,99.48c-1.12-1.27-2.73-1.95-4.68-1.95s-3.56.66-4.68,1.93c-1,1.14-1.54,2.66-1.54,4.32s.58,3.29,1.58,4.44c1.14,1.3,2.75,1.98,4.66,1.98s3.52-.68,4.64-1.98c1-1.15,1.58-2.76,1.58-4.41s-.56-3.22-1.56-4.34ZM78.29,101.64c-.27-.02-.54-.06-.81-.12.23-.29.5-.58.81-.87v.99ZM78.29,102.4v1.09h-1.67c.04-.44.18-.87.41-1.31.42.12.84.19,1.26.22ZM78.29,104.25v1.08c-.4.01-.8.07-1.19.17-.24-.42-.39-.84-.46-1.25h1.64ZM78.29,106.09v.94c-.28-.29-.53-.57-.74-.85.24-.05.49-.08.74-.09ZM79.05,106.12c.26.03.52.08.79.14-.22.28-.49.56-.79.83v-.98ZM79.05,105.35v-1.1h1.67c-.04.45-.19.9-.44,1.35-.42-.12-.83-.21-1.24-.24ZM79.05,103.49v-1.1c.38-.03.76-.1,1.15-.2.25.44.42.88.49,1.3h-1.64ZM79.05,101.63v-.92c.27.27.5.54.71.8-.24.05-.47.09-.71.11ZM79.26,99.87c1.01.09,1.78.4,2.34.93-.37.2-.73.36-1.08.49-.33-.47-.75-.95-1.26-1.42ZM76.71,101.27c-.33-.13-.66-.3-1-.5.56-.51,1.33-.82,2.32-.91-.54.46-.98.93-1.32,1.4ZM76.31,101.93c-.26.51-.42,1.04-.45,1.57h-1.25c.04-.85.24-1.57.61-2.13.37.22.73.41,1.09.57ZM74.61,104.25h1.27c.07.49.23.99.49,1.49-.4.16-.79.37-1.19.62-.34-.56-.53-1.26-.58-2.11ZM76.77,106.4c.34.5.78.99,1.31,1.49-1.04-.08-1.84-.39-2.42-.94.37-.23.73-.42,1.11-.55ZM80.6,106.5c.32.12.64.27.97.44-.55.52-1.3.83-2.27.93.53-.45.96-.9,1.29-1.37ZM81.01,105.85c.28-.53.43-1.06.47-1.6h1.17c-.05.83-.24,1.53-.59,2.09-.36-.19-.71-.35-1.05-.49ZM82.65,103.49h-1.2c-.07-.51-.25-1.03-.53-1.55.38-.15.76-.33,1.16-.55.34.56.52,1.26.56,2.09Z"/>
  </g>
</svg>